<svg width="400" height="242" viewBox="0 0 400 242" fill="none" xmlns="http://www.w3.org/2000/svg">
<path d="M314.426 22H253.336C243.736 22 235.936 29.81 235.936 39.4V73.43L247.486 61.42C250.116 58.68 253.806 57.11 257.596 57.11H313.866C322.776 57.11 330.036 49.86 330.036 40.94V37.6C330.026 29 323.026 22 314.426 22ZM325.086 40.95C325.086 47.13 320.056 52.17 313.866 52.17H257.596C252.466 52.17 247.476 54.29 243.916 57.99L240.876 61.15V39.41C240.876 32.54 246.466 26.96 253.326 26.96H314.416C320.296 26.96 325.076 31.74 325.076 37.62V40.95H325.086Z" fill="#00AEEF"/>
<path d="M53.9554 161.21C67.9854 173.07 84.1954 176.25 101.725 172.46C122.445 167.98 141.365 151.55 141.075 124.82C140.885 107.91 141.045 90.9999 141.035 74.0999C141.035 69.8399 140.165 68.95 136.005 68.95C118.425 68.94 100.835 68.9299 83.2554 68.9599C75.1254 68.9699 67.6754 71.3599 60.8254 75.6799C34.0854 92.5399 29.5754 131.86 48.7054 155.85C49.6154 156.99 53.0454 160.45 53.9554 161.21ZM89.2054 94.8999C92.4854 94.8899 95.7654 94.8999 99.0454 94.8999C103.195 94.8999 107.345 94.9499 111.495 94.8799C113.685 94.8399 115.415 95.8199 115.385 97.8799C115.245 107.98 115.815 118.22 114.275 128.12C112.515 139.47 101.245 147.62 89.8454 147.78C77.6354 147.95 66.9754 140.25 63.6854 128.88C58.7054 111.65 71.2354 94.9499 89.2054 94.8999Z" fill="#002561"/>
<path d="M141.035 178.42C141.025 178.42 141.025 178.42 141.015 178.42C141.015 173.98 141.095 169.53 140.945 165.1C140.915 164.23 140.205 162.93 139.495 162.66C138.795 162.39 137.565 163 136.795 163.55C135.955 164.15 135.395 165.12 134.685 165.92C118.225 184.5 96.9352 192.08 72.4352 183.21C71.0152 182.7 65.1052 180.1 64.1852 179.67C61.4852 178.4 56.8552 182.55 56.2952 183.08C54.4352 184.83 47.8952 192.75 46.2452 194.78C43.3952 198.29 43.4252 199.27 47.3152 201.79C64.6452 212.97 83.7052 216.19 103.855 213.53C116.595 211.84 127.895 206.75 137.275 197.71C139.775 195.3 141.395 192.84 141.095 189.15C140.805 185.59 141.035 182 141.035 178.42Z" fill="#002561"/>
<path d="M235.465 81.71C221.435 69.85 205.225 66.67 187.695 70.46C182.945 71.49 178.305 73.15 173.955 75.41V54.32C173.955 47.02 168.035 41.1 160.735 41.1H148.355V121.43H148.385C148.525 137.23 148.395 153.03 148.405 168.82C148.405 173.08 149.275 173.97 153.435 173.97C171.015 173.98 188.605 173.99 206.185 173.96C214.315 173.95 221.765 171.56 228.615 167.24C255.355 150.38 259.865 111.06 240.735 87.07C239.795 85.93 236.365 82.47 235.465 81.71ZM200.205 148.01C196.925 148.02 193.645 148.01 190.365 148.01C186.215 148.01 182.065 147.96 177.915 148.03C175.725 148.07 173.995 147.09 174.025 145.03C174.165 134.93 173.595 124.69 175.135 114.78C176.895 103.43 188.165 95.28 199.565 95.12C211.775 94.95 222.435 102.65 225.725 114.02C230.715 131.27 218.175 147.97 200.205 148.01Z" fill="#002561"/>
<path d="M339.935 75.67C333.095 71.35 325.645 68.96 317.505 68.95C299.925 68.93 282.335 68.94 264.755 68.94C260.595 68.94 259.725 69.83 259.725 74.09C259.715 89.89 259.845 105.69 259.705 121.48H259.675V201.81H269.615C278.265 201.81 285.285 194.8 285.285 186.14V167.5C289.635 169.76 294.285 171.42 299.025 172.45C316.555 176.24 332.765 173.06 346.795 161.2C347.695 160.44 351.135 156.98 352.045 155.83C371.185 131.85 366.675 92.53 339.935 75.67ZM337.065 128.89C333.775 140.27 323.115 147.97 310.905 147.79C299.505 147.63 288.235 139.48 286.475 128.13C284.935 118.23 285.505 107.98 285.365 97.89C285.335 95.83 287.065 94.85 289.255 94.89C293.405 94.96 297.555 94.91 301.705 94.91C304.985 94.91 308.265 94.9 311.545 94.91C329.515 94.95 342.055 111.65 337.065 128.89Z" fill="#002561"/>
<path d="M153.615 209.57V211.64H149.065C147.405 211.64 146.585 212.47 146.585 214.12C146.585 215.78 147.415 216.6 149.065 216.6H151.135V215.15H149.065V213.08H153.615V218.67H149.065C145.755 218.67 144.095 217.15 144.095 214.12C144.095 211.08 145.755 209.57 149.065 209.57H153.615V209.57Z" fill="#002561"/>
<path d="M162.515 215.37V218.68H160.035V209.57H165.415C168.175 209.57 169.555 210.54 169.555 212.47C169.555 213.88 168.825 214.77 167.365 215.15L169.935 218.68H166.965L164.545 215.37H162.515V215.37ZM162.515 211.64V213.3H165.415C166.515 213.3 167.075 213.03 167.075 212.47C167.075 211.91 166.525 211.64 165.415 211.64H162.515V211.64Z" fill="#002561"/>
<path d="M182.605 209.57H185.085V214.12C185.085 217.16 183.425 218.67 180.115 218.67C176.805 218.67 175.145 217.15 175.145 214.12V209.57H177.625V214.12C177.625 215.78 178.455 216.6 180.105 216.6C181.755 216.6 182.585 215.77 182.585 214.12V209.57H182.605Z" fill="#002561"/>
<path d="M193.625 215.37V218.68H191.145V209.57H196.525C199.285 209.57 200.665 210.54 200.665 212.47C200.665 214.4 199.285 215.37 196.525 215.37H193.625V215.37ZM193.625 211.64V213.3H196.525C197.625 213.3 198.185 213.03 198.185 212.47C198.185 211.91 197.635 211.64 196.525 211.64H193.625V211.64Z" fill="#002561"/>
<path d="M211.025 209.57C214.335 209.57 215.995 211.09 215.995 214.12C215.995 217.16 214.335 218.67 211.025 218.67C207.715 218.67 206.055 217.15 206.055 214.12C206.055 211.09 207.715 209.57 211.025 209.57ZM208.545 214.13C208.545 215.79 209.375 216.61 211.025 216.61C212.685 216.61 213.505 215.78 213.505 214.13C213.505 212.47 212.675 211.65 211.025 211.65C209.375 211.64 208.545 212.47 208.545 214.13Z" fill="#002561"/>
<path d="M239.815 213.71H237.325C237.195 212.33 236.375 211.64 234.855 211.64C233.195 211.64 232.375 212.47 232.375 214.12C232.375 215.78 233.205 216.6 234.855 216.6C236.375 216.6 237.195 215.91 237.325 214.53H239.815C239.665 217.29 238.005 218.67 234.855 218.67C231.545 218.67 229.885 217.15 229.885 214.12C229.885 211.08 231.545 209.57 234.855 209.57C238.005 209.57 239.665 210.96 239.815 213.71Z" fill="#002561"/>
<path d="M250.335 209.57C253.645 209.57 255.305 211.09 255.305 214.12C255.305 217.16 253.645 218.67 250.335 218.67C247.025 218.67 245.365 217.15 245.365 214.12C245.365 211.09 247.025 209.57 250.335 209.57ZM247.855 214.13C247.855 215.79 248.685 216.61 250.335 216.61C251.985 216.61 252.815 215.78 252.815 214.13C252.815 212.47 251.985 211.65 250.335 211.65C248.685 211.65 247.855 212.47 247.855 214.13Z" fill="#002561"/>
<path d="M263.495 212.61V218.68H261.015V209.57H264.325L267.635 215.64V209.57H270.115V218.68H266.805L263.495 212.61Z" fill="#002561"/>
<path d="M285.555 209.57V211.64H280.175C279.075 211.64 278.515 211.87 278.515 212.34C278.515 212.84 279.065 213.09 280.175 213.09H281.415C284.175 213.09 285.555 214.02 285.555 215.86C285.555 217.74 284.175 218.68 281.415 218.68H276.035V216.61H281.415C282.515 216.61 283.075 216.36 283.075 215.86C283.075 215.39 282.525 215.16 281.415 215.16H280.175C277.415 215.16 276.035 214.22 276.035 212.34C276.035 210.49 277.415 209.57 280.175 209.57H285.555Z" fill="#002561"/>
<path d="M298.745 209.57H301.225V214.12C301.225 217.16 299.565 218.67 296.255 218.67C292.945 218.67 291.285 217.15 291.285 214.12V209.57H293.765V214.12C293.765 215.78 294.595 216.6 296.245 216.6C297.905 216.6 298.725 215.77 298.725 214.12V209.57H298.745Z" fill="#002561"/>
<path d="M307.275 209.57H309.755V216.61H315.555V218.68H307.275V209.57V209.57Z" fill="#002561"/>
<path d="M324.735 211.64V218.68H322.255V211.64H318.945V209.57H328.055V211.64H324.735Z" fill="#002561"/>
<path d="M337.655 209.57C340.965 209.57 342.625 211.09 342.625 214.12C342.625 217.16 340.965 218.67 337.655 218.67C334.345 218.67 332.685 217.15 332.685 214.12C332.685 211.09 334.335 209.57 337.655 209.57ZM335.165 214.13C335.165 215.79 335.995 216.61 337.645 216.61C339.305 216.61 340.125 215.78 340.125 214.13C340.125 212.47 339.295 211.65 337.645 211.65C335.995 211.64 335.165 212.47 335.165 214.13Z" fill="#002561"/>
<path d="M350.815 215.37V218.68H348.335V209.57H353.715C356.475 209.57 357.855 210.54 357.855 212.47C357.855 213.88 357.125 214.77 355.665 215.15L358.235 218.68H355.265L352.845 215.37H350.815V215.37ZM350.815 211.64V213.3H353.715C354.815 213.3 355.375 213.03 355.375 212.47C355.375 211.91 354.825 211.64 353.715 211.64H350.815V211.64Z" fill="#002561"/>
<path d="M360.935 182.87H133.815V185.52H360.935V182.87Z" fill="#002561"/>
<path d="M331.755 183.06C331.755 175.66 337.235 170.77 344.435 170.77C351.635 170.77 357.115 175.67 357.115 183.06C357.115 190.36 351.635 195.55 344.435 195.55C337.235 195.54 331.755 190.36 331.755 183.06Z" fill="#00AEEF"/>
</svg>
