<svg width="400" height="242" viewBox="0 0 400 242" fill="none" xmlns="http://www.w3.org/2000/svg">
<g opacity="0.04">
<path d="M314.661 22H253.301C243.661 22 235.821 29.84 235.821 39.48V73.66L247.421 61.59C250.061 58.84 253.761 57.27 257.581 57.27H314.101C323.051 57.27 330.341 49.99 330.341 41.03V37.67C330.341 29.03 323.311 22 314.661 22ZM325.371 41.03C325.371 47.24 320.321 52.3 314.101 52.3H257.581C252.421 52.3 247.411 54.43 243.841 58.15L240.791 61.32V39.48C240.791 32.58 246.401 26.97 253.301 26.97H314.661C320.561 26.97 325.371 31.77 325.371 37.68V41.03Z" fill="#00AEEF"/>
<path d="M153.151 210.4V212.48H148.581C146.921 212.48 146.081 213.31 146.081 214.98C146.081 216.64 146.911 217.48 148.581 217.48H150.661V216.02H148.581V213.94H153.151V219.55H148.581C145.251 219.55 143.591 218.03 143.591 214.98C143.591 211.93 145.251 210.41 148.581 210.41H153.151V210.4Z" fill="#002561"/>
<path d="M162.091 216.22V219.55H159.591V210.4H165.001C167.771 210.4 169.161 211.37 169.161 213.31C169.161 214.72 168.431 215.62 166.961 216L169.541 219.54H166.551L164.121 216.21H162.091V216.22ZM162.091 212.48V214.14H165.001C166.111 214.14 166.661 213.87 166.661 213.31C166.661 212.75 166.101 212.48 165.001 212.48H162.091V212.48Z" fill="#002561"/>
<path d="M182.272 210.4H184.772V214.97C184.772 218.02 183.112 219.54 179.782 219.54C176.452 219.54 174.792 218.02 174.792 214.97V210.4H177.292V214.97C177.292 216.63 178.122 217.47 179.792 217.47C181.452 217.47 182.292 216.64 182.292 214.97V210.4H182.272Z" fill="#002561"/>
<path d="M193.331 216.22V219.55H190.831V210.4H196.241C199.011 210.4 200.401 211.37 200.401 213.31C200.401 215.25 199.011 216.22 196.241 216.22H193.331V216.22ZM193.331 212.48V214.14H196.241C197.351 214.14 197.901 213.87 197.901 213.31C197.901 212.75 197.341 212.48 196.241 212.48H193.331V212.48Z" fill="#002561"/>
<path d="M210.811 210.4C214.141 210.4 215.801 211.92 215.801 214.97C215.801 218.02 214.141 219.54 210.811 219.54C207.481 219.54 205.821 218.02 205.821 214.97C205.821 211.92 207.491 210.4 210.811 210.4ZM208.321 214.97C208.321 216.63 209.151 217.47 210.821 217.47C212.481 217.47 213.321 216.64 213.321 214.97C213.321 213.31 212.491 212.47 210.821 212.47C209.151 212.48 208.321 213.31 208.321 214.97Z" fill="#002561"/>
<path d="M239.731 214.56H237.231C237.101 213.17 236.271 212.48 234.751 212.48C233.091 212.48 232.251 213.31 232.251 214.98C232.251 216.64 233.081 217.48 234.751 217.48C236.271 217.48 237.101 216.79 237.231 215.4H239.731C239.581 218.17 237.921 219.56 234.751 219.56C231.421 219.56 229.761 218.04 229.761 214.99C229.761 211.94 231.421 210.42 234.751 210.42C237.911 210.4 239.581 211.79 239.731 214.56Z" fill="#002561"/>
<path d="M250.291 210.4C253.621 210.4 255.281 211.92 255.281 214.97C255.281 218.02 253.621 219.54 250.291 219.54C246.961 219.54 245.301 218.02 245.301 214.97C245.301 211.92 246.971 210.4 250.291 210.4ZM247.801 214.97C247.801 216.63 248.631 217.47 250.301 217.47C251.971 217.47 252.801 216.64 252.801 214.97C252.801 213.31 251.971 212.47 250.301 212.47C248.631 212.47 247.801 213.31 247.801 214.97Z" fill="#002561"/>
<path d="M263.511 213.45V219.55H261.021V210.4H264.351L267.681 216.5V210.4H270.181V219.55H266.851L263.511 213.45Z" fill="#002561"/>
<path d="M285.671 210.4V212.48H280.261C279.151 212.48 278.601 212.71 278.601 213.19C278.601 213.69 279.161 213.94 280.261 213.94H281.511C284.281 213.94 285.671 214.87 285.671 216.73C285.671 218.62 284.281 219.56 281.511 219.56H276.101V217.48H281.511C282.621 217.48 283.171 217.23 283.171 216.73C283.171 216.26 282.611 216.02 281.511 216.02H280.261C277.491 216.02 276.101 215.08 276.101 213.19C276.101 211.34 277.491 210.4 280.261 210.4H285.671Z" fill="#002561"/>
<path d="M298.911 210.4H301.411V214.97C301.411 218.02 299.751 219.54 296.421 219.54C293.091 219.54 291.431 218.02 291.431 214.97V210.4H293.931V214.97C293.931 216.63 294.761 217.47 296.431 217.47C298.101 217.47 298.931 216.64 298.931 214.97V210.4H298.911Z" fill="#002561"/>
<path d="M307.481 210.4H309.981V217.47H315.801V219.55H307.481V210.4Z" fill="#002561"/>
<path d="M325.021 212.48V219.55H322.521V212.48H319.191V210.4H328.341V212.48H325.021Z" fill="#002561"/>
<path d="M337.991 210.4C341.321 210.4 342.981 211.92 342.981 214.97C342.981 218.02 341.321 219.54 337.991 219.54C334.661 219.54 333.001 218.02 333.001 214.97C333.001 211.92 334.671 210.4 337.991 210.4ZM335.501 214.97C335.501 216.63 336.331 217.47 338.001 217.47C339.671 217.47 340.501 216.64 340.501 214.97C340.501 213.31 339.671 212.47 338.001 212.47C336.331 212.47 335.501 213.31 335.501 214.97Z" fill="#002561"/>
<path d="M351.211 216.22V219.55H348.711V210.4H354.121C356.891 210.4 358.281 211.37 358.281 213.31C358.281 214.72 357.551 215.62 356.081 216L358.661 219.54H355.671L353.241 216.21H351.211V216.22ZM351.211 212.48V214.14H354.121C355.231 214.14 355.781 213.87 355.781 213.31C355.781 212.75 355.221 212.48 354.121 212.48H351.211V212.48Z" fill="#002561"/>
<path d="M361.381 183.58H133.261V186.24H361.381V183.58Z" fill="#002561"/>
<path d="M332.071 183.77C332.071 176.34 337.571 171.42 344.801 171.42C352.041 171.42 357.541 176.34 357.541 183.77C357.541 191.1 352.041 196.31 344.801 196.31C337.571 196.31 332.071 191.1 332.071 183.77Z" fill="#00AEEF"/>
<path d="M53.0414 161.82C67.1414 173.73 83.4213 176.93 101.021 173.12C121.831 168.62 140.841 152.12 140.541 125.27C140.351 108.29 140.511 91.31 140.501 74.32C140.501 70.04 139.621 69.15 135.451 69.15C117.791 69.14 100.131 69.13 82.4613 69.16C74.2913 69.17 66.8114 71.57 59.9314 75.91C33.0714 92.85 28.5414 132.34 47.7614 156.43C48.6914 157.58 52.1414 161.06 53.0414 161.82ZM88.4613 95.22C91.7613 95.21 95.0513 95.22 98.3513 95.22C102.521 95.22 106.691 95.27 110.851 95.2C113.041 95.16 114.781 96.15 114.761 98.21C114.621 108.35 115.191 118.64 113.641 128.59C111.871 139.99 100.551 148.18 89.1013 148.34C76.8413 148.51 66.1314 140.78 62.8214 129.35C57.8113 112.04 70.4114 95.27 88.4613 95.22Z" fill="#002561"/>
<path d="M140.512 179.11C140.502 179.11 140.502 179.11 140.492 179.11C140.492 174.65 140.572 170.18 140.422 165.73C140.392 164.86 139.682 163.55 138.962 163.28C138.252 163.01 137.022 163.62 136.252 164.17C135.412 164.77 134.842 165.75 134.132 166.55C117.602 185.21 96.2215 192.82 71.6015 183.92C70.1715 183.4 64.2315 180.8 63.3215 180.37C60.6115 179.1 55.9615 183.26 55.3915 183.79C53.5215 185.55 46.9515 193.51 45.3015 195.55C42.4415 199.08 42.4715 200.06 46.3815 202.59C63.7915 213.82 82.9315 217.06 103.172 214.38C115.972 212.69 127.312 207.57 136.742 198.49C139.252 196.07 140.882 193.59 140.582 189.89C140.282 186.31 140.512 182.7 140.512 179.11Z" fill="#002561"/>
<path d="M235.352 81.97C221.252 70.06 204.972 66.86 187.372 70.67C182.602 71.7 177.932 73.37 173.572 75.64V54.46C173.572 47.13 167.622 41.18 160.292 41.18H147.852V121.87H147.882C148.022 137.74 147.892 153.61 147.902 169.47C147.902 173.75 148.782 174.64 152.952 174.64C170.612 174.65 188.272 174.66 205.942 174.63C214.112 174.62 221.592 172.22 228.472 167.88C255.332 150.94 259.862 111.45 240.642 87.36C239.712 86.21 236.262 82.73 235.352 81.97ZM199.942 148.57C196.642 148.58 193.352 148.57 190.052 148.57C185.882 148.57 181.712 148.52 177.552 148.59C175.362 148.63 173.622 147.64 173.642 145.58C173.782 135.44 173.212 125.15 174.762 115.2C176.532 103.8 187.852 95.61 199.302 95.45C211.562 95.28 222.272 103.01 225.582 114.44C230.582 131.75 217.992 148.52 199.942 148.57Z" fill="#002561"/>
<path d="M340.291 75.91C333.411 71.57 325.931 69.17 317.761 69.16C300.101 69.14 282.441 69.15 264.771 69.15C260.591 69.15 259.721 70.04 259.721 74.32C259.711 90.19 259.841 106.06 259.701 121.92H259.671V202.61H269.651C278.341 202.61 285.391 195.56 285.391 186.87V168.14C289.761 170.41 294.431 172.08 299.191 173.11C316.801 176.92 333.081 173.72 347.171 161.81C348.081 161.04 351.521 157.57 352.451 156.41C371.671 132.34 367.151 92.84 340.291 75.91ZM337.401 129.36C334.091 140.79 323.391 148.52 311.121 148.35C299.671 148.19 288.351 140 286.581 128.6C285.031 118.65 285.601 108.36 285.461 98.22C285.431 96.15 287.171 95.17 289.371 95.21C293.541 95.28 297.711 95.23 301.871 95.23C305.171 95.23 308.461 95.22 311.761 95.23C329.821 95.27 342.421 112.04 337.401 129.36Z" fill="#002561"/>
</g>
</svg>
