<svg width="328" height="197" viewBox="0 0 328 197" fill="none" xmlns="http://www.w3.org/2000/svg">
<path d="M277.85 0.0300293H216.76C207.16 0.0300293 199.36 7.84002 199.36 17.43V51.46L210.91 39.45C213.54 36.71 217.23 35.14 221.02 35.14H277.29C286.2 35.14 293.46 27.89 293.46 18.97V15.63C293.45 7.03004 286.45 0.0300293 277.85 0.0300293ZM288.51 18.98C288.51 25.16 283.48 30.2 277.29 30.2H221.02C215.89 30.2 210.9 32.32 207.34 36.02L204.3 39.18V17.44C204.3 10.57 209.89 4.99002 216.75 4.99002H277.84C283.72 4.99002 288.5 9.77002 288.5 15.65V18.98H288.51Z" fill="#00AEEF"/>
<path d="M17.38 139.24C31.41 151.1 47.62 154.28 65.15 150.49C85.87 146.01 104.79 129.58 104.5 102.85C104.31 85.9399 104.47 69.03 104.46 52.13C104.46 47.87 103.59 46.98 99.43 46.98C81.85 46.97 64.26 46.96 46.68 46.99C38.55 47 31.1 49.39 24.25 53.71C-2.49001 70.57 -7 109.89 12.13 133.88C13.04 135.02 16.47 138.48 17.38 139.24ZM52.63 72.93C55.91 72.92 59.19 72.93 62.47 72.93C66.62 72.93 70.77 72.98 74.92 72.91C77.11 72.87 78.84 73.8499 78.81 75.9099C78.67 86.0099 79.24 96.25 77.7 106.15C75.94 117.5 64.67 125.65 53.27 125.81C41.06 125.98 30.4 118.28 27.11 106.91C22.13 89.6799 34.66 72.98 52.63 72.93Z" fill="white"/>
<path d="M104.46 156.45C104.45 156.45 104.45 156.45 104.44 156.45C104.44 152.01 104.52 147.56 104.37 143.13C104.34 142.26 103.63 140.96 102.92 140.69C102.22 140.42 100.99 141.03 100.22 141.58C99.38 142.18 98.82 143.15 98.11 143.95C81.65 162.53 60.36 170.11 35.86 161.24C34.44 160.73 28.53 158.13 27.61 157.7C24.91 156.43 20.28 160.58 19.72 161.11C17.86 162.86 11.32 170.78 9.67004 172.81C6.82004 176.32 6.85005 177.3 10.74 179.82C28.07 191 47.13 194.22 67.28 191.56C80.02 189.87 91.3201 184.78 100.7 175.74C103.2 173.33 104.82 170.87 104.52 167.18C104.23 163.62 104.46 160.03 104.46 156.45Z" fill="white"/>
<path d="M198.89 59.74C184.86 47.88 168.65 44.7 151.12 48.49C146.37 49.52 141.73 51.18 137.38 53.44V32.35C137.38 25.05 131.46 19.13 124.16 19.13H111.78V99.46H111.81C111.95 115.26 111.82 131.06 111.83 146.85C111.83 151.11 112.7 152 116.86 152C134.44 152.01 152.03 152.02 169.61 151.99C177.74 151.98 185.19 149.59 192.04 145.27C218.78 128.41 223.29 89.09 204.16 65.1C203.22 63.96 199.79 60.5 198.89 59.74ZM163.63 126.04C160.35 126.05 157.07 126.04 153.79 126.04C149.64 126.04 145.49 125.99 141.34 126.06C139.15 126.1 137.42 125.12 137.45 123.06C137.59 112.96 137.02 102.72 138.56 92.81C140.32 81.46 151.59 73.31 162.99 73.15C175.2 72.98 185.86 80.68 189.15 92.05C194.14 109.3 181.6 126 163.63 126.04Z" fill="white"/>
<path d="M303.36 53.7C296.52 49.38 289.07 46.99 280.93 46.98C263.35 46.96 245.76 46.97 228.18 46.97C224.02 46.97 223.15 47.86 223.15 52.12C223.14 67.92 223.27 83.72 223.13 99.51H223.1V179.84H233.04C241.69 179.84 248.71 172.83 248.71 164.17V145.53C253.06 147.79 257.71 149.45 262.45 150.48C279.98 154.27 296.19 151.09 310.22 139.23C311.12 138.47 314.56 135.01 315.47 133.86C334.61 109.88 330.1 70.56 303.36 53.7ZM300.49 106.92C297.2 118.3 286.54 126 274.33 125.82C262.93 125.66 251.66 117.51 249.9 106.16C248.36 96.26 248.93 86.01 248.79 75.92C248.76 73.86 250.49 72.88 252.68 72.92C256.83 72.99 260.98 72.94 265.13 72.94C268.41 72.94 271.69 72.93 274.97 72.94C292.94 72.98 305.48 89.68 300.49 106.92Z" fill="white"/>
<path d="M117.04 187.6V189.67H112.49C110.83 189.67 110.01 190.5 110.01 192.15C110.01 193.81 110.84 194.63 112.49 194.63H114.56V193.18H112.49V191.11H117.04V196.7H112.49C109.18 196.7 107.52 195.18 107.52 192.15C107.52 189.11 109.18 187.6 112.49 187.6H117.04Z" fill="white"/>
<path d="M125.94 193.4V196.71H123.46V187.6H128.84C131.6 187.6 132.98 188.57 132.98 190.5C132.98 191.91 132.25 192.8 130.79 193.18L133.36 196.71H130.39L127.97 193.4H125.94ZM125.94 189.67V191.33H128.84C129.94 191.33 130.5 191.06 130.5 190.5C130.5 189.94 129.95 189.67 128.84 189.67H125.94Z" fill="white"/>
<path d="M146.03 187.6H148.51V192.15C148.51 195.19 146.85 196.7 143.54 196.7C140.23 196.7 138.57 195.18 138.57 192.15V187.6H141.05V192.15C141.05 193.81 141.88 194.63 143.53 194.63C145.18 194.63 146.01 193.8 146.01 192.15V187.6H146.03Z" fill="white"/>
<path d="M157.05 193.4V196.71H154.57V187.6H159.95C162.71 187.6 164.09 188.57 164.09 190.5C164.09 192.43 162.71 193.4 159.95 193.4H157.05ZM157.05 189.67V191.33H159.95C161.05 191.33 161.61 191.06 161.61 190.5C161.61 189.94 161.06 189.67 159.95 189.67H157.05Z" fill="white"/>
<path d="M174.45 187.6C177.76 187.6 179.42 189.12 179.42 192.15C179.42 195.19 177.76 196.7 174.45 196.7C171.14 196.7 169.48 195.18 169.48 192.15C169.48 189.12 171.14 187.6 174.45 187.6ZM171.97 192.16C171.97 193.82 172.8 194.64 174.45 194.64C176.11 194.64 176.93 193.81 176.93 192.16C176.93 190.5 176.1 189.68 174.45 189.68C172.8 189.67 171.97 190.5 171.97 192.16Z" fill="white"/>
<path d="M203.24 191.74H200.75C200.62 190.36 199.8 189.67 198.28 189.67C196.62 189.67 195.8 190.5 195.8 192.15C195.8 193.81 196.63 194.63 198.28 194.63C199.8 194.63 200.62 193.94 200.75 192.56H203.24C203.09 195.32 201.43 196.7 198.28 196.7C194.97 196.7 193.31 195.18 193.31 192.15C193.31 189.11 194.97 187.6 198.28 187.6C201.43 187.6 203.09 188.99 203.24 191.74Z" fill="white"/>
<path d="M213.76 187.6C217.07 187.6 218.73 189.12 218.73 192.15C218.73 195.19 217.07 196.7 213.76 196.7C210.45 196.7 208.79 195.18 208.79 192.15C208.79 189.12 210.45 187.6 213.76 187.6ZM211.28 192.16C211.28 193.82 212.11 194.64 213.76 194.64C215.41 194.64 216.24 193.81 216.24 192.16C216.24 190.5 215.41 189.68 213.76 189.68C212.11 189.68 211.28 190.5 211.28 192.16Z" fill="white"/>
<path d="M226.92 190.64V196.71H224.44V187.6H227.75L231.06 193.67V187.6H233.54V196.71H230.23L226.92 190.64Z" fill="white"/>
<path d="M248.98 187.6V189.67H243.6C242.5 189.67 241.94 189.9 241.94 190.37C241.94 190.87 242.49 191.12 243.6 191.12H244.84C247.6 191.12 248.98 192.05 248.98 193.89C248.98 195.77 247.6 196.71 244.84 196.71H239.46V194.64H244.84C245.94 194.64 246.5 194.39 246.5 193.89C246.5 193.42 245.95 193.19 244.84 193.19H243.6C240.84 193.19 239.46 192.25 239.46 190.37C239.46 188.52 240.84 187.6 243.6 187.6H248.98Z" fill="white"/>
<path d="M262.17 187.6H264.65V192.15C264.65 195.19 262.99 196.7 259.68 196.7C256.37 196.7 254.71 195.18 254.71 192.15V187.6H257.19V192.15C257.19 193.81 258.02 194.63 259.67 194.63C261.33 194.63 262.15 193.8 262.15 192.15V187.6H262.17Z" fill="white"/>
<path d="M270.7 187.6H273.18V194.64H278.98V196.71H270.7V187.6Z" fill="white"/>
<path d="M288.16 189.67V196.71H285.68V189.67H282.37V187.6H291.48V189.67H288.16Z" fill="white"/>
<path d="M301.08 187.6C304.39 187.6 306.05 189.12 306.05 192.15C306.05 195.19 304.39 196.7 301.08 196.7C297.77 196.7 296.11 195.18 296.11 192.15C296.11 189.12 297.76 187.6 301.08 187.6ZM298.59 192.16C298.59 193.82 299.42 194.64 301.07 194.64C302.73 194.64 303.55 193.81 303.55 192.16C303.55 190.5 302.72 189.68 301.07 189.68C299.42 189.67 298.59 190.5 298.59 192.16Z" fill="white"/>
<path d="M314.24 193.4V196.71H311.76V187.6H317.14C319.9 187.6 321.28 188.57 321.28 190.5C321.28 191.91 320.55 192.8 319.09 193.18L321.66 196.71H318.69L316.27 193.4H314.24ZM314.24 189.67V191.33H317.14C318.24 191.33 318.8 191.06 318.8 190.5C318.8 189.94 318.25 189.67 317.14 189.67H314.24Z" fill="white"/>
<path d="M324.36 160.9H97.2402V163.55H324.36V160.9Z" fill="white"/>
<path d="M295.18 161.09C295.18 153.69 300.66 148.8 307.86 148.8C315.06 148.8 320.54 153.7 320.54 161.09C320.54 168.39 315.06 173.58 307.86 173.58C300.66 173.57 295.18 168.39 295.18 161.09Z" fill="#00AEEF"/>
</svg>
