<svg width="6" height="6" viewBox="0 0 6 6" fill="none" xmlns="http://www.w3.org/2000/svg">
<path fill-rule="evenodd" clip-rule="evenodd" d="M0 3C0 2.92634 0.022575 2.8557 0.0627588 2.80361C0.102943 2.75152 0.157444 2.72226 0.214272 2.72226H5.26809L3.91946 0.974729C3.87923 0.922577 3.85663 0.851844 3.85663 0.77809C3.85663 0.704336 3.87923 0.633602 3.91946 0.581451C3.9597 0.529299 4.01427 0.5 4.07117 0.5C4.12807 0.5 4.18264 0.529299 4.22287 0.581451L5.93705 2.80336C5.957 2.82916 5.97284 2.85981 5.98364 2.89355C5.99444 2.92729 6 2.96347 6 3C6 3.03653 5.99444 3.07271 5.98364 3.10645C5.97284 3.14019 5.957 3.17084 5.93705 3.19664L4.22287 5.41855C4.18264 5.4707 4.12807 5.5 4.07117 5.5C4.01427 5.5 3.9597 5.4707 3.91946 5.41855C3.87923 5.3664 3.85663 5.29566 3.85663 5.22191C3.85663 5.14816 3.87923 5.07742 3.91946 5.02527L5.26809 3.27774H0.214272C0.157444 3.27774 0.102943 3.24848 0.0627588 3.19639C0.022575 3.14431 0 3.07366 0 3V3Z" fill="#012A48"/>
</svg>
