<svg width="8" height="8" viewBox="0 0 8 8" fill="none" xmlns="http://www.w3.org/2000/svg">
<path d="M2.33325 3.66669H2.99992V4.33335H2.33325V3.66669ZM2.33325 5.00002H2.99992V5.66669H2.33325V5.00002ZM3.66659 3.66669H4.33325V4.33335H3.66659V3.66669ZM3.66659 5.00002H4.33325V5.66669H3.66659V5.00002ZM4.99992 3.66669H5.66658V4.33335H4.99992V3.66669ZM4.99992 5.00002H5.66658V5.66669H4.99992V5.00002Z" fill="#02375F"/>
<path d="M1.66667 7.33335H6.33333C6.701 7.33335 7 7.03435 7 6.66669V2.00002C7 1.63235 6.701 1.33335 6.33333 1.33335H5.66667V0.666687H5V1.33335H3V0.666687H2.33333V1.33335H1.66667C1.299 1.33335 1 1.63235 1 2.00002V6.66669C1 7.03435 1.299 7.33335 1.66667 7.33335ZM6.33333 2.66669L6.33367 6.66669H1.66667V2.66669H6.33333Z" fill="#02375F"/>
</svg>
