<svg width="55" height="53" viewBox="0 0 55 53" fill="none" xmlns="http://www.w3.org/2000/svg">
<path d="M4.45807 26.1389C4.45807 13.7559 14.4971 3.72092 26.8781 3.72092V0.0709229C12.5051 0.0709229 0.810059 11.7619 0.810059 26.1389C0.810059 40.5119 12.5051 52.2069 26.8781 52.2069V48.5559C14.4971 48.5559 4.45807 38.5199 4.45807 26.1389Z" fill="#768296"/>
<path d="M4.45801 26.1389C4.45801 38.5199 14.497 48.5559 26.878 48.5559V44.9089C16.531 44.9089 8.10901 36.4889 8.10901 26.1389C8.10901 15.7879 16.531 7.36795 26.878 7.36795V3.72095C14.497 3.72095 4.45801 13.7559 4.45801 26.1389Z" fill="white"/>
<path d="M11.7599 26.1389C11.7599 17.8009 18.5409 11.0179 26.8779 11.0179V7.3689C16.5309 7.3689 8.10889 15.7889 8.10889 26.1399C8.10889 36.4899 16.5309 44.9099 26.8779 44.9099V41.2579C18.5409 41.2559 11.7599 34.4749 11.7599 26.1389Z" fill="#768296"/>
<path d="M11.7603 26.1389C11.7603 34.4749 18.5412 41.256 26.8782 41.256V37.6089C20.5552 37.6089 15.4082 32.4629 15.4082 26.1389C15.4082 19.8129 20.5542 14.6679 26.8782 14.6679V11.0179C18.5412 11.0179 11.7603 17.8009 11.7603 26.1389Z" fill="white"/>
<path d="M19.0562 26.1389C19.0562 21.8259 22.5652 18.3179 26.8772 18.3179V14.6689C20.5542 14.6689 15.4072 19.814 15.4072 26.14C15.4072 32.463 20.5532 37.61 26.8772 37.61V33.9619C22.5652 33.9599 19.0562 30.4499 19.0562 26.1389Z" fill="#768296"/>
<path d="M19.0562 26.1389C19.0562 30.4509 22.5651 33.9599 26.8771 33.9599V30.3099C24.5761 30.3099 22.7061 28.4399 22.7061 26.1389C22.7061 23.8379 24.5761 21.9669 26.8771 21.9669V18.3179C22.5651 18.3169 19.0562 21.8259 19.0562 26.1389Z" fill="white"/>
<path d="M22.707 26.1389C22.707 28.4399 24.577 30.3099 26.878 30.3099V21.9669C24.577 21.9669 22.707 23.8379 22.707 26.1389Z" fill="#768296"/>
<path d="M26.8779 0.0699463V3.71994C39.2609 3.71994 49.2969 13.7549 49.2969 26.1379C49.2969 38.5189 39.2609 48.5549 26.8779 48.5549V52.2059C41.2529 52.2059 52.9469 40.5109 52.9469 26.1379C52.9469 11.7619 41.2529 0.0699463 26.8779 0.0699463Z" fill="#768296"/>
<path d="M45.648 26.1389C45.648 36.4889 37.226 44.9089 26.877 44.9089V48.5559C39.26 48.5559 49.296 38.5199 49.296 26.1389C49.296 13.7559 39.26 3.72095 26.877 3.72095V7.36795C37.226 7.36795 45.648 15.7879 45.648 26.1389Z" fill="white"/>
<path d="M45.648 26.1389C45.648 15.7879 37.226 7.36792 26.877 7.36792V11.0169C35.215 11.0169 41.998 17.7999 41.998 26.1379C41.998 34.4739 35.215 41.2549 26.877 41.2549V44.9069C37.226 44.9079 45.648 36.4879 45.648 26.1389Z" fill="#768296"/>
<path d="M38.346 26.1389C38.346 32.4619 33.203 37.6089 26.877 37.6089V41.256C35.215 41.256 41.998 34.4749 41.998 26.1389C41.998 17.8009 35.215 11.0179 26.877 11.0179V14.6679C33.204 14.6679 38.346 19.8129 38.346 26.1389Z" fill="white"/>
<path d="M38.346 26.139C38.346 19.813 33.203 14.668 26.877 14.668V18.317C31.189 18.317 34.698 21.826 34.698 26.138C34.698 30.45 31.188 33.959 26.877 33.959V37.607C33.204 37.608 38.346 32.462 38.346 26.139Z" fill="#768296"/>
<path d="M31.0509 26.1389C31.0509 28.4399 29.1789 30.3099 26.8779 30.3099V33.9599C31.1899 33.9599 34.6989 30.4499 34.6989 26.1389C34.6989 21.8259 31.1889 18.3179 26.8779 18.3179V21.9669C29.1789 21.9669 31.0509 23.8379 31.0509 26.1389Z" fill="white"/>
<path d="M31.0509 26.1389C31.0509 23.8379 29.1789 21.9669 26.8779 21.9669V30.3099C29.1789 30.3099 31.0509 28.4389 31.0509 26.1389Z" fill="#768296"/>
<path d="M27.27 26.8509C29.331 23.7789 32.995 20.2959 32.995 20.2959L33.554 20.8849L34.111 21.4719C34.11 21.4719 30.445 24.9519 27.27 26.8509Z" fill="#FFA229"/>
<path d="M33.2459 21.175C33.2459 21.175 32.3729 20.405 32.7549 20.045L39.1239 13.9919L40.7239 15.675L34.3519 21.7249C33.9699 22.0879 33.2459 21.175 33.2459 21.175Z" fill="#FFA229"/>
<path d="M46.2341 10.477L44.6372 8.79529L36.7833 16.2528L38.3801 17.9346L46.2341 10.477Z" fill="#FFA229"/>
<path d="M44.4431 10.537C44.4431 10.537 41.8711 6.62897 44.1961 4.43797C45.9161 2.81897 50.1801 -1.43304 54.1171 1.34996C56.6941 5.42196 52.2281 9.46294 50.5241 11.0979C48.2171 13.3109 44.4431 10.537 44.4431 10.537Z" fill="#1C4670"/>
<path d="M48.5339 1.14194C48.8579 0.984937 49.1879 0.846938 49.5259 0.736938L49.2919 5.93295L54.4949 5.96695C54.3669 6.29795 54.2129 6.62295 54.0379 6.93695L48.2749 6.89896L48.5339 1.14194Z" fill="white"/>
<path d="M46.2031 8.86688L46.4941 2.42587C46.8811 2.12887 47.2951 1.84088 47.7311 1.57788L47.4551 7.67789L53.5591 7.71588C53.2771 8.13888 52.9661 8.53489 52.6541 8.90689L46.2031 8.86688Z" fill="white"/>
</svg>
