<svg width="16" height="15" viewBox="0 0 16 15" fill="none" xmlns="http://www.w3.org/2000/svg">
<path d="M14.2498 15H2.04707C1.64252 15 1.25455 14.8393 0.968491 14.5532C0.682434 14.2672 0.521729 13.8792 0.521729 13.4747V5.12265C0.534407 4.87054 0.608505 4.62536 0.737573 4.40842C0.866642 4.19149 1.04677 4.00939 1.26228 3.87797L7.36365 0.217147C7.60063 0.0750546 7.87175 0 8.14806 0C8.42437 0 8.69549 0.0750546 8.93246 0.217147L15.0338 3.87797C15.4922 4.15482 15.7736 4.65055 15.7751 5.18595V13.4747C15.7751 13.8792 15.6144 14.2672 15.3284 14.5532C15.0423 14.8393 14.6544 15 14.2498 15ZM2.04707 5.74727V13.4747H14.2498V5.74727L8.14844 9.8146L2.04707 5.74727ZM8.14844 1.52513L3.05075 4.58344L8.14844 7.9819L13.2454 4.58344L8.14844 1.52513Z" fill="#8B9297"/>
</svg>
