<svg width="61" height="59" viewBox="0 0 61 59" fill="none" xmlns="http://www.w3.org/2000/svg">
<path d="M9.84186 29.5129C9.84186 17.1299 19.8808 7.09494 32.2618 7.09494V3.44495C17.8888 3.44495 6.19385 15.1359 6.19385 29.5129C6.19385 43.8859 17.8888 55.5809 32.2618 55.5809V51.9299C19.8808 51.9299 9.84186 41.8939 9.84186 29.5129Z" fill="#768296"/>
<path d="M9.8418 29.513C9.8418 41.894 19.8808 51.93 32.2618 51.93V48.283C21.9148 48.283 13.4928 39.863 13.4928 29.513C13.4928 19.162 21.9148 10.742 32.2618 10.742V7.09497C19.8808 7.09497 9.8418 17.13 9.8418 29.513Z" fill="white"/>
<path d="M17.1437 29.5129C17.1437 21.1749 23.9247 14.3919 32.2617 14.3919V10.7429C21.9147 10.7429 13.4927 19.1629 13.4927 29.5139C13.4927 39.8639 21.9147 48.2839 32.2617 48.2839V44.6319C23.9247 44.6299 17.1437 37.8489 17.1437 29.5129Z" fill="#768296"/>
<path d="M17.144 29.513C17.144 37.849 23.925 44.63 32.262 44.63V40.983C25.939 40.983 20.792 35.837 20.792 29.513C20.792 23.187 25.938 18.042 32.262 18.042V14.392C23.925 14.392 17.144 21.175 17.144 29.513Z" fill="white"/>
<path d="M24.44 29.513C24.44 25.2 27.949 21.692 32.261 21.692V18.043C25.938 18.043 20.791 23.188 20.791 29.514C20.791 35.837 25.937 40.984 32.261 40.984V37.336C27.949 37.334 24.44 33.824 24.44 29.513Z" fill="#768296"/>
<path d="M24.4399 29.5129C24.4399 33.8249 27.9489 37.3339 32.2609 37.3339V33.6839C29.9599 33.6839 28.0899 31.8139 28.0899 29.5129C28.0899 27.2119 29.9599 25.3409 32.2609 25.3409V21.6919C27.9489 21.6909 24.4399 25.1999 24.4399 29.5129Z" fill="white"/>
<path d="M28.0908 29.5129C28.0908 31.8139 29.9608 33.6839 32.2618 33.6839V25.3409C29.9608 25.3409 28.0908 27.2119 28.0908 29.5129Z" fill="#768296"/>
<path d="M32.2617 3.44397V7.09396C44.6447 7.09396 54.6807 17.129 54.6807 29.512C54.6807 41.893 44.6447 51.929 32.2617 51.929V55.58C46.6367 55.58 58.3307 43.885 58.3307 29.512C58.3307 15.136 46.6367 3.44397 32.2617 3.44397Z" fill="#768296"/>
<path d="M51.0318 29.513C51.0318 39.863 42.6097 48.283 32.2607 48.283V51.93C44.6437 51.93 54.6797 41.894 54.6797 29.513C54.6797 17.13 44.6437 7.09497 32.2607 7.09497V10.742C42.6097 10.742 51.0318 19.162 51.0318 29.513Z" fill="white"/>
<path d="M51.0318 29.5129C51.0318 19.1619 42.6097 10.7419 32.2607 10.7419V14.3909C40.5987 14.3909 47.3817 21.1739 47.3817 29.5119C47.3817 37.8479 40.5987 44.6289 32.2607 44.6289V48.2809C42.6097 48.2819 51.0318 39.8619 51.0318 29.5129Z" fill="#768296"/>
<path d="M43.7298 29.513C43.7298 35.836 38.5867 40.983 32.2607 40.983V44.63C40.5987 44.63 47.3817 37.849 47.3817 29.513C47.3817 21.175 40.5987 14.392 32.2607 14.392V18.042C38.5877 18.042 43.7298 23.187 43.7298 29.513Z" fill="white"/>
<path d="M43.7298 29.513C43.7298 23.187 38.5867 18.042 32.2607 18.042V21.691C36.5727 21.691 40.0818 25.2 40.0818 29.512C40.0818 33.824 36.5717 37.333 32.2607 37.333V40.981C38.5877 40.982 43.7298 35.836 43.7298 29.513Z" fill="#768296"/>
<path d="M36.4347 29.5129C36.4347 31.8139 34.5627 33.6839 32.2617 33.6839V37.3339C36.5737 37.3339 40.0827 33.8239 40.0827 29.5129C40.0827 25.1999 36.5727 21.6919 32.2617 21.6919V25.3409C34.5627 25.3409 36.4347 27.2119 36.4347 29.5129Z" fill="white"/>
<path d="M36.4347 29.5129C36.4347 27.2119 34.5627 25.3409 32.2617 25.3409V33.6839C34.5627 33.6839 36.4347 31.8129 36.4347 29.5129Z" fill="#768296"/>
<path d="M32.2471 29.8389C29.9511 26.4119 25.8641 22.5289 25.8641 22.5289L25.2421 23.1849L24.6211 23.838C24.6211 23.839 28.7071 27.7209 32.2471 29.8389Z" fill="#FFA229"/>
<path d="M25.5841 23.509C25.5841 23.509 26.5601 22.65 26.1331 22.247L19.0301 15.499L17.2471 17.376L24.3511 24.123C24.7771 24.526 25.5841 23.509 25.5841 23.509Z" fill="#FFA229"/>
<path d="M19.8946 19.8834L21.6768 18.0083L12.9241 9.68913L11.1419 11.5642L19.8946 19.8834Z" fill="#FFA229"/>
<path d="M13.099 11.646C13.099 11.646 15.968 7.28697 13.373 4.84397C11.456 3.03997 6.70096 -1.70201 2.30997 1.40299C-0.563035 5.94399 4.41498 10.45 6.31598 12.273C8.88998 14.738 13.099 11.646 13.099 11.646Z" fill="#1C4670"/>
<path d="M8.53513 1.16803C8.17613 0.99303 7.80611 0.840041 7.43011 0.717041L7.69211 6.51202L1.89014 6.54904C2.03314 6.91904 2.20511 7.28104 2.39911 7.63104L8.82611 7.58902L8.53513 1.16803Z" fill="white"/>
<path d="M11.1351 9.78403L10.8111 2.60004C10.3801 2.26904 9.91814 1.94803 9.43314 1.65503L9.74112 8.45703L2.93213 8.50003C3.24713 8.97103 3.59412 9.41304 3.94412 9.82904L11.1351 9.78403Z" fill="white"/>
<path d="M31.7629 30.978C28.8979 29.433 24.6169 28.231 24.6169 28.231L24.4229 28.918L24.2319 29.604C24.2309 29.603 28.5139 30.805 31.7629 30.978Z" fill="#FFA229"/>
<path d="M24.7811 29.0169C24.7811 29.0169 25.1451 28.0569 24.7001 27.9349L17.2581 25.8429L16.7051 27.8089L24.1481 29.8999C24.5931 30.0229 24.7811 29.0169 24.7811 29.0169Z" fill="#FFA229"/>
<path d="M19.4688 28.5947L20.0205 26.6287L10.845 24.0537L10.2933 26.0197L19.4688 28.5947Z" fill="#FFA229"/>
<path d="M11.7 25.3409C11.7 25.3409 12.096 21.2399 9.384 20.4939C7.384 19.9399 2.31998 18.3839 0.398983 22.1679C0.0689825 26.3969 5.20301 27.7039 7.20001 28.2749C9.90301 29.0499 11.7 25.3409 11.7 25.3409Z" fill="#1C4670"/>
<path d="M4.65701 19.7129C4.34001 19.7219 4.02599 19.7509 3.71899 19.8039L6.03299 23.7509L2 25.9149C2.236 26.1179 2.48999 26.3089 2.75299 26.4799L7.224 24.0849L4.65701 19.7129Z" fill="white"/>
<path d="M9.6442 24.7659L6.77118 19.8719C6.34918 19.7999 5.90919 19.7469 5.46219 19.7209L8.1832 24.3539L3.4502 26.8919C3.8422 27.1039 4.24819 27.285 4.64319 27.446L9.6442 24.7659Z" fill="white"/>
<path d="M32.6538 30.2249C34.7148 27.1529 38.3788 23.6699 38.3788 23.6699L38.9378 24.2589L39.4948 24.8459C39.4938 24.8459 35.8288 28.3259 32.6538 30.2249Z" fill="#FFA229"/>
<path d="M38.6297 24.549C38.6297 24.549 37.7567 23.779 38.1387 23.419L44.5077 17.366L46.1077 19.049L39.7357 25.099C39.3537 25.462 38.6297 24.549 38.6297 24.549Z" fill="#FFA229"/>
<path d="M51.6179 13.8511L50.021 12.1693L42.1671 19.6269L43.7639 21.3086L51.6179 13.8511Z" fill="#FFA229"/>
<path d="M49.8269 13.911C49.8269 13.911 47.2549 10.003 49.5799 7.81199C51.2999 6.19299 55.5639 1.94098 59.5009 4.72398C62.0779 8.79598 57.6119 12.837 55.9079 14.472C53.6009 16.685 49.8269 13.911 49.8269 13.911Z" fill="#1C4670"/>
<path d="M53.9177 4.51596C54.2417 4.35896 54.5717 4.22096 54.9097 4.11096L54.6757 9.30698L59.8787 9.34097C59.7507 9.67197 59.5967 9.99697 59.4217 10.311L53.6587 10.273L53.9177 4.51596Z" fill="white"/>
<path d="M51.5869 12.2409L51.8779 5.7999C52.2649 5.5029 52.6789 5.2149 53.1149 4.9519L52.8389 11.0519L58.9429 11.0899C58.6609 11.5129 58.3499 11.9089 58.0379 12.2809L51.5869 12.2409Z" fill="white"/>
<path d="M37.1488 40.832L32.4378 34.953L27.7378 40.836H30.0908L30.0948 58.569H34.8068L34.7948 40.831L37.1488 40.832Z" fill="#FFA229"/>
<path d="M43.0117 45.2081L39.4707 40.7891L35.9287 45.2141H37.7007L37.7067 58.5521H41.2467L41.2377 45.2111L43.0117 45.2081Z" fill="#FCD751"/>
<path d="M21.8789 45.248L25.4139 40.824L28.9579 45.244L27.1869 45.245L27.1929 58.588L23.6569 58.589L23.6489 45.248H21.8789Z" fill="#FCD751"/>
<path d="M54.3031 49.9689C51.7321 47.6999 58.1451 39.3249 56.2701 33.1499C53.8811 25.2839 43.6871 26.6369 43.9001 28.1349C43.9861 28.7359 45.382 30.6139 45.382 30.6139C45.382 30.6139 42.4341 33.3579 41.0271 35.1089C40.1731 36.1739 39.3071 37.4999 41.0271 38.5869C43.1761 39.9439 44.0961 38.6349 45.9871 37.4179C46.3491 37.1869 46.6771 37.0859 46.9671 37.0989C47.1341 37.0969 47.2601 37.1559 47.3901 37.2039C47.6161 37.3109 47.8081 37.5039 47.9661 37.7519C48.4581 38.8979 47.6851 41.3609 45.5331 43.4689C42.6191 46.3239 42.9391 50.6939 42.9391 50.6979C40.7421 52.5279 38.9561 53.8949 38.9561 58.5899H42.9621H43.7951H49.0491H59.1441C59.1441 53.2969 56.8741 52.2379 54.3031 49.9689Z" fill="#1C4670"/>
</svg>
