<svg width="43" height="71" viewBox="0 0 43 71" fill="none" xmlns="http://www.w3.org/2000/svg">
<path d="M5.41602 36.852C9.31902 38.626 14.506 39.706 20.197 39.706C25.89 39.706 31.077 38.626 34.978 36.852C31.077 35.08 25.891 34 20.197 34C14.506 34 9.31902 35.08 5.41602 36.852Z" fill="#E6AE7E"/>
<path d="M29.3281 25.015C30.3261 23.366 30.9011 21.433 30.9011 19.364C30.9011 13.327 26.0061 8.43396 19.9681 8.43396C13.9321 8.43396 9.03809 13.327 9.03809 19.364C9.03809 21.433 9.61008 23.366 10.6111 25.015C13.5641 30.294 14.1641 31.558 14.1991 33.97C14.2551 37.582 14.1991 40.468 14.1991 40.468H19.9681H25.7371C25.7371 40.468 25.6841 37.582 25.7371 33.97C25.7761 31.558 26.3741 30.294 29.3281 25.015Z" fill="#FCD751"/>
<path d="M19.9691 42.1169H15.8691C16.4771 45.4209 19.9691 45.4209 19.9691 45.4209C19.9691 45.4209 23.4601 45.4209 24.0701 42.1169H19.9691Z" fill="#002254"/>
<path d="M27.4092 36.748C27.4092 37.796 26.5592 38.6449 25.5102 38.6449H14.4292C13.3802 38.6449 12.5312 37.796 12.5312 36.748C12.5312 35.699 13.3812 34.851 14.4292 34.851H25.5102C26.5602 34.851 27.4092 35.699 27.4092 36.748Z" fill="#768296"/>
<path d="M26.814 36.3759C26.814 37.2199 26.031 37.902 25.066 37.902H14.872C13.906 37.902 13.126 37.2199 13.126 36.3759C13.126 35.5319 13.906 34.851 14.872 34.851H25.066C26.031 34.851 26.814 35.5319 26.814 36.3759Z" fill="#AEBFCE"/>
<path d="M27.4092 40.467C27.4092 41.516 26.5592 42.365 25.5102 42.365H14.4292C13.3802 42.365 12.5312 41.516 12.5312 40.467C12.5312 39.418 13.3812 38.568 14.4292 38.568H25.5102C26.5602 38.568 27.4092 39.418 27.4092 40.467Z" fill="#768296"/>
<path d="M20.1992 0.657959C20.6092 0.657959 20.9472 0.992958 20.9472 1.40696V5.77096C20.9472 6.18296 20.6092 6.51596 20.1992 6.51596C19.7852 6.51596 19.4512 6.18296 19.4512 5.77096V1.40696C19.4512 0.992958 19.7852 0.657959 20.1992 0.657959Z" fill="#FFA229"/>
<path d="M10.277 3.23496C10.634 3.02696 11.09 3.15096 11.297 3.50696L13.479 7.28696C13.686 7.64296 13.565 8.09996 13.207 8.30496C12.851 8.51196 12.393 8.38996 12.187 8.03296L10.005 4.25396C9.799 3.89796 9.92299 3.44096 10.277 3.23496Z" fill="#FFA229"/>
<path d="M2.97327 10.4229C3.18127 10.0669 3.63827 9.94494 3.99427 10.1509L7.77227 12.3329C8.12927 12.5389 8.25127 12.9959 8.04427 13.3539C7.83927 13.7089 7.38226 13.8319 7.02526 13.6259L3.24626 11.4439C2.89126 11.2379 2.76827 10.7829 2.97327 10.4229Z" fill="#FFA229"/>
<path d="M0.241211 20.3029C0.241211 19.8909 0.577219 19.5559 0.990219 19.5559H5.35321C5.76421 19.5559 6.10022 19.8909 6.10022 20.3029C6.10022 20.7169 5.76421 21.0509 5.35321 21.0509H0.990219C0.577219 21.0509 0.241211 20.7169 0.241211 20.3029Z" fill="#FFA229"/>
<path d="M2.81715 30.2239C2.61015 29.8679 2.73414 29.4109 3.09014 29.2029L6.86715 27.0209C7.22615 26.8139 7.68315 26.9359 7.88815 27.2949C8.09615 27.6519 7.97215 28.1099 7.61615 28.3149L3.83815 30.4969C3.48115 30.7029 3.02415 30.5819 2.81715 30.2239Z" fill="#FFA229"/>
<path d="M30.1183 3.23496C29.7633 3.02696 29.3053 3.15096 29.0973 3.50696L26.9163 7.28696C26.7103 7.64296 26.8313 8.09996 27.1893 8.30496C27.5483 8.51196 28.0043 8.38996 28.2103 8.03296L30.3933 4.25396C30.5993 3.89796 30.4783 3.44096 30.1183 3.23496Z" fill="#FFA229"/>
<path d="M37.4245 10.4229C37.2195 10.0669 36.7605 9.94494 36.4035 10.1509L32.6255 12.3329C32.2695 12.5389 32.1465 12.9959 32.3505 13.3539C32.5585 13.7089 33.0185 13.8319 33.3735 13.6259L37.1515 11.4439C37.5095 11.2379 37.6315 10.7829 37.4245 10.4229Z" fill="#FFA229"/>
<path d="M40.1523 20.3029C40.1523 19.8909 39.8183 19.5559 39.4053 19.5559H35.0443C34.6323 19.5559 34.2983 19.8909 34.2983 20.3029C34.2983 20.7169 34.6323 21.0509 35.0443 21.0509H39.4053C39.8183 21.0509 40.1523 20.7169 40.1523 20.3029Z" fill="#FFA229"/>
<path d="M37.5792 30.2239C37.7862 29.8679 37.6622 29.4109 37.3052 29.2029L33.5292 27.0209C33.1712 26.8139 32.7142 26.9359 32.5072 27.2949C32.3022 27.6519 32.4262 28.1099 32.7822 28.3149L36.5602 30.4969C36.9152 30.7029 37.3762 30.5819 37.5792 30.2239Z" fill="#FFA229"/>
<path d="M26.814 40.097C26.814 40.94 26.031 41.623 25.066 41.623H14.872C13.906 41.623 13.126 40.94 13.126 40.097C13.126 39.252 13.906 38.568 14.872 38.568H25.066C26.031 38.568 26.814 39.252 26.814 40.097Z" fill="#AEBFCE"/>
<path d="M6.90627 39.1799L5.23926 38.4899L10.0553 26.8569L13.3783 32.1699L19.1643 20.0639L24.1373 26.1189L29.6413 13.4359L32.2553 18.3239L39.3993 5.0199L40.9893 5.8739L32.2513 22.1459L29.8103 17.5799L24.6173 29.5469L19.5693 23.4019L13.5903 35.9119L10.3833 30.7839L6.90627 39.1799Z" fill="#1C4670"/>
<path d="M42.8503 8.06795L42.6283 0.871948L36.5073 4.66095L42.8503 8.06795Z" fill="#1C4670"/>
<path d="M35.0051 48.803H34.7121C34.8361 47.796 34.9641 46.805 35.0841 45.866C35.3421 43.887 35.7311 40.354 34.9551 36.864C31.0531 38.63 25.8781 39.706 20.1971 39.706C14.5171 39.706 9.34213 38.63 5.44013 36.864C4.66413 40.354 5.05113 43.887 5.31013 45.866C5.43213 46.805 5.55814 47.795 5.68214 48.803H5.38914C2.81114 46.895 2.59413 51.876 3.66813 53.579C4.56213 54.988 4.58013 55.143 5.11613 56.695C5.51513 57.841 6.17213 57.99 6.72213 57.867C6.79113 58.546 6.85113 59.137 6.89413 59.607C7.13013 62.225 13.4231 67.469 14.8521 69.111C16.1851 70.65 18.4161 70.05 19.1301 70.019C19.8541 69.984 20.1961 69.967 20.1961 69.967C20.1961 69.967 20.5381 69.985 21.2591 70.019C21.9741 70.051 24.2031 70.65 25.5401 69.111C26.9681 67.469 33.2591 62.224 33.4961 59.607C33.5411 59.137 33.6001 58.545 33.6671 57.867C34.2211 57.991 34.8781 57.841 35.2741 56.695C35.8111 55.144 35.8301 54.988 36.7221 53.579C37.8021 51.876 37.5811 46.895 35.0051 48.803Z" fill="#F4C297"/>
</svg>
