<svg width="15" height="14" viewBox="0 0 15 14" fill="none" xmlns="http://www.w3.org/2000/svg">
<path fill-rule="evenodd" clip-rule="evenodd" d="M4.60677 0.042C5.35322 0.00763635 5.59122 0 7.49268 0C9.39413 0 9.63213 0.00827272 10.3779 0.042C11.1238 0.0757273 11.6329 0.194727 12.0783 0.367182C12.5448 0.543455 12.9679 0.819 13.3179 1.17536C13.6743 1.52473 13.9492 1.94727 14.1249 2.41436C14.2979 2.85982 14.4163 3.36891 14.4507 4.11345C14.485 4.86118 14.4927 5.09918 14.4927 7C14.4927 8.90145 14.4844 9.13945 14.4507 9.88591C14.4169 10.6305 14.2979 11.1395 14.1249 11.585C13.9492 12.0522 13.6739 12.4754 13.3179 12.8253C12.9679 13.1816 12.5448 13.4565 12.0783 13.6322C11.6329 13.8053 11.1238 13.9236 10.3792 13.958C9.63213 13.9924 9.39413 14 7.49268 14C5.59122 14 5.35322 13.9917 4.60677 13.958C3.86222 13.9243 3.35313 13.8053 2.90768 13.6322C2.44053 13.4565 2.01729 13.1812 1.6674 12.8253C1.31128 12.4757 1.03569 12.0527 0.859858 11.5856C0.687403 11.1402 0.569039 10.6311 0.534676 9.88655C0.500312 9.13882 0.492676 8.90082 0.492676 7C0.492676 5.09855 0.500948 4.86055 0.534676 4.11473C0.568403 3.36891 0.687403 2.85982 0.859858 2.41436C1.03595 1.94732 1.31175 1.52429 1.66804 1.17473C2.01743 0.818683 2.44025 0.5431 2.90704 0.367182C3.35249 0.194727 3.86158 0.0763636 4.60613 0.042H4.60677ZM10.3213 1.302C9.58313 1.26827 9.36168 1.26127 7.49268 1.26127C5.62368 1.26127 5.40222 1.26827 4.66404 1.302C3.98122 1.33318 3.61086 1.44709 3.36395 1.54318C3.03749 1.67045 2.80395 1.82127 2.55895 2.06627C2.3267 2.29221 2.14797 2.56727 2.03586 2.87127C1.93977 3.11818 1.82586 3.48855 1.79468 4.17136C1.76095 4.90955 1.75395 5.131 1.75395 7C1.75395 8.869 1.76095 9.09045 1.79468 9.82864C1.82586 10.5115 1.93977 10.8818 2.03586 11.1287C2.14786 11.4323 2.32668 11.7078 2.55895 11.9337C2.78486 12.166 3.0604 12.3448 3.36395 12.4568C3.61086 12.5529 3.98122 12.6668 4.66404 12.698C5.40222 12.7317 5.62304 12.7387 7.49268 12.7387C9.36231 12.7387 9.58313 12.7317 10.3213 12.698C11.0041 12.6668 11.3745 12.5529 11.6214 12.4568C11.9479 12.3295 12.1814 12.1787 12.4264 11.9337C12.6587 11.7078 12.8375 11.4323 12.9495 11.1287C13.0456 10.8818 13.1595 10.5115 13.1907 9.82864C13.2244 9.09045 13.2314 8.869 13.2314 7C13.2314 5.131 13.2244 4.90955 13.1907 4.17136C13.1595 3.48855 13.0456 3.11818 12.9495 2.87127C12.8222 2.54482 12.6714 2.31127 12.4264 2.06627C12.2004 1.83405 11.9254 1.65532 11.6214 1.54318C11.3745 1.44709 11.0041 1.33318 10.3213 1.302ZM6.59859 9.15791C7.09791 9.36576 7.65392 9.39382 8.17163 9.23728C8.68934 9.08074 9.13665 8.74931 9.43715 8.29961C9.73766 7.84991 9.87271 7.30983 9.81925 6.77161C9.76579 6.2334 9.52713 5.73044 9.14404 5.34864C8.89983 5.10458 8.60454 4.9177 8.27943 4.80146C7.95433 4.68522 7.60749 4.6425 7.2639 4.67639C6.92031 4.71028 6.5885 4.81993 6.29237 4.99745C5.99624 5.17496 5.74315 5.41593 5.55132 5.703C5.3595 5.99006 5.23371 6.31609 5.183 6.65761C5.1323 6.99913 5.15795 7.34764 5.25811 7.67806C5.35827 8.00847 5.53044 8.31257 5.76223 8.56846C5.99401 8.82435 6.27965 9.02566 6.59859 9.15791ZM4.94849 4.45582C5.2826 4.12171 5.67924 3.85668 6.11577 3.67587C6.55231 3.49505 7.02018 3.40198 7.49268 3.40198C7.96517 3.40198 8.43305 3.49505 8.86958 3.67587C9.30611 3.85668 9.70275 4.12171 10.0369 4.45582C10.371 4.78992 10.636 5.18657 10.8168 5.6231C10.9976 6.05963 11.0907 6.5275 11.0907 7C11.0907 7.4725 10.9976 7.94037 10.8168 8.3769C10.636 8.81343 10.371 9.21008 10.0369 9.54418C9.3621 10.2189 8.44693 10.598 7.49268 10.598C6.53842 10.598 5.62325 10.2189 4.94849 9.54418C4.27373 8.86942 3.89466 7.95425 3.89466 7C3.89466 6.04575 4.27373 5.13058 4.94849 4.45582ZM11.8887 3.93782C11.9715 3.85972 12.0378 3.7658 12.0836 3.66162C12.1294 3.55744 12.1539 3.44513 12.1556 3.33132C12.1572 3.21751 12.136 3.10453 12.0933 2.99906C12.0505 2.89359 11.987 2.79778 11.9065 2.7173C11.826 2.63682 11.7302 2.5733 11.6247 2.53051C11.5192 2.48772 11.4063 2.46653 11.2924 2.46819C11.1786 2.46985 11.0663 2.49433 10.9621 2.54017C10.858 2.58602 10.764 2.6523 10.6859 2.73509C10.5341 2.89611 10.4509 3.10999 10.4541 3.33132C10.4573 3.55265 10.5467 3.76401 10.7032 3.92054C10.8598 4.07706 11.0711 4.16642 11.2924 4.16964C11.5138 4.17287 11.7277 4.08971 11.8887 3.93782Z" fill="white" fill-opacity="0.5"/>
</svg>
