<svg width="15" height="14" viewBox="0 0 15 14" fill="none" xmlns="http://www.w3.org/2000/svg">
<path d="M2.08358 0C1.66258 0.00299899 1.25966 0.171575 0.961956 0.469281C0.664251 0.766986 0.495675 1.1699 0.492676 1.59091V12.4091C0.492676 13.279 1.21368 14 2.08358 14H12.9018C13.7717 14 14.4927 13.279 14.4927 12.4091V1.59091C14.4927 0.721 13.7717 0 12.9018 0H2.08358ZM2.08358 1.27273H12.9018C13.0831 1.27273 13.2199 1.40955 13.2199 1.59091V12.4091C13.2199 12.5905 13.0831 12.7273 12.9018 12.7273H2.08358C2.04154 12.7282 1.99973 12.7207 1.9607 12.705C1.92166 12.6894 1.8862 12.6659 1.85647 12.6362C1.82673 12.6065 1.80332 12.571 1.78767 12.532C1.77202 12.4929 1.76445 12.4511 1.7654 12.4091V1.59091C1.7654 1.40955 1.90222 1.27273 2.08358 1.27273ZM3.95322 2.36664C3.80739 2.36312 3.66233 2.3888 3.52657 2.44218C3.39081 2.49556 3.2671 2.57555 3.16271 2.67744C3.05833 2.77934 2.97538 2.90109 2.91874 3.03552C2.86211 3.16995 2.83293 3.31435 2.83293 3.46023C2.83293 3.6061 2.86211 3.7505 2.91874 3.88493C2.97538 4.01937 3.05833 4.14111 3.16271 4.24301C3.2671 4.34491 3.39081 4.4249 3.52657 4.47827C3.66233 4.53165 3.80739 4.55734 3.95322 4.55382C4.23869 4.54693 4.51015 4.42869 4.70962 4.22435C4.90909 4.02002 5.02075 3.74578 5.02075 3.46023C5.02075 3.17467 4.90909 2.90044 4.70962 2.6961C4.51015 2.49176 4.23869 2.37352 3.95322 2.36664ZM9.69958 5.26973C8.78768 5.26973 8.18122 5.76927 7.93049 6.244H7.8904V5.40909H6.10031V11.4545H7.96995V8.47127C7.96995 7.68345 8.12649 6.92045 9.10331 6.92045C10.0655 6.92045 10.0782 7.81009 10.0782 8.51136V11.4545H11.9472V8.13336C11.9472 6.50809 11.6017 5.26973 9.70022 5.26973H9.69958ZM3.03813 5.40909V11.4545H4.92749V5.40909H3.03813Z" fill="white" fill-opacity="0.5"/>
</svg>
