<svg width="60" height="61" viewBox="0 0 60 61" fill="none" xmlns="http://www.w3.org/2000/svg">
<path d="M40.4671 15.1699H36.5581V19.8619H40.4671V15.1699Z" fill="#FCD751"/>
<path d="M42.2853 15.5229H34.7373L38.5123 10.5699L42.2853 15.5229Z" fill="#FCD751"/>
<path d="M5.93622 13.4519H4.26221V60.5059H5.93622V13.4519Z" fill="#1C4670"/>
<path d="M50.8581 55.4899H0.0791016V57.1599H50.8581V55.4899Z" fill="#1C4670"/>
<path d="M16.043 42.3398H8.31299V53.1108H16.043V42.3398Z" fill="#AEBFCE"/>
<path d="M23.795 38.4579H16.063V53.1109H23.795V38.4579Z" fill="#FFA229"/>
<path d="M31.545 31.153H23.814V53.1109H31.545V31.153Z" fill="#1C4670"/>
<path d="M39.2959 25.7839H31.5649V53.1109H39.2959V25.7839Z" fill="#FFA229"/>
<path d="M47.0469 18.699H39.3159V53.111H47.0469V18.699Z" fill="#AEBFCE"/>
<path d="M12.0572 38.8339L10.5771 37.8009L14.9452 31.5459H18.9492L23.0482 23.7649H27.1942L31.2731 17.8129H35.3112L39.2832 10.5519L40.7411 8.97791L42.0661 10.2019L40.6862 11.6939L36.3851 19.6189H32.2242L28.1461 25.5689H24.1371L20.0381 33.3519H15.8871L12.0572 38.8339Z" fill="#1C4670"/>
<path d="M43.3152 12.795L44.9072 5.77295L38.0312 7.90396L43.3152 12.795Z" fill="#1C4670"/>
<path d="M56.876 38.818H51.729V44.997H56.876V38.818Z" fill="#FCD751"/>
<path d="M59.272 39.284H49.332L54.302 32.761L59.272 39.284Z" fill="#FCD751"/>
<path d="M15.795 24.7639H10.647V30.9429H15.795V24.7639Z" fill="#FCD751"/>
<path d="M18.192 25.2289H8.25195L13.222 18.7059L18.192 25.2289Z" fill="#FCD751"/>
<path d="M26.9532 4.547H23.7021V8.44901H26.9532V4.547Z" fill="#FCD751"/>
<path d="M28.468 4.84097H22.188L25.328 0.719971L28.468 4.84097Z" fill="#FCD751"/>
</svg>
