<svg width="66" height="70" viewBox="0 0 66 70" fill="none" xmlns="http://www.w3.org/2000/svg">
<path d="M32.9692 25.608C41.655 25.608 48.6962 20.0465 48.6962 13.186C48.6962 6.32555 41.655 0.764038 32.9692 0.764038C24.2834 0.764038 17.2422 6.32555 17.2422 13.186C17.2422 20.0465 24.2834 25.608 32.9692 25.608Z" fill="#AEBFCE"/>
<path d="M49.1252 24.725L39.3682 21.474L45.8731 14.968L49.1252 24.725Z" fill="#AEBFCE"/>
<path d="M15.957 24.725L25.714 21.474L19.209 14.968L15.957 24.725Z" fill="#AEBFCE"/>
<path d="M2.53223 42.258C5.58223 43.646 9.63622 44.4901 14.0832 44.4901C18.5342 44.4901 22.5882 43.646 25.6382 42.258C22.5882 40.874 18.5342 40.0291 14.0832 40.0291C9.63622 40.0291 5.58223 40.874 2.53223 42.258Z" fill="#E6AE7E"/>
<path d="M19.6841 36.9511C20.2961 35.9411 20.6491 34.7551 20.6491 33.4881C20.6491 29.7861 17.6461 26.7841 13.9471 26.7841C10.2451 26.7841 7.24512 29.7861 7.24512 33.4881C7.24512 34.7551 7.59614 35.9411 8.20914 36.9511C10.0201 40.1891 10.3891 40.9641 10.4081 42.4421C10.4431 44.6581 10.4081 46.4261 10.4081 46.4261H13.9471H17.4821C17.4821 46.4261 17.4491 44.6581 17.4821 42.4421C17.5051 40.9631 17.8711 40.1881 19.6841 36.9511Z" fill="#FCD751"/>
<path d="M13.9462 47.437H11.4312C11.8032 49.462 13.9462 49.462 13.9462 49.462C13.9462 49.462 16.0862 49.462 16.4582 47.437H13.9462Z" fill="#002254"/>
<path d="M18.5063 44.1451C18.5063 44.7881 17.9862 45.3091 17.3432 45.3091H10.5482C9.90625 45.3091 9.38525 44.7881 9.38525 44.1451C9.38525 43.5021 9.90625 42.9821 10.5482 42.9821H17.3432C17.9862 42.9821 18.5063 43.5021 18.5063 44.1451Z" fill="#768296"/>
<path d="M18.1419 43.917C18.1419 44.436 17.6629 44.853 17.0699 44.853H10.8189C10.2289 44.853 9.75195 44.436 9.75195 43.917C9.75195 43.401 10.2299 42.983 10.8189 42.983H17.0699C17.6619 42.982 18.1419 43.4 18.1419 43.917Z" fill="#AEBFCE"/>
<path d="M18.5063 46.425C18.5063 47.069 17.9862 47.59 17.3432 47.59H10.5482C9.90625 47.59 9.38525 47.069 9.38525 46.425C9.38525 45.781 9.90625 45.261 10.5482 45.261H17.3432C17.9862 45.262 18.5063 45.782 18.5063 46.425Z" fill="#768296"/>
<path d="M14.0849 22.019C14.3379 22.019 14.5459 22.2241 14.5459 22.4771V25.153C14.5459 25.404 14.3379 25.609 14.0849 25.609C13.8309 25.609 13.627 25.405 13.627 25.153V22.4771C13.627 22.2241 13.8309 22.019 14.0849 22.019Z" fill="#FFA229"/>
<path d="M8.00216 23.599C8.22116 23.472 8.50116 23.546 8.62716 23.766L9.96615 26.082C10.0931 26.3 10.0181 26.582 9.79815 26.707C9.57915 26.833 9.29915 26.759 9.17315 26.54L7.83416 24.224C7.71016 24.004 7.78316 23.723 8.00216 23.599Z" fill="#FFA229"/>
<path d="M3.52419 28.005C3.65219 27.787 3.93219 27.712 4.15019 27.838L6.4662 29.174C6.6852 29.301 6.7602 29.58 6.6342 29.802C6.5092 30.018 6.2292 30.094 6.0082 29.968L3.69219 28.63C3.47219 28.505 3.39719 28.226 3.52419 28.005Z" fill="#FFA229"/>
<path d="M1.85107 34.063C1.85107 33.809 2.05505 33.605 2.30905 33.605H4.98306C5.23706 33.605 5.44107 33.81 5.44107 34.063C5.44107 34.315 5.23706 34.519 4.98306 34.519H2.30905C2.05505 34.52 1.85107 34.316 1.85107 34.063Z" fill="#FFA229"/>
<path d="M3.42991 40.1461C3.30191 39.9271 3.3779 39.6481 3.5979 39.5201L5.91291 38.1831C6.13191 38.0551 6.41191 38.1301 6.53891 38.3511C6.66591 38.5701 6.58992 38.8501 6.37091 38.9771L4.05591 40.3131C3.83491 40.4391 3.55691 40.3651 3.42991 40.1461Z" fill="#FFA229"/>
<path d="M20.1691 23.599C19.9491 23.472 19.6691 23.546 19.5401 23.766L18.2041 26.082C18.0771 26.3 18.1511 26.582 18.3721 26.707C18.5921 26.833 18.8701 26.759 18.9991 26.54L20.3351 24.224C20.4631 24.004 20.3871 23.723 20.1691 23.599Z" fill="#FFA229"/>
<path d="M24.6462 28.005C24.5212 27.787 24.2413 27.712 24.0223 27.838L21.7052 29.174C21.4862 29.301 21.4122 29.58 21.5372 29.802C21.6622 30.018 21.9463 30.094 22.1653 29.968L24.4783 28.63C24.6983 28.505 24.7732 28.226 24.6462 28.005Z" fill="#FFA229"/>
<path d="M26.32 34.063C26.32 33.809 26.115 33.605 25.862 33.605H23.187C22.933 33.605 22.729 33.81 22.729 34.063C22.729 34.315 22.933 34.519 23.187 34.519H25.862C26.115 34.52 26.32 34.316 26.32 34.063Z" fill="#FFA229"/>
<path d="M24.7422 40.1461C24.8692 39.9271 24.7932 39.6481 24.5752 39.5201L22.2572 38.1831C22.0392 38.0551 21.7592 38.1301 21.6322 38.3511C21.5062 38.5701 21.5822 38.8501 21.8012 38.9771L24.1172 40.3131C24.3352 40.4391 24.6172 40.3651 24.7422 40.1461Z" fill="#FFA229"/>
<path d="M18.1419 46.199C18.1419 46.716 17.6629 47.135 17.0699 47.135H10.8189C10.2289 47.135 9.75195 46.716 9.75195 46.199C9.75195 45.681 10.2299 45.261 10.8189 45.261H17.0699C17.6619 45.262 18.1419 45.681 18.1419 46.199Z" fill="#AEBFCE"/>
<path d="M25.659 51.599H25.431C25.527 50.812 25.624 50.039 25.72 49.305C25.92 47.758 26.226 44.996 25.618 42.269C22.569 43.649 18.524 44.4901 14.082 44.4901C9.64396 44.4901 5.59895 43.649 2.55095 42.269C1.94395 44.996 2.24496 47.758 2.44796 49.305C2.54396 50.039 2.64197 50.813 2.73897 51.599H2.50997C0.495968 50.109 0.323944 54.003 1.16594 55.333C1.86294 56.434 1.87696 56.5551 2.29796 57.7681C2.60996 58.6641 3.12196 58.7811 3.55196 58.6841C3.60696 59.2141 3.65395 59.677 3.68895 60.043C3.87195 62.089 8.78997 66.19 9.90697 67.472C10.949 68.676 12.694 68.2071 13.251 68.1821C13.817 68.1561 14.0849 68.142 14.0849 68.142C14.0849 68.142 14.354 68.1561 14.917 68.1821C15.476 68.2071 17.219 68.676 18.265 67.472C19.379 66.19 24.295 62.09 24.484 60.043C24.517 59.677 24.563 59.2131 24.616 58.6841C25.049 58.7811 25.563 58.6631 25.871 57.7681C26.293 56.5551 26.308 56.434 27.005 55.333C27.845 54.003 27.672 50.109 25.659 51.599Z" fill="#F4C297"/>
<path d="M40.249 43.071C43.3 44.458 47.353 45.302 51.801 45.302C56.252 45.302 60.306 44.458 63.356 43.071C60.306 41.687 56.252 40.842 51.801 40.842C47.354 40.842 43.3 41.687 40.249 43.071Z" fill="#E6AE7E"/>
<path d="M54.9577 39.877C53.8147 38.937 51.9077 38.321 49.7467 38.321C47.5857 38.321 45.6787 38.936 44.5357 39.877H43.4097V41.928C43.4097 43.922 46.2477 45.535 49.7467 45.535C53.2477 45.535 56.0837 43.922 56.0837 41.928V39.877H54.9577Z" fill="#FFA229"/>
<path d="M54.9577 37.579C53.8147 36.639 51.9077 36.02 49.7467 36.02C47.5857 36.02 45.6787 36.639 44.5337 37.579H43.4097V39.628C43.4097 41.619 46.2477 43.236 49.7467 43.236C53.2477 43.236 56.0837 41.619 56.0837 39.628V37.579H54.9577Z" fill="#FCD751"/>
<path d="M54.9577 35.2781C53.8127 34.3391 51.9077 33.7211 49.7467 33.7211C47.5857 33.7211 45.6787 34.3381 44.5337 35.2781H43.4097V37.3261C43.4097 39.3191 46.2477 40.9341 49.7467 40.9341C53.2477 40.9341 56.0837 39.3181 56.0837 37.3261V35.2781H54.9577Z" fill="#FFA229"/>
<path d="M54.9577 32.9781C53.8127 32.0371 51.9077 31.4191 49.7467 31.4191C47.5857 31.4191 45.6787 32.0361 44.5337 32.9781H43.4077V35.0281C43.4077 37.0221 46.2457 38.6351 49.7467 38.6351C53.2477 38.6351 56.0837 37.0221 56.0837 35.0281V32.9781H54.9577Z" fill="#FCD751"/>
<path d="M54.9577 30.676C53.8127 29.736 51.9077 29.12 49.7467 29.12C47.5857 29.12 45.6787 29.736 44.5337 30.676H43.4077V32.728C43.4077 34.719 46.2457 36.335 49.7467 36.335C53.2477 36.335 56.0837 34.719 56.0837 32.728V30.676H54.9577Z" fill="#FFA229"/>
<path d="M49.7457 34.286C53.2461 34.286 56.0837 32.6698 56.0837 30.676C56.0837 28.6823 53.2461 27.066 49.7457 27.066C46.2453 27.066 43.4077 28.6823 43.4077 30.676C43.4077 32.6698 46.2453 34.286 49.7457 34.286Z" fill="#FCD751"/>
<path d="M49.7467 33.716C52.6948 33.716 55.0847 32.3549 55.0847 30.676C55.0847 28.997 52.6948 27.636 49.7467 27.636C46.7986 27.636 44.4087 28.997 44.4087 30.676C44.4087 32.3549 46.7986 33.716 49.7467 33.716Z" fill="#FFA229"/>
<path d="M49.7469 33.0321C52.0328 33.0321 53.8859 31.9772 53.8859 30.6761C53.8859 29.3749 52.0328 28.3201 49.7469 28.3201C47.461 28.3201 45.6079 29.3749 45.6079 30.6761C45.6079 31.9772 47.461 33.0321 49.7469 33.0321Z" fill="#FCD751"/>
<path d="M49.3539 32.1681C49.0769 32.1631 48.8359 32.1451 48.6289 32.1201C48.4229 32.0921 48.2599 32.0591 48.1459 32.0231L48.4269 31.5521C48.5149 31.5811 48.6339 31.6111 48.7929 31.6381C48.9489 31.6651 49.1339 31.6841 49.3539 31.6961V30.8611C49.2029 30.8241 49.0559 30.7801 48.9079 30.7331C48.7609 30.6881 48.6299 30.6311 48.5149 30.5671C48.3979 30.5011 48.3049 30.4211 48.2349 30.3291C48.1669 30.2361 48.1299 30.1281 48.1299 30.0001C48.1299 29.7661 48.2399 29.5841 48.4609 29.4521C48.6789 29.3221 48.9769 29.2371 49.3549 29.2001V28.8251H50.1039V29.1841C50.3169 29.1911 50.5019 29.2091 50.6609 29.2311C50.8199 29.2571 50.9679 29.2861 51.1009 29.3181L50.8399 29.7731C50.7589 29.7501 50.6539 29.7281 50.5289 29.7061C50.4039 29.6851 50.2629 29.6671 50.1029 29.6561V30.4301C50.2519 30.4671 50.4039 30.5101 50.5539 30.5591C50.7069 30.6081 50.8389 30.6641 50.9589 30.7321C51.0769 30.7961 51.1739 30.8751 51.2469 30.9621C51.3209 31.0521 51.3599 31.1571 51.3599 31.2811C51.3599 31.5321 51.2469 31.7301 51.0229 31.8721C50.8009 32.0141 50.4909 32.1051 50.1019 32.1461V32.5281H49.3529V32.1681H49.3539ZM49.0699 29.9541C49.0699 30.0371 49.1289 30.1061 49.2409 30.1621C49.3549 30.2181 49.4949 30.2691 49.6639 30.3151V29.6451C49.4359 29.6501 49.2809 29.6821 49.1969 29.7401C49.1139 29.7971 49.0699 29.8681 49.0699 29.9541ZM50.4219 31.3401C50.4219 31.2521 50.3599 31.1801 50.2369 31.1251C50.1139 31.0691 49.9659 31.0191 49.7949 30.9721V31.6971C50.0049 31.6831 50.1629 31.6461 50.2669 31.5821C50.3689 31.5201 50.4219 31.4381 50.4219 31.3401Z" fill="#FFA229"/>
<path d="M54.4825 47.624C57.6366 47.624 60.1935 45.0671 60.1935 41.913C60.1935 38.7589 57.6366 36.202 54.4825 36.202C51.3284 36.202 48.7715 38.7589 48.7715 41.913C48.7715 45.0671 51.3284 47.624 54.4825 47.624Z" fill="#FCD751"/>
<path d="M54.4834 46.6631C57.1068 46.6631 59.2334 44.5364 59.2334 41.9131C59.2334 39.2897 57.1068 37.1631 54.4834 37.1631C51.86 37.1631 49.7334 39.2897 49.7334 41.9131C49.7334 44.5364 51.86 46.6631 54.4834 46.6631Z" fill="#FFA229"/>
<path d="M54.4843 45.764C56.6111 45.764 58.3353 44.0399 58.3353 41.913C58.3353 39.7862 56.6111 38.062 54.4843 38.062C52.3574 38.062 50.6333 39.7862 50.6333 41.913C50.6333 44.0399 52.3574 45.764 54.4843 45.764Z" fill="#FCD751"/>
<path d="M54.1184 44.351C53.8604 44.343 53.6395 44.316 53.4445 44.269C53.2525 44.225 53.1034 44.172 52.9944 44.113L53.2564 43.342C53.3374 43.393 53.4504 43.44 53.5984 43.484C53.7414 43.528 53.9154 43.561 54.1194 43.578V42.213C53.9794 42.152 53.8414 42.082 53.7044 42.005C53.5674 41.93 53.4454 41.838 53.3384 41.73C53.2334 41.621 53.1444 41.494 53.0794 41.344C53.0134 41.19 52.9814 41.013 52.9814 40.809C52.9814 40.422 53.0825 40.122 53.2885 39.911C53.4895 39.698 53.7684 39.559 54.1194 39.498V38.885H54.8185V39.47C55.0145 39.482 55.1884 39.51 55.3354 39.549C55.4814 39.591 55.6205 39.636 55.7455 39.69L55.5045 40.43C55.4275 40.396 55.3315 40.36 55.2165 40.325C55.0975 40.286 54.9655 40.261 54.8195 40.244V41.507C54.9575 41.569 55.0974 41.639 55.2404 41.718C55.3784 41.795 55.5054 41.891 55.6144 41.997C55.7234 42.106 55.8154 42.232 55.8854 42.378C55.9534 42.523 55.9894 42.697 55.9894 42.898C55.9894 43.309 55.8855 43.633 55.6765 43.862C55.4685 44.094 55.1825 44.242 54.8205 44.311V44.936H54.1215V44.351H54.1184ZM53.8564 40.732C53.8564 40.867 53.9084 40.98 54.0114 41.07C54.1194 41.162 54.2474 41.244 54.4074 41.32V40.226C54.1964 40.234 54.0504 40.287 53.9724 40.379C53.8944 40.474 53.8564 40.592 53.8564 40.732ZM55.1115 42.995C55.1115 42.853 55.0545 42.735 54.9405 42.644C54.8285 42.554 54.6885 42.47 54.5265 42.395V43.578C54.7235 43.557 54.8724 43.493 54.9674 43.393C55.0644 43.292 55.1115 43.157 55.1115 42.995Z" fill="#FFA229"/>
<path d="M63.3749 52.4131H63.1469C63.2439 51.6251 63.3418 50.8511 63.4378 50.1181C63.6388 48.5701 63.9408 45.8081 63.3348 43.0811C60.2848 44.4611 56.2409 45.3021 51.8019 45.3021C47.3619 45.3021 43.3159 44.4611 40.2679 43.0811C39.6589 45.8091 39.9639 48.5701 40.1639 50.1181C40.2619 50.8511 40.3588 51.6251 40.4548 52.4131H40.2259C38.2109 50.9211 38.0418 54.8161 38.8828 56.1461C39.5818 57.2461 39.5949 57.3681 40.0149 58.5801C40.3269 59.4761 40.8388 59.5941 41.2698 59.4961C41.3248 60.0281 41.3708 60.4911 41.4038 60.8561C41.5888 62.9021 46.5079 67.0021 47.6249 68.2861C48.6669 69.4881 50.4098 69.0211 50.9688 68.9941C51.5338 68.9681 51.8029 68.9551 51.8029 68.9551C51.8029 68.9551 52.0709 68.9681 52.6349 68.9941C53.1939 69.0201 54.9369 69.4881 55.9799 68.2861C57.0959 67.0031 62.0139 62.9031 62.1989 60.8561C62.2339 60.4901 62.2829 60.0271 62.3339 59.4961C62.7659 59.5941 63.2779 59.4761 63.5879 58.5801C64.0109 57.3681 64.0249 57.2461 64.7199 56.1461C65.5619 54.8161 65.3889 50.9211 63.3749 52.4131Z" fill="#F4C297"/>
<path d="M30.3132 10.387C30.3022 10.577 30.1832 10.727 30.0412 10.721L28.6872 10.651C28.5462 10.642 28.4412 10.484 28.4502 10.291L28.5072 9.20403C28.5162 9.01203 28.6392 8.86304 28.7812 8.87104L30.1312 8.93804C30.2722 8.94704 30.3772 9.10503 30.3682 9.29903L30.3132 10.387Z" fill="#1C4670"/>
<path d="M29.7733 20.99C29.7833 20.797 29.6753 20.636 29.5353 20.63L28.1843 20.563C28.0433 20.554 27.9203 20.704 27.9113 20.896L27.8553 21.985C27.8443 22.174 27.9503 22.336 28.0923 22.343L29.4453 22.41C29.5863 22.419 29.7083 22.269 29.7183 22.078L29.7733 20.99Z" fill="#1C4670"/>
<path d="M27.5231 10.493C27.6101 10.662 27.5801 10.851 27.4531 10.916L26.2501 11.531C26.1241 11.596 25.9521 11.51 25.8651 11.341L25.3661 10.37C25.2801 10.199 25.3111 10.01 25.4351 9.94503L26.6411 9.33003C26.7671 9.26303 26.9401 9.35103 27.0271 9.52003L27.5231 10.493Z" fill="#1C4670"/>
<path d="M32.3583 19.942C32.2703 19.769 32.0993 19.686 31.9723 19.75L30.7683 20.366C30.6423 20.431 30.6123 20.62 30.6983 20.792L31.1933 21.762C31.2823 21.934 31.4563 22.019 31.5813 21.956L32.7863 21.339C32.9113 21.274 32.9443 21.085 32.8563 20.912L32.3583 19.942Z" fill="#1C4670"/>
<path d="M25.1614 11.975C25.3244 12.079 25.3904 12.261 25.3154 12.377L24.5794 13.514C24.5014 13.633 24.3104 13.644 24.1484 13.541L23.2334 12.948C23.0734 12.845 23.0044 12.664 23.0814 12.546L23.8173 11.408C23.8923 11.289 24.0864 11.279 24.2454 11.383L25.1614 11.975Z" fill="#1C4670"/>
<path d="M34.0751 17.7431C33.9151 17.6391 33.7211 17.6501 33.6431 17.7691L32.9111 18.9051C32.8331 19.0241 32.8991 19.2041 33.0621 19.3091L33.9751 19.9001C34.1361 20.0041 34.3291 19.9921 34.4081 19.8741L35.1411 18.7381C35.2181 18.6211 35.1501 18.4411 34.9901 18.3361L34.0751 17.7431Z" fill="#1C4670"/>
<path d="M23.8571 14.441C24.0491 14.45 24.1971 14.573 24.1921 14.714L24.1211 16.064C24.1151 16.205 23.9541 16.312 23.7651 16.302L22.6731 16.248C22.4831 16.239 22.3331 16.115 22.3411 15.973L22.4091 14.625C22.4171 14.482 22.5761 14.376 22.7671 14.387L23.8571 14.441Z" fill="#1C4670"/>
<path d="M34.4609 14.98C34.2699 14.971 34.1079 15.076 34.1019 15.218L34.0329 16.567C34.0269 16.709 34.1749 16.833 34.3679 16.841L35.4559 16.897C35.6459 16.905 35.8079 16.8 35.8149 16.658L35.8839 15.306C35.8909 15.164 35.7379 15.044 35.5489 15.034L34.4609 14.98Z" fill="#1C4670"/>
<path d="M23.962 17.2291C24.131 17.1411 24.321 17.1731 24.386 17.2971L25.002 18.5021C25.067 18.6281 24.981 18.8011 24.809 18.8891L23.84 19.3861C23.671 19.4741 23.481 19.4411 23.415 19.3151L22.799 18.1111C22.735 17.9861 22.821 17.8131 22.99 17.7251L23.962 17.2291Z" fill="#1C4670"/>
<path d="M33.413 12.3941C33.242 12.4821 33.157 12.6541 33.221 12.7801L33.838 13.9831C33.901 14.1091 34.091 14.1421 34.262 14.0541L35.234 13.5581C35.403 13.4711 35.49 13.297 35.425 13.172L34.808 11.9661C34.745 11.8411 34.555 11.81 34.383 11.898L33.413 12.3941Z" fill="#1C4670"/>
<path d="M25.4431 19.5911C25.5491 19.4301 25.7291 19.3621 25.8471 19.4401L26.9841 20.1731C27.1021 20.2511 27.1151 20.4441 27.0111 20.6031L26.4181 21.5201C26.3141 21.6801 26.1321 21.7491 26.0141 21.6691L24.8791 20.9361C24.7591 20.8601 24.7491 20.6671 24.8511 20.5061L25.4431 19.5911Z" fill="#1C4670"/>
<path d="M31.2112 10.678C31.1092 10.839 31.1212 11.032 31.2402 11.109L32.3772 11.843C32.4942 11.919 32.6752 11.852 32.7782 11.692L33.3712 10.775C33.4752 10.616 33.4642 10.422 33.3442 10.346L32.2102 9.61101C32.0892 9.53401 31.9102 9.60101 31.8062 9.76201L31.2112 10.678Z" fill="#1C4670"/>
<path d="M29.4012 9.94597C26.2552 9.78597 23.5752 12.206 23.4182 15.352C23.2572 18.497 25.6772 21.176 28.8212 21.335C31.9662 21.495 34.6452 19.074 34.8042 15.929C34.9652 12.784 32.5472 10.106 29.4012 9.94597ZM28.9222 19.391C26.8512 19.287 25.2572 17.522 25.3632 15.452C25.4672 13.379 27.2312 11.787 29.3012 11.891C31.3722 11.997 32.9702 13.759 32.8622 15.832C32.7562 17.902 30.9932 19.497 28.9222 19.391Z" fill="#1C4670"/>
<path d="M38.7707 4.92605C38.7657 5.05305 38.6847 5.15206 38.5927 5.14606L37.7007 5.10007C37.6067 5.09607 37.5377 4.99106 37.5417 4.86406L37.5787 4.14706C37.5867 4.02106 37.6667 3.92206 37.7607 3.92706L38.6507 3.97105C38.7447 3.97705 38.8137 4.08307 38.8077 4.21007L38.7707 4.92605Z" fill="#1C4670"/>
<path d="M38.4158 11.9171C38.4218 11.7911 38.3518 11.6841 38.2588 11.6791L37.3688 11.6351C37.2738 11.6301 37.1949 11.7291 37.1869 11.8551L37.1518 12.5731C37.1448 12.6981 37.2148 12.8051 37.3068 12.8101L38.1999 12.8531C38.2939 12.8601 38.3738 12.7601 38.3798 12.6341L38.4158 11.9171Z" fill="#1C4670"/>
<path d="M36.9328 4.9971C36.9908 5.1081 36.9708 5.23311 36.8858 5.27611L36.0928 5.68311C36.0108 5.72511 35.8978 5.66911 35.8398 5.55611L35.5118 4.91611C35.4538 4.80411 35.4748 4.67811 35.5578 4.63611L36.3508 4.2301C36.4358 4.1861 36.5478 4.2451 36.6048 4.3551L36.9328 4.9971Z" fill="#1C4670"/>
<path d="M40.1189 11.2271C40.0619 11.1131 39.9499 11.0581 39.8669 11.1021L39.0739 11.506C38.9889 11.549 38.9679 11.675 39.0259 11.787L39.3519 12.426C39.4099 12.54 39.5249 12.596 39.6079 12.554L40.4029 12.148C40.4849 12.105 40.5069 11.9811 40.4479 11.8671L40.1189 11.2271Z" fill="#1C4670"/>
<path d="M35.3759 5.97309C35.4809 6.04209 35.5269 6.16208 35.4759 6.24008L34.9929 6.98908C34.9409 7.06708 34.8139 7.07508 34.7089 7.00708L34.1049 6.61608C33.9999 6.54808 33.9559 6.42908 34.0049 6.35108L34.4889 5.60208C34.5379 5.52308 34.6668 5.51609 34.7698 5.58509L35.3759 5.97309Z" fill="#1C4670"/>
<path d="M41.253 9.77505C41.146 9.70805 41.019 9.71506 40.969 9.79406L40.485 10.5421C40.433 10.6211 40.478 10.7401 40.586 10.8081L41.189 11.1991C41.294 11.2681 41.423 11.2601 41.472 11.1811L41.957 10.4311C42.007 10.3541 41.962 10.2361 41.856 10.1661L41.253 9.77505Z" fill="#1C4670"/>
<path d="M34.5159 7.60011C34.6429 7.60511 34.7419 7.6861 34.7359 7.7801L34.6909 8.6701C34.6869 8.7631 34.5799 8.8341 34.4549 8.8281L33.7359 8.79009C33.6089 8.78409 33.5099 8.7041 33.5159 8.6101L33.5619 7.7201C33.5669 7.6271 33.6729 7.5571 33.7979 7.5631L34.5159 7.60011Z" fill="#1C4670"/>
<path d="M41.5068 7.95507C41.3788 7.94907 41.2738 8.02006 41.2708 8.11206L41.2248 9.00206C41.2198 9.09606 41.3188 9.17706 41.4458 9.18306L42.1628 9.21906C42.2878 9.22606 42.3958 9.15506 42.3988 9.06206L42.4448 8.17206C42.4508 8.07906 42.3488 7.99806 42.2238 7.99106L41.5068 7.95507Z" fill="#1C4670"/>
<path d="M34.5849 9.43801C34.6969 9.38001 34.8219 9.4 34.8639 9.482L35.2699 10.277C35.3119 10.36 35.2569 10.475 35.1439 10.532L34.5039 10.859C34.3919 10.917 34.2669 10.896 34.2239 10.813L33.8179 10.019C33.7739 9.936 33.8329 9.82301 33.9439 9.76401L34.5849 9.43801Z" fill="#1C4670"/>
<path d="M40.8151 6.25007C40.7051 6.30807 40.6481 6.42107 40.6891 6.50407L41.0941 7.29608C41.1371 7.38108 41.2611 7.40007 41.3751 7.34407L42.0151 7.01707C42.1281 6.95907 42.1831 6.84507 42.1401 6.76207L41.7351 5.96907C41.6931 5.88407 41.5681 5.86408 41.4571 5.92108L40.8151 6.25007Z" fill="#1C4670"/>
<path d="M35.5629 10.995C35.6309 10.889 35.7509 10.843 35.8299 10.894L36.5789 11.379C36.6559 11.43 36.6649 11.557 36.5969 11.663L36.2049 12.267C36.1369 12.371 36.0169 12.417 35.9389 12.366L35.1919 11.881C35.1119 11.83 35.1029 11.704 35.1719 11.597L35.5629 10.995Z" fill="#1C4670"/>
<path d="M39.3649 5.11804C39.2969 5.22404 39.3039 5.35203 39.3829 5.40203L40.1339 5.88703C40.2089 5.93603 40.3289 5.89203 40.3979 5.78603L40.7899 5.18205C40.8569 5.07805 40.8499 4.95103 40.7719 4.90003L40.0219 4.41503C39.9439 4.36603 39.8259 4.40905 39.7559 4.51605L39.3649 5.11804Z" fill="#1C4670"/>
<path d="M38.171 4.63511C36.099 4.52911 34.33 6.12612 34.225 8.20112C34.121 10.2721 35.715 12.0391 37.789 12.1461C39.861 12.2501 41.628 10.6551 41.733 8.58111C41.84 6.50711 40.245 4.74211 38.171 4.63511ZM37.854 10.8631C36.489 10.7941 35.439 9.63013 35.509 8.26413C35.577 6.89913 36.74 5.84912 38.107 5.91812C39.471 5.98712 40.522 7.14912 40.453 8.51612C40.384 9.88212 39.221 10.9321 37.854 10.8631Z" fill="#1C4670"/>
</svg>
