<svg width="62" height="66" viewBox="0 0 62 66" fill="none" xmlns="http://www.w3.org/2000/svg">
<path d="M19.2348 1.47993C19.2378 1.63993 19.1398 1.76694 19.0218 1.76694L17.9058 1.75793C17.7838 1.75593 17.6958 1.62793 17.6968 1.46893L17.7048 0.568939C17.7028 0.410939 17.8008 0.283936 17.9178 0.283936L19.0318 0.294937C19.1508 0.292937 19.2448 0.42394 19.2428 0.58194L19.2348 1.47993Z" fill="#1C4670"/>
<path d="M19.1672 10.2509C19.1682 10.0939 19.0732 9.96289 18.9572 9.96189L17.8392 9.95388C17.7242 9.95188 17.6262 10.0829 17.6262 10.2399L17.6212 11.1389C17.6182 11.2959 17.7122 11.4249 17.8272 11.4279L18.9482 11.4349C19.0642 11.4359 19.1592 11.3089 19.1582 11.1519L19.1672 10.2509Z" fill="#1C4670"/>
<path d="M16.9378 1.6669C17.0188 1.8059 17.0008 1.9609 16.8948 2.0199L15.9238 2.5719C15.8238 2.6289 15.6778 2.56489 15.5988 2.42689L15.1548 1.64189C15.0758 1.50489 15.0948 1.34789 15.1968 1.28889L16.1688 0.73889C16.2718 0.67889 16.4188 0.745895 16.4958 0.881895L16.9378 1.6669Z" fill="#1C4670"/>
<path d="M21.2627 9.29796C21.1867 9.15796 21.0397 9.09195 20.9407 9.15195L19.9667 9.70195C19.8637 9.76195 19.8447 9.91695 19.9237 10.056L20.3677 10.839C20.4457 10.975 20.5937 11.042 20.6917 10.985L21.6667 10.433C21.7677 10.376 21.7857 10.2169 21.7087 10.0789L21.2627 9.29796Z" fill="#1C4670"/>
<path d="M15.0421 2.97591C15.1811 3.05491 15.2411 3.2029 15.1821 3.3029L14.6191 4.26392C14.5561 4.36792 14.3991 4.38291 14.2611 4.30391L13.4871 3.8459C13.3511 3.7659 13.2871 3.61992 13.3511 3.51792L13.9141 2.5549C13.9731 2.4549 14.1321 2.43792 14.2671 2.51992L15.0421 2.97591Z" fill="#1C4670"/>
<path d="M22.601 7.41794C22.466 7.33894 22.307 7.35595 22.247 7.45495L21.684 8.41994C21.621 8.52094 21.685 8.66594 21.824 8.74694L22.598 9.20194C22.734 9.28294 22.894 9.26494 22.953 9.16794L23.517 8.20194C23.577 8.10094 23.514 7.95494 23.376 7.87394L22.601 7.41794Z" fill="#1C4670"/>
<path d="M14.053 5.05696C14.212 5.05696 14.338 5.15195 14.338 5.26895L14.33 6.38796C14.328 6.50396 14.196 6.59795 14.042 6.59595L13.141 6.58995C12.982 6.58595 12.855 6.49196 12.858 6.37496L12.865 5.25896C12.865 5.14096 12.996 5.04796 13.154 5.04996L14.053 5.05696Z" fill="#1C4670"/>
<path d="M22.824 5.125C22.667 5.125 22.536 5.21899 22.532 5.33299L22.5229 6.453C22.5249 6.569 22.6519 6.665 22.8089 6.666L23.7099 6.673C23.8669 6.671 23.995 6.58101 23.998 6.46201L24.006 5.34599C24.01 5.22899 23.8809 5.134 23.7229 5.131L22.824 5.125Z" fill="#1C4670"/>
<path d="M14.2399 7.35189C14.3739 7.27589 14.5309 7.29488 14.5899 7.39588L15.1409 8.36889C15.2009 8.46989 15.1349 8.61588 14.9969 8.69288L14.2129 9.13688C14.0769 9.21688 13.9179 9.19689 13.8589 9.09289L13.3079 8.12289C13.2529 8.02089 13.3159 7.87389 13.4529 7.79589L14.2399 7.35189Z" fill="#1C4670"/>
<path d="M21.8648 3.02796C21.7258 3.10696 21.6658 3.25196 21.7178 3.35396L22.2748 4.32495C22.3318 4.42695 22.4908 4.44795 22.6238 4.36795L23.4108 3.92496C23.5498 3.84696 23.6128 3.70096 23.5568 3.59996L23.0038 2.62596C22.9468 2.52296 22.7908 2.50796 22.6498 2.58396L21.8648 3.02796Z" fill="#1C4670"/>
<path d="M15.545 9.2499C15.625 9.1149 15.771 9.0529 15.873 9.1099L16.838 9.6759C16.938 9.7369 16.956 9.89491 16.871 10.0309L16.415 10.8059C16.334 10.9429 16.189 11.0049 16.09 10.9449L15.128 10.3799C15.023 10.3209 15.01 10.1639 15.089 10.0269L15.545 9.2499Z" fill="#1C4670"/>
<path d="M19.9888 1.69093C19.9128 1.82693 19.9258 1.98393 20.0258 2.04493L20.9918 2.60892C21.0918 2.66992 21.2388 2.60593 21.3188 2.46993L21.7738 1.69393C21.8538 1.55893 21.8378 1.39793 21.7348 1.33993L20.7738 0.773933C20.6738 0.714933 20.5288 0.776926 20.4458 0.910926L19.9888 1.69093Z" fill="#1C4670"/>
<path d="M18.4669 1.14994C15.8669 1.12894 13.7409 3.22294 13.7199 5.82294C13.6999 8.42294 15.7909 10.551 18.3949 10.57C20.9959 10.59 23.1239 8.49895 23.1429 5.89695C23.1629 3.29595 21.0709 1.16994 18.4669 1.14994ZM18.4079 8.96094C16.6929 8.94894 15.3169 7.54994 15.3319 5.83594C15.3439 4.12494 16.7439 2.74794 18.4549 2.75794C20.1699 2.77194 21.5459 4.17094 21.5299 5.88494C21.5179 7.59894 20.1219 8.97494 18.4079 8.96094Z" fill="#1C4670"/>
<path d="M51.6599 29.348C51.6609 29.465 51.5909 29.556 51.5059 29.556L50.6989 29.549C50.6109 29.548 50.5469 29.456 50.5469 29.342L50.5529 28.692C50.5529 28.577 50.6229 28.485 50.7079 28.486L51.5139 28.493C51.5989 28.493 51.6669 28.586 51.6649 28.701L51.6599 29.348Z" fill="#1C4670"/>
<path d="M51.6097 35.6869C51.6097 35.5729 51.5417 35.4789 51.4587 35.4789L50.6497 35.4719C50.5657 35.4719 50.4957 35.5659 50.4957 35.6779L50.4917 36.3299C50.4907 36.4409 50.5567 36.5339 50.6407 36.5369L51.4517 36.5409C51.5357 36.5419 51.6037 36.4509 51.6027 36.3369L51.6097 35.6869Z" fill="#1C4670"/>
<path d="M49.9989 29.483C50.0579 29.582 50.0439 29.695 49.9679 29.738L49.2669 30.135C49.1939 30.176 49.0879 30.132 49.0319 30.031L48.7109 29.465C48.6529 29.365 48.6679 29.252 48.7409 29.21L49.4429 28.813C49.5169 28.77 49.6249 28.817 49.6799 28.916L49.9989 29.483Z" fill="#1C4670"/>
<path d="M53.125 34.997C53.07 34.896 52.964 34.85 52.892 34.892L52.188 35.288C52.114 35.332 52.101 35.444 52.158 35.545L52.478 36.11C52.536 36.21 52.642 36.258 52.712 36.216L53.417 35.817C53.489 35.776 53.503 35.661 53.447 35.562L53.125 34.997Z" fill="#1C4670"/>
<path d="M48.63 30.4289C48.729 30.4859 48.773 30.5939 48.73 30.6649L48.324 31.3599C48.278 31.4349 48.164 31.4459 48.064 31.3869L47.504 31.0569C47.406 30.9989 47.358 30.8939 47.406 30.8189L47.813 30.1239C47.856 30.0519 47.97 30.0389 48.067 30.0989L48.63 30.4289Z" fill="#1C4670"/>
<path d="M54.0908 33.641C53.9938 33.582 53.8788 33.595 53.8368 33.667L53.4288 34.363C53.3828 34.437 53.4298 34.542 53.5308 34.599L54.0908 34.929C54.1888 34.987 54.3048 34.974 54.3468 34.904L54.7538 34.207C54.7978 34.134 54.7518 34.028 54.6528 33.969L54.0908 33.641Z" fill="#1C4670"/>
<path d="M47.9138 31.934C48.0278 31.934 48.1198 32.002 48.1198 32.086L48.1138 32.895C48.1128 32.98 48.0168 33.047 47.9068 33.045L47.2548 33.04C47.1408 33.04 47.0488 32.97 47.0498 32.886L47.0558 32.08C47.0558 31.995 47.1508 31.927 47.2638 31.929L47.9138 31.934Z" fill="#1C4670"/>
<path d="M54.2527 31.983C54.1387 31.983 54.0447 32.05 54.0427 32.133L54.0347 32.941C54.0367 33.026 54.1287 33.095 54.2417 33.097L54.8927 33.101C55.0067 33.1 55.0997 33.035 55.1017 32.949L55.1067 32.144C55.1097 32.059 55.0167 31.99 54.9027 31.987L54.2527 31.983Z" fill="#1C4670"/>
<path d="M48.0497 33.592C48.1467 33.537 48.2597 33.551 48.3017 33.624L48.6997 34.327C48.7417 34.398 48.6957 34.504 48.5957 34.56L48.0297 34.881C47.9307 34.939 47.8167 34.924 47.7737 34.85L47.3757 34.148C47.3357 34.075 47.3817 33.969 47.4797 33.912L48.0497 33.592Z" fill="#1C4670"/>
<path d="M53.5599 30.4679C53.4599 30.5239 53.4149 30.6289 53.4539 30.7019L53.8569 31.4039C53.8969 31.4779 54.0109 31.4929 54.1089 31.4359L54.6779 31.1149C54.7769 31.0589 54.8239 30.9549 54.7819 30.8809L54.3839 30.1759C54.3419 30.1029 54.2299 30.0909 54.1269 30.1449L53.5599 30.4679Z" fill="#1C4670"/>
<path d="M48.9927 34.963C49.0497 34.865 49.1547 34.819 49.2287 34.861L49.9257 35.27C49.9977 35.315 50.0117 35.428 49.9507 35.526L49.6207 36.088C49.5617 36.186 49.4567 36.231 49.3847 36.189L48.6907 35.78C48.6147 35.738 48.6047 35.623 48.6627 35.527L48.9927 34.963Z" fill="#1C4670"/>
<path d="M52.204 29.501C52.149 29.599 52.158 29.712 52.23 29.756L52.928 30.164C53 30.207 53.107 30.162 53.164 30.064L53.494 29.503C53.552 29.404 53.54 29.288 53.466 29.247L52.772 28.839C52.699 28.796 52.594 28.84 52.535 28.937L52.204 29.501Z" fill="#1C4670"/>
<path d="M51.104 29.11C49.225 29.094 47.688 30.608 47.672 32.487C47.658 34.364 49.17 35.903 51.051 35.917C52.931 35.93 54.469 34.418 54.482 32.54C54.498 30.661 52.985 29.125 51.104 29.11ZM51.063 34.754C49.824 34.745 48.83 33.734 48.838 32.495C48.847 31.259 49.859 30.265 51.096 30.271C52.335 30.282 53.329 31.293 53.319 32.531C53.309 33.77 52.3 34.765 51.063 34.754Z" fill="#1C4670"/>
<path d="M17.2427 38.0839C17.2447 38.1809 17.1857 38.2549 17.1157 38.2549L16.4487 38.2509C16.3767 38.2489 16.3227 38.1719 16.3237 38.0789L16.3287 37.5399C16.3277 37.4469 16.3867 37.3689 16.4557 37.3709L17.1217 37.3759C17.1927 37.3759 17.2487 37.4529 17.2477 37.5489L17.2427 38.0839Z" fill="#1C4670"/>
<path d="M17.2018 43.3229C17.2028 43.2299 17.1458 43.1529 17.0768 43.1529L16.4088 43.1469C16.3398 43.1459 16.2808 43.2249 16.2808 43.3169L16.2778 43.8559C16.2768 43.9489 16.3328 44.0248 16.4008 44.0268L17.0708 44.0319C17.1408 44.0339 17.1968 43.9569 17.1968 43.8629L17.2018 43.3229Z" fill="#1C4670"/>
<path d="M15.8705 38.1969C15.9185 38.2789 15.9075 38.3728 15.8445 38.4068L15.2645 38.7358C15.2045 38.7688 15.1185 38.7318 15.0705 38.6488L14.8055 38.1819C14.7575 38.0989 14.7695 38.0048 14.8295 37.9708L15.4105 37.6429C15.4725 37.6069 15.5595 37.6459 15.6065 37.7269L15.8705 38.1969Z" fill="#1C4670"/>
<path d="M18.4534 42.7538C18.4084 42.6708 18.3204 42.6318 18.2604 42.6678L17.6794 42.9958C17.6174 43.0318 17.6074 43.1248 17.6544 43.2068L17.9194 43.6738C17.9674 43.7568 18.0554 43.7958 18.1134 43.7618L18.6954 43.4319C18.7554 43.3979 18.7664 43.3038 18.7194 43.2208L18.4534 42.7538Z" fill="#1C4670"/>
<path d="M14.7377 38.9779C14.8207 39.0259 14.8567 39.1149 14.8217 39.1739L14.4847 39.7489C14.4477 39.8109 14.3527 39.8199 14.2707 39.7709L13.8077 39.4989C13.7267 39.4509 13.6877 39.3639 13.7267 39.3019L14.0637 38.7269C14.0987 38.6669 14.1937 38.6569 14.2737 38.7059L14.7377 38.9779Z" fill="#1C4670"/>
<path d="M19.2525 41.6329C19.1725 41.5849 19.0775 41.5949 19.0415 41.6539L18.7045 42.2309C18.6665 42.2899 18.7055 42.3779 18.7885 42.4259L19.2515 42.6969C19.3315 42.7459 19.4275 42.7359 19.4635 42.6759L19.8005 42.1009C19.8355 42.0399 19.7985 41.9529 19.7165 41.9029L19.2525 41.6329Z" fill="#1C4670"/>
<path d="M14.1467 40.2219C14.2417 40.2219 14.3177 40.2789 14.3177 40.3499L14.3117 41.0179C14.3107 41.0859 14.2327 41.1419 14.1407 41.1419L13.6017 41.1369C13.5067 41.1359 13.4307 41.0799 13.4327 41.0099L13.4367 40.3429C13.4367 40.2729 13.5157 40.2169 13.6097 40.2179L14.1467 40.2219Z" fill="#1C4670"/>
<path d="M19.3865 40.2629C19.2915 40.2629 19.2145 40.3189 19.2125 40.3869L19.2065 41.0549C19.2075 41.1249 19.2825 41.1809 19.3775 41.1829L19.9155 41.1869C20.0105 41.1869 20.0855 41.1319 20.0885 41.0609L20.0935 40.3949C20.0945 40.3249 20.0175 40.2679 19.9235 40.2649L19.3865 40.2629Z" fill="#1C4670"/>
<path d="M14.2595 41.5929C14.3385 41.5459 14.4335 41.5579 14.4685 41.6179L14.7975 42.1999C14.8315 42.2589 14.7935 42.3459 14.7115 42.3929L14.2425 42.6579C14.1615 42.7049 14.0655 42.6929 14.0315 42.6329L13.7035 42.0509C13.6695 41.9899 13.7065 41.9029 13.7895 41.8569L14.2595 41.5929Z" fill="#1C4670"/>
<path d="M18.8129 39.0099C18.7299 39.0569 18.6939 39.1439 18.7249 39.2039L19.0579 39.7849C19.0909 39.8459 19.1859 39.8579 19.2649 39.8099L19.7359 39.5459C19.8189 39.4989 19.8569 39.4119 19.8229 39.3519L19.4939 38.7699C19.4589 38.7089 19.3649 38.6989 19.2819 38.7449L18.8129 39.0099Z" fill="#1C4670"/>
<path d="M15.0388 42.7258C15.0868 42.6448 15.1728 42.6078 15.2348 42.6428L15.8108 42.9798C15.8708 43.0168 15.8808 43.1108 15.8308 43.1918L15.5587 43.6548C15.5107 43.7368 15.4238 43.7738 15.3648 43.7378L14.7908 43.3998C14.7278 43.3648 14.7198 43.2708 14.7678 43.1898L15.0388 42.7258Z" fill="#1C4670"/>
<path d="M17.6927 38.2118C17.6477 38.2928 17.6547 38.3858 17.7147 38.4228L18.2907 38.7588C18.3517 38.7948 18.4377 38.7568 18.4857 38.6758L18.7577 38.2138C18.8057 38.1318 18.7957 38.0368 18.7347 38.0018L18.1607 37.6648C18.1007 37.6298 18.0147 37.6668 17.9657 37.7468L17.6927 38.2118Z" fill="#1C4670"/>
<path d="M16.7838 37.8889C15.2308 37.8759 13.9608 39.1259 13.9488 40.6789C13.9368 42.2319 15.1848 43.5029 16.7408 43.5149C18.2938 43.5259 19.5648 42.2769 19.5758 40.7239C19.5888 39.1699 18.3388 37.9009 16.7838 37.8889ZM16.7488 42.5539C15.7248 42.5449 14.9028 41.7109 14.9118 40.6859C14.9188 39.6639 15.7558 38.8419 16.7768 38.8489C17.7998 38.8579 18.6228 39.6929 18.6138 40.7149C18.6048 41.7399 17.7718 42.5619 16.7488 42.5539Z" fill="#1C4670"/>
<path d="M29.8586 3.53696C29.8596 3.65296 29.7896 3.74397 29.7046 3.74397L28.8976 3.73797C28.8096 3.73597 28.7456 3.64296 28.7466 3.52996L28.7516 2.87997C28.7516 2.76497 28.8216 2.67296 28.9066 2.67396L29.7116 2.67995C29.7976 2.67995 29.8656 2.77296 29.8636 2.88796L29.8586 3.53696Z" fill="#1C4670"/>
<path d="M29.8084 9.87599C29.8094 9.76199 29.7414 9.66798 29.6574 9.66798L28.8494 9.66199C28.7664 9.66199 28.6954 9.75598 28.6954 9.86798L28.6914 10.52C28.6904 10.632 28.7574 10.725 28.8404 10.728L29.6504 10.733C29.7364 10.735 29.8034 10.642 29.8024 10.528L29.8084 9.87599Z" fill="#1C4670"/>
<path d="M28.1977 3.67298C28.2567 3.77198 28.2437 3.88497 28.1667 3.92797L27.4647 4.32497C27.3937 4.36597 27.2867 4.32097 27.2307 4.22097L26.9097 3.65498C26.8527 3.55398 26.8666 3.44197 26.9396 3.39997L27.6416 3.00298C27.7156 2.95898 27.8227 3.00697 27.8787 3.10497L28.1977 3.67298Z" fill="#1C4670"/>
<path d="M31.3234 9.18594C31.2674 9.08594 31.1624 9.03893 31.0904 9.08093L30.3874 9.47793C30.3134 9.52093 30.2994 9.63493 30.3564 9.73493L30.6774 10.2989C30.7344 10.3999 30.8404 10.4469 30.9104 10.4059L31.6144 10.0059C31.6874 9.96493 31.7014 9.85093 31.6454 9.74993L31.3234 9.18594Z" fill="#1C4670"/>
<path d="M26.8274 4.61802C26.9274 4.67402 26.9724 4.78302 26.9284 4.85502L26.5214 5.55002C26.4764 5.62502 26.3624 5.63502 26.2624 5.57602L25.7024 5.24602C25.6034 5.18802 25.5574 5.08302 25.6034 5.00802L26.0114 4.31302C26.0534 4.24202 26.1674 4.22901 26.2654 4.28801L26.8274 4.61802Z" fill="#1C4670"/>
<path d="M32.2906 7.82895C32.1926 7.77095 32.0776 7.78396 32.0356 7.85496L31.6276 8.55196C31.5816 8.62496 31.6286 8.73096 31.7286 8.78896L32.2896 9.11696C32.3876 9.17696 32.5036 9.16296 32.5456 9.09296L32.9536 8.39696C32.9966 8.32296 32.9516 8.21696 32.8516 8.15896L32.2906 7.82895Z" fill="#1C4670"/>
<path d="M26.1126 6.12196C26.2276 6.12196 26.3186 6.19097 26.3186 6.27597L26.3126 7.08397C26.3116 7.16797 26.2156 7.23496 26.1046 7.23396L25.4526 7.22897C25.3386 7.22897 25.2466 7.15896 25.2486 7.07496L25.2536 6.26896C25.2536 6.18296 25.3496 6.11596 25.4626 6.11796L26.1126 6.12196Z" fill="#1C4670"/>
<path d="M32.4514 6.17102C32.3384 6.17102 32.2424 6.23902 32.2414 6.32202L32.2334 7.13101C32.2354 7.21501 32.3274 7.28402 32.4404 7.28502L33.0924 7.29001C33.2054 7.28801 33.2984 7.22301 33.2994 7.13701L33.3054 6.33101C33.3084 6.24701 33.2154 6.17802 33.1014 6.17502L32.4514 6.17102Z" fill="#1C4670"/>
<path d="M26.2485 7.78104C26.3455 7.72504 26.4575 7.74004 26.5005 7.81304L26.8985 8.51604C26.9415 8.58804 26.8945 8.69304 26.7945 8.75004L26.2285 9.07204C26.1295 9.12904 26.0145 9.11503 25.9715 9.04003L25.5755 8.33803C25.5345 8.26503 25.5805 8.15904 25.6795 8.10204L26.2485 7.78104Z" fill="#1C4670"/>
<path d="M31.7584 4.65601C31.6574 4.71301 31.6144 4.81801 31.6524 4.89101L32.0544 5.593C32.0954 5.666 32.2094 5.682 32.3074 5.625L32.8754 5.304C32.9754 5.247 33.0214 5.143 32.9794 5.069L32.5814 4.36501C32.5394 4.29201 32.4264 4.27901 32.3254 4.33501L31.7584 4.65601Z" fill="#1C4670"/>
<path d="M27.1906 9.15192C27.2496 9.05392 27.3536 9.00893 27.4276 9.04993L28.1246 9.45893C28.1966 9.50393 28.2106 9.61793 28.1486 9.71493L27.8196 10.2779C27.7596 10.3759 27.6556 10.4209 27.5846 10.3779L26.8886 9.96993C26.8136 9.92693 26.8036 9.81293 26.8616 9.71593L27.1906 9.15192Z" fill="#1C4670"/>
<path d="M30.4036 3.69002C30.3476 3.78702 30.3576 3.90102 30.4296 3.94502L31.1276 4.35301C31.1986 4.39601 31.3056 4.35101 31.3626 4.25201L31.6916 3.69101C31.7496 3.59201 31.7386 3.47702 31.6646 3.43602L30.9696 3.02701C30.8986 2.98501 30.7926 3.02902 30.7336 3.12602L30.4036 3.69002Z" fill="#1C4670"/>
<path d="M29.3037 3.29895C27.4247 3.28295 25.8877 4.79795 25.8717 6.67595C25.8577 8.55395 27.3697 10.093 29.2507 10.107C31.1297 10.121 32.6687 8.60795 32.6827 6.72995C32.6967 4.84895 31.1857 3.31295 29.3037 3.29895ZM29.2607 8.94295C28.0217 8.93395 27.0277 7.92396 27.0377 6.68496C27.0467 5.44796 28.0587 4.45296 29.2947 4.45996C30.5337 4.46996 31.5277 5.48196 31.5177 6.71996C31.5077 7.95996 30.4987 8.95395 29.2607 8.94295Z" fill="#1C4670"/>
<path d="M32.0866 56.002C31.8986 56.002 31.7457 55.831 31.7457 55.619V50.444C31.7457 49.388 30.9836 48.529 30.0476 48.529H23.5117C22.1997 48.529 21.1336 47.67 21.1336 46.613C21.1336 45.556 22.1997 44.696 23.5117 44.696H40.8086C41.8096 44.696 42.5077 44.136 42.5077 43.634C42.5077 43.132 41.8096 42.573 40.8086 42.573H31.2467C29.9347 42.573 28.8666 41.604 28.8666 40.415C28.8666 39.225 29.9347 38.257 31.2467 38.257H40.1897C41.1117 38.257 41.8886 37.598 41.8886 36.821C41.8886 36.043 41.1117 35.386 40.1897 35.386H23.2687C21.9567 35.386 20.8896 34.27 20.8896 32.899V30.794C20.8896 30.583 21.0416 30.412 21.2296 30.412C21.4176 30.412 21.5686 30.582 21.5686 30.794V32.899C21.5686 33.849 22.3317 34.621 23.2687 34.621H40.1897C41.5027 34.621 42.5686 35.607 42.5686 36.821C42.5686 38.035 41.5027 39.023 40.1897 39.023H31.2467C30.3257 39.023 29.5466 39.659 29.5466 40.415C29.5466 41.169 30.3257 41.807 31.2467 41.807H40.8086C42.1416 41.807 43.1866 42.609 43.1866 43.634C43.1866 44.658 42.1416 45.461 40.8086 45.461H23.5117C22.5897 45.461 21.8126 45.988 21.8126 46.612C21.8126 47.237 22.5897 47.763 23.5117 47.763H30.0476C31.3596 47.763 32.4257 48.965 32.4257 50.442V55.617C32.4257 55.831 32.2736 56.002 32.0866 56.002Z" fill="#1C4670"/>
<path d="M29.8768 40.617C29.6658 40.617 29.4638 40.5899 29.2778 40.5379C29.0908 40.5899 28.8888 40.617 28.6778 40.617H8.82977C7.83777 40.617 7.03076 39.811 7.03076 38.819V8.22395C7.03076 7.23095 7.83777 6.42395 8.82977 6.42395H27.4778C28.1518 6.42395 28.7748 6.64795 29.2778 7.02495C29.7788 6.64795 30.4018 6.42395 31.0768 6.42395H49.7238C50.7158 6.42395 51.5248 7.23095 51.5248 8.22395V38.819C51.5248 39.811 50.7158 40.617 49.7238 40.617H29.8768Z" fill="#768296"/>
<path d="M49.725 7.62292H33.577H31.428H31.077C30.088 7.62292 29.278 8.43292 29.278 9.42392C29.278 8.43292 28.467 7.62292 27.478 7.62292H27.127H24.978H8.82996C8.50196 7.62292 8.23096 7.89393 8.23096 8.22493V38.8199C8.23096 39.1499 8.50196 39.4199 8.82996 39.4199H10.03H10.381H12.531H24.978H27.127H27.478H28.678C29.006 39.4199 29.276 39.2739 29.278 39.0939C29.278 39.2739 29.548 39.4199 29.877 39.4199H31.077H31.428H33.577H46.024H48.174H48.524H49.724C50.053 39.4199 50.324 39.1489 50.324 38.8199V8.22493C50.324 7.89393 50.054 7.62292 49.725 7.62292Z" fill="url(#paint0_linear_134_5204)"/>
<path d="M29.278 22.4959V9.42392C29.278 8.43292 28.467 7.62292 27.478 7.62292H27.127H24.978H8.82996C8.50196 7.62292 8.23096 7.89393 8.23096 8.22493V38.8199C8.23096 39.1499 8.50196 39.4199 8.82996 39.4199H10.03H10.381H12.531H24.978H27.127H27.478H28.678C29.007 39.4199 29.278 39.2729 29.278 39.0939V22.4959C29.278 22.4969 29.278 22.4969 29.278 22.4959Z" fill="white"/>
<path d="M29.2778 22.4959V9.42392C29.2778 8.43292 30.0878 7.62292 31.0768 7.62292H31.4278H33.5768H49.7238C50.0528 7.62292 50.3238 7.89393 50.3238 8.22493V38.8199C50.3238 39.1499 50.0528 39.4199 49.7238 39.4199H48.5238H48.1738H46.0238H33.5768H31.4278H31.0768H29.8768C29.5468 39.4199 29.2778 39.2729 29.2778 39.0939V22.4959C29.2778 22.4969 29.2778 22.4969 29.2778 22.4959Z" fill="white"/>
<path d="M26.977 9.67297H9.97998V12.799H26.977V9.67297Z" fill="#FFA229"/>
<path d="M26.977 13.8729H9.97998V14.9729H26.977V13.8729Z" fill="#AEBFCE"/>
<path d="M26.977 18.074H9.97998V19.174H26.977V18.074Z" fill="#AEBFCE"/>
<path d="M26.977 20.174H9.97998V21.274H26.977V20.174Z" fill="#AEBFCE"/>
<path d="M26.977 22.2729H9.97998V23.373H26.977V22.2729Z" fill="#AEBFCE"/>
<path d="M26.977 25.8739H9.97998V26.9729H26.977V25.8739Z" fill="#AEBFCE"/>
<path d="M26.977 27.974H9.97998V29.074H26.977V27.974Z" fill="#AEBFCE"/>
<path d="M26.977 32.173H9.97998V33.273H26.977V32.173Z" fill="#AEBFCE"/>
<path d="M26.977 34.2729H9.97998V35.371H26.977V34.2729Z" fill="#AEBFCE"/>
<path d="M48.5746 9.67297H31.5776V10.775H48.5746V9.67297Z" fill="#AEBFCE"/>
<path d="M48.5746 11.772H31.5776V12.874H48.5746V11.772Z" fill="#AEBFCE"/>
<path d="M48.5746 15.3729H31.5776V16.4739H48.5746V15.3729Z" fill="#AEBFCE"/>
<path d="M48.5746 17.474H31.5776V18.573H48.5746V17.474Z" fill="#AEBFCE"/>
<path d="M48.5746 19.572H31.5776V20.674H48.5746V19.572Z" fill="#AEBFCE"/>
<path d="M48.5746 25.8739H31.5776V26.9729H48.5746V25.8739Z" fill="#AEBFCE"/>
<path d="M48.5746 27.974H31.5776V29.074H48.5746V27.974Z" fill="#AEBFCE"/>
<path d="M48.5746 30.073H31.5776V31.173H48.5746V30.073Z" fill="#AEBFCE"/>
<path d="M48.5746 34.2729H31.5776V35.371H48.5746V34.2729Z" fill="#AEBFCE"/>
<path d="M36.646 6.42493H34.459V30.6229L36.646 29.3949L38.831 30.6229V6.42493H36.646Z" fill="#1C4670"/>
<path d="M36.7608 60.555C36.7608 63.139 34.6648 65.233 32.0828 65.233C29.4988 65.233 27.4048 63.139 27.4048 60.555V54.851C27.4048 52.267 29.4988 50.173 32.0828 50.173C34.6648 50.173 36.7608 52.267 36.7608 54.851V60.555Z" fill="#768296"/>
<path d="M27.4048 54.8509V56.0019H32.0828V50.1719C29.4988 50.1729 27.4048 52.2669 27.4048 54.8509Z" fill="#AEBFCE"/>
<path d="M36.761 54.8508C36.761 52.2668 34.665 50.1729 32.083 50.1729V56.0029H36.761V54.8508Z" fill="url(#paint1_linear_134_5204)"/>
<path d="M36.761 54.8508C36.761 52.2668 34.665 50.1729 32.083 50.1729V56.0029H36.761V54.8508Z" fill="#AEBFCE"/>
<path d="M32.7546 56.4119C32.7546 56.7819 32.4526 57.0819 32.0826 57.0819C31.7116 57.0819 31.4106 56.7819 31.4106 56.4119V55.5919C31.4106 55.2209 31.7116 54.9209 32.0826 54.9209C32.4526 54.9209 32.7546 55.2209 32.7546 55.5919V56.4119Z" fill="#1C4670"/>
<path d="M60.5839 5.60681C60.5839 5.60681 59.8129 4.65582 57.9949 5.31482C56.5799 5.82582 50.0639 11.6938 50.7559 14.2358C50.7559 14.2358 51.2759 14.3318 52.0129 12.7638C52.7509 11.1938 53.2089 10.3038 54.7439 8.77182C56.2759 7.23982 58.3849 5.73882 59.0819 6.42182L60.5839 5.60681Z" fill="#FFA229"/>
<path d="M55.5747 18.0129C51.6587 23.3199 46.7287 27.8439 45.4597 26.9089C44.1937 25.9719 47.0687 19.9289 50.9847 14.6229C54.9037 9.31888 60.3157 4.13789 61.5857 5.07389C62.8527 6.00989 59.4927 12.7079 55.5747 18.0129Z" fill="#1C4670"/>
<path d="M48.547 22.7289C47.925 22.2699 47.246 21.9629 46.566 21.8059C45.307 24.3879 44.775 26.3999 45.461 26.9089C46.15 27.4159 47.917 26.3109 50.015 24.3509C49.662 23.7479 49.171 23.1889 48.547 22.7289Z" fill="#FFA229"/>
<path d="M55.306 18.8339C54.952 19.3169 54.583 19.6479 54.041 19.2479L50.257 16.4539C49.716 16.0549 49.926 15.6049 50.279 15.1209C50.637 14.6419 51.005 14.3089 51.544 14.7089L55.33 17.5019C55.871 17.9029 55.662 18.3519 55.306 18.8339Z" fill="url(#paint2_linear_134_5204)"/>
<path d="M45.8549 26.3749C45.6339 26.2129 45.3929 26.1039 45.1529 26.0469C44.7099 26.9619 44.5199 27.6739 44.7629 27.8539C45.0049 28.0339 45.6299 27.6429 46.3739 26.9499C46.2509 26.7349 46.0749 26.5369 45.8549 26.3749Z" fill="url(#paint3_linear_134_5204)"/>
<path d="M55.306 18.8339C54.952 19.3169 54.583 19.6479 54.041 19.2479L50.257 16.4539C49.716 16.0549 49.926 15.6049 50.279 15.1209C50.637 14.6419 51.005 14.3089 51.544 14.7089L55.33 17.5019C55.871 17.9029 55.662 18.3519 55.306 18.8339Z" fill="#FFA229"/>
<path d="M1.32471 18.612C1.32471 18.612 1.93971 17.854 3.38871 18.379C4.51571 18.786 9.70871 23.4641 9.15871 25.4901C9.15871 25.4901 8.74371 25.565 8.15671 24.316C7.56771 23.065 7.20271 22.3551 5.97771 21.134C4.75771 19.912 3.07771 18.717 2.52071 19.26L1.32471 18.612Z" fill="#FFA229"/>
<path d="M5.31679 28.499C8.43879 32.729 12.3678 36.334 13.3788 35.591C14.3878 34.844 12.0968 30.028 8.97579 25.798C5.85179 21.57 1.53778 17.442 0.527785 18.188C-0.482215 18.933 2.19379 24.272 5.31679 28.499Z" fill="#1C4670"/>
<path d="M10.919 32.259C11.415 31.892 11.956 31.648 12.498 31.522C13.502 33.581 13.925 35.186 13.379 35.591C12.83 35.994 11.423 35.114 9.75 33.552C10.03 33.071 10.422 32.625 10.919 32.259Z" fill="#FFA229"/>
<path d="M5.53199 29.154C5.81499 29.538 6.10799 29.802 6.53999 29.484L9.55599 27.257C9.98799 26.939 9.82099 26.581 9.53799 26.195C9.25299 25.812 8.95999 25.548 8.52999 25.866L5.51299 28.093C5.08199 28.413 5.24799 28.769 5.53199 29.154Z" fill="url(#paint4_linear_134_5204)"/>
<path d="M13.0649 35.164C13.2389 35.036 13.4309 34.948 13.6229 34.903C13.9769 35.632 14.1279 36.199 13.9339 36.343C13.7419 36.486 13.2429 36.1759 12.6509 35.6219C12.7499 35.4509 12.8889 35.293 13.0649 35.164Z" fill="#1C4670"/>
<path d="M5.53199 29.154C5.81499 29.538 6.10799 29.802 6.53999 29.484L9.55599 27.257C9.98799 26.939 9.82099 26.581 9.53799 26.195C9.25299 25.812 8.95999 25.548 8.52999 25.866L5.51299 28.093C5.08199 28.413 5.24799 28.769 5.53199 29.154Z" fill="#FFA229"/>
<defs>
<linearGradient id="paint0_linear_134_5204" x1="29.2778" y1="36.2973" x2="29.2778" y2="4.50093" gradientUnits="userSpaceOnUse">
<stop stop-color="#CDEFFA"/>
<stop offset="1" stop-color="#FAFAFA"/>
</linearGradient>
<linearGradient id="paint1_linear_134_5204" x1="34.4219" y1="56.0023" x2="34.4219" y2="50.1728" gradientUnits="userSpaceOnUse">
<stop stop-color="#CDEFFA"/>
<stop offset="1" stop-color="#FAFAFA"/>
</linearGradient>
<linearGradient id="paint2_linear_134_5204" x1="50.2786" y1="15.1215" x2="55.3056" y2="18.8331" gradientUnits="userSpaceOnUse">
<stop stop-color="#BDBDBD"/>
<stop offset="0.1172" stop-color="#ABABAB"/>
<stop offset="0.3225" stop-color="#919191"/>
<stop offset="0.5346" stop-color="#7F7F7F"/>
<stop offset="0.7556" stop-color="#747474"/>
<stop offset="1" stop-color="#707070"/>
</linearGradient>
<linearGradient id="paint3_linear_134_5204" x1="44.6981" y1="26.6623" x2="45.9202" y2="27.5646" gradientUnits="userSpaceOnUse">
<stop stop-color="#286891"/>
<stop offset="0.01" stop-color="#276790"/>
<stop offset="0.2403" stop-color="#1C5176"/>
<stop offset="0.4781" stop-color="#144264"/>
<stop offset="0.726" stop-color="#103959"/>
<stop offset="1" stop-color="#0E3655"/>
</linearGradient>
<linearGradient id="paint4_linear_134_5204" x1="9.53843" y1="26.1954" x2="5.53243" y2="29.1533" gradientUnits="userSpaceOnUse">
<stop stop-color="#BDBDBD"/>
<stop offset="0.1172" stop-color="#ABABAB"/>
<stop offset="0.3225" stop-color="#919191"/>
<stop offset="0.5346" stop-color="#7F7F7F"/>
<stop offset="0.7556" stop-color="#747474"/>
<stop offset="1" stop-color="#707070"/>
</linearGradient>
</defs>
</svg>
