<svg width="57" height="55" viewBox="0 0 57 55" fill="none" xmlns="http://www.w3.org/2000/svg">
<path d="M45.9208 12.605C32.2648 16.426 24.6178 0 24.6178 0C24.6178 0 16.9688 16.427 3.31282 12.605C3.31282 12.605 -0.51219 45.927 24.6178 54.668C49.7428 45.927 45.9208 12.605 45.9208 12.605Z" fill="#1C4670"/>
<path d="M24.618 49.804C8.11196 43.506 7.11694 23.774 7.32694 16.615C7.87394 16.674 8.41696 16.702 8.95096 16.702C16.639 16.702 21.88 10.954 24.618 6.90796C27.352 10.954 32.5919 16.702 40.2799 16.702C40.8129 16.702 41.3579 16.674 41.9009 16.615C42.1059 23.779 41.093 43.516 24.618 49.804Z" fill="#FFA229"/>
<path d="M41.081 54.3961C46.2233 54.3961 50.392 50.2274 50.392 45.0851C50.392 39.9427 46.2233 35.774 41.081 35.774C35.9387 35.774 31.77 39.9427 31.77 45.0851C31.77 50.2274 35.9387 54.3961 41.081 54.3961Z" fill="#768296"/>
<path d="M35.0908 40.6591L41.7908 49.485L47.3208 43.3651L41.7908 45.9271L35.0908 40.6591Z" fill="#FCD751"/>
<path d="M24.8107 28.354H8.30371C9.96071 36.498 14.1947 45.829 24.6167 49.804C24.6807 49.779 24.7427 49.747 24.8097 49.72V28.354H24.8107Z" fill="#FCD751"/>
<path d="M40.3178 16.701C40.8408 16.701 41.3708 16.673 41.9068 16.614C41.9848 19.301 41.8948 23.753 40.9018 28.603H24.8108V7.189C24.8778 7.096 24.5538 7.00098 24.6178 6.90698C27.2938 10.953 32.8028 16.701 40.3178 16.701Z" fill="#FCD751"/>
<path d="M54.1881 28.277H49.7261V33.634H54.1881V28.277Z" fill="#FFA229"/>
<path d="M56.265 28.681H47.6479L51.9569 23.025L56.265 28.681Z" fill="#FFA229"/>
<path d="M42.8149 5.5H39.6699V9.274H42.8149V5.5Z" fill="#FFA229"/>
<path d="M44.277 5.78601H38.208L41.242 1.802L44.277 5.78601Z" fill="#FFA229"/>
<path d="M6.02164 45.209H2.01465V50.019H6.02164V45.209Z" fill="#FFA229"/>
<path d="M7.88788 45.5721H0.150879L4.01788 40.493L7.88788 45.5721Z" fill="#FFA229"/>
</svg>
