<svg width="59" height="60" viewBox="0 0 59 60" fill="none" xmlns="http://www.w3.org/2000/svg">
<path d="M33.3442 41.83H30.0952V45.728H33.3442V41.83Z" fill="#FFA229"/>
<path d="M34.854 42.123H28.582L31.719 38.006L34.854 42.123Z" fill="#FFA229"/>
<path d="M51.5658 27.165H48.9658V30.284H51.5658V27.165Z" fill="#FFA229"/>
<path d="M52.7739 27.4H47.7559L50.2659 24.106L52.7739 27.4Z" fill="#FFA229"/>
<path d="M38.3112 5.95703H36.7612V7.81802H38.3112V5.95703Z" fill="#FFA229"/>
<path d="M39.0331 6.09799H36.0371L37.5351 4.13098L39.0331 6.09799Z" fill="#FFA229"/>
<path d="M46.6884 32.4995L44.6074 29.7729L37.3222 35.3334L39.4031 38.0599L46.6884 32.4995Z" fill="#768296"/>
<path d="M48.5688 20.708L40.9492 9.06787L38.0793 10.9465L45.6989 22.5866L48.5688 20.708Z" fill="#768296"/>
<path d="M35.3082 31.949C29.7752 30.163 23.8422 33.203 22.0572 38.737C20.2722 44.27 23.3102 50.204 28.8432 51.989C34.3782 53.775 40.3112 50.7339 42.0952 45.2009C43.8802 39.6679 40.8432 33.734 35.3082 31.949ZM30.2342 47.677C27.0832 46.66 25.3512 43.2809 26.3682 40.1279C27.3852 36.9749 30.7652 35.243 33.9172 36.26C37.0702 37.28 38.8012 40.658 37.7832 43.811C36.7672 46.963 33.3892 48.693 30.2342 47.677Z" fill="#AEBFCE"/>
<path d="M52.6879 20.016C48.5409 18.678 44.0969 20.955 42.7589 25.102C41.4209 29.248 43.6969 33.693 47.8439 35.03C51.9909 36.367 56.4339 34.091 57.7719 29.945C59.1079 25.798 56.8329 21.354 52.6879 20.016ZM48.8859 31.799C46.5249 31.036 45.2269 28.505 45.9899 26.143C46.7519 23.781 49.2839 22.486 51.6449 23.248C54.0069 24.009 55.3039 26.54 54.5419 28.901C53.7799 31.265 51.2479 32.56 48.8859 31.799Z" fill="#AEBFCE"/>
<path d="M38.7179 1.01097C36.0089 0.357968 33.2879 2.02397 32.6359 4.72897C31.9829 7.43597 33.6479 10.157 36.3539 10.81C39.0599 11.463 41.7829 9.80096 42.4359 7.09196C43.0879 4.38696 41.4239 1.66397 38.7179 1.01097ZM36.8619 8.70097C35.3219 8.32897 34.3719 6.77896 34.7439 5.23596C35.1149 3.69596 36.6679 2.74997 38.2079 3.12097C39.7509 3.49197 40.6989 5.04197 40.3269 6.58397C39.9559 8.12697 38.4039 9.07297 36.8619 8.70097Z" fill="#AEBFCE"/>
<path d="M29.464 54.564C29.464 57.371 27.168 59.668 24.36 59.668H5.64597C2.83897 59.668 0.542969 57.371 0.542969 54.564V10.332C0.542969 7.52503 2.83897 5.22803 5.64597 5.22803H24.359C27.168 5.22803 29.463 7.52503 29.463 10.332V54.564H29.464Z" fill="#1C4670"/>
<path d="M26.489 12.459H3.521V49.035H26.489V12.459Z" fill="white"/>
<path d="M19.3989 8.91606C19.3989 9.30906 19.0809 9.62506 18.6889 9.62506H11.3179C10.9239 9.62506 10.6069 9.30906 10.6069 8.91606C10.6069 8.52306 10.9239 8.20605 11.3179 8.20605H18.6889C19.0809 8.20605 19.3989 8.52306 19.3989 8.91606Z" fill="white"/>
<path d="M15.0051 56.989C13.4711 56.989 12.2251 55.743 12.2251 54.21C12.2251 52.677 13.4711 51.429 15.0051 51.429C16.5381 51.429 17.7841 52.677 17.7841 54.21C17.7841 55.743 16.5381 56.989 15.0051 56.989ZM15.0051 52.344C13.9761 52.344 13.1391 53.181 13.1391 54.21C13.1391 55.238 13.9761 56.075 15.0051 56.075C16.0341 56.075 16.8701 55.238 16.8701 54.21C16.8701 53.181 16.0341 52.344 15.0051 52.344Z" fill="white"/>
<path d="M18.1299 22.563H11.8789V34.024H18.1299V22.563Z" fill="#768296"/>
<path d="M21.0387 23.127H8.96973L15.0047 15.2059L21.0387 23.127Z" fill="#768296"/>
<path d="M16.1872 32.1519C16.1802 32.3419 16.0612 32.4879 15.9202 32.4789L14.5862 32.4159C14.4462 32.4049 14.3422 32.2479 14.3522 32.0569L14.4052 30.9859C14.4162 30.7979 14.5362 30.6469 14.6772 30.6579L16.0092 30.7259C16.1492 30.7329 16.2522 30.8889 16.2422 31.0789L16.1872 32.1519Z" fill="#1C4670"/>
<path d="M15.6573 42.615C15.6663 42.427 15.5603 42.267 15.4213 42.262L14.0883 42.194C13.9493 42.187 13.8283 42.335 13.8183 42.523L13.7643 43.5969C13.7543 43.7849 13.8583 43.945 13.9973 43.951L15.3323 44.018C15.4723 44.025 15.5923 43.8769 15.6003 43.6919L15.6573 42.615Z" fill="#1C4670"/>
<path d="M13.437 32.255C13.522 32.423 13.493 32.611 13.367 32.674L12.181 33.283C12.057 33.344 11.885 33.262 11.799 33.095L11.309 32.136C11.224 31.967 11.254 31.781 11.378 31.714L12.566 31.109C12.691 31.044 12.861 31.129 12.946 31.298L13.437 32.255Z" fill="#1C4670"/>
<path d="M18.2099 41.5829C18.1219 41.4129 17.9529 41.3299 17.8279 41.3909L16.6399 42.0009C16.5139 42.0639 16.4849 42.252 16.5679 42.42L17.0579 43.3799C17.1459 43.5479 17.3169 43.6339 17.4419 43.5689L18.6289 42.9579C18.7539 42.8949 18.7849 42.7089 18.6989 42.5399L18.2099 41.5829Z" fill="#1C4670"/>
<path d="M11.1059 33.7209C11.2649 33.8209 11.3309 34.0009 11.2549 34.1169L10.5289 35.2389C10.4529 35.3559 10.2619 35.3689 10.1039 35.2639L9.20194 34.6799C9.04594 34.5769 8.97394 34.3999 9.05394 34.2819L9.77894 33.1589C9.85294 33.0449 10.0439 33.0319 10.2029 33.1349L11.1059 33.7209Z" fill="#1C4670"/>
<path d="M19.9011 39.4109C19.7421 39.3089 19.5521 39.3199 19.4761 39.4359L18.7511 40.5589C18.6771 40.6729 18.7421 40.8549 18.9021 40.9559L19.8021 41.5379C19.9611 41.6419 20.1531 41.6329 20.2291 41.5119L20.9541 40.3929C21.0281 40.2789 20.9641 40.0969 20.8041 39.9949L19.9011 39.4109Z" fill="#1C4670"/>
<path d="M9.81814 36.1519C10.0061 36.1629 10.1561 36.2839 10.1481 36.4229L10.0791 37.7559C10.0721 37.8959 9.91314 37.9979 9.72514 37.9909L8.65014 37.9349C8.46214 37.9239 8.31414 37.8039 8.32314 37.6639L8.39014 36.3309C8.39614 36.1899 8.55514 36.0859 8.74414 36.0959L9.81814 36.1519Z" fill="#1C4670"/>
<path d="M20.2841 36.687C20.0951 36.676 19.9341 36.779 19.9281 36.92L19.8611 38.252C19.8541 38.392 20.0021 38.513 20.1911 38.523L21.2641 38.578C21.4531 38.586 21.6111 38.4829 21.6191 38.3439L21.6851 37.01C21.6941 36.87 21.5441 36.7499 21.3581 36.7399L20.2841 36.687Z" fill="#1C4670"/>
<path d="M9.92132 38.9029C10.0883 38.8169 10.2763 38.8499 10.3423 38.9729L10.9483 40.1629C11.0113 40.2849 10.9273 40.4579 10.7593 40.5419L9.80231 41.0299C9.63631 41.1189 9.44831 41.0869 9.38331 40.9609L8.77431 39.7739C8.71131 39.6509 8.79531 39.4779 8.96531 39.3929L9.92132 38.9029Z" fill="#1C4670"/>
<path d="M19.249 34.1349C19.08 34.2189 18.996 34.3899 19.06 34.5139L19.667 35.7019C19.73 35.8259 19.919 35.8579 20.086 35.7729L21.044 35.2809C21.212 35.1969 21.298 35.0269 21.235 34.9009L20.627 33.7119C20.564 33.5889 20.376 33.5579 20.206 33.6439L19.249 34.1349Z" fill="#1C4670"/>
<path d="M11.3862 41.2379C11.4892 41.0769 11.6662 41.0089 11.7842 41.0849L12.9042 41.8109C13.0212 41.8869 13.0342 42.0789 12.9312 42.2369L12.3442 43.1399C12.2422 43.2979 12.0642 43.3649 11.9462 43.2889L10.8272 42.5619C10.7092 42.4879 10.6992 42.2959 10.8002 42.1379L11.3862 41.2379Z" fill="#1C4670"/>
<path d="M17.0769 32.441C16.9749 32.598 16.9859 32.786 17.1039 32.864L18.2259 33.589C18.3409 33.662 18.5199 33.599 18.6219 33.44L19.2079 32.536C19.3109 32.38 19.2989 32.188 19.1809 32.114L18.0599 31.386C17.9439 31.312 17.7639 31.379 17.6639 31.536L17.0769 32.441Z" fill="#1C4670"/>
<path d="M15.2893 31.7169C12.1853 31.5599 9.54234 33.9479 9.38534 37.0529C9.22734 40.1559 11.6143 42.7979 14.7183 42.9579C17.8223 43.1169 20.4663 40.7279 20.6243 37.6239C20.7823 34.5199 18.3943 31.8779 15.2893 31.7169ZM14.8163 41.0379C12.7713 40.9339 11.2003 39.1909 11.3033 37.1489C11.4073 35.1049 13.1493 33.5319 15.1913 33.6379C17.2343 33.7399 18.8103 35.4799 18.7053 37.5239C18.6003 39.5689 16.8613 41.1429 14.8163 41.0379Z" fill="#1C4670"/>
<path d="M15.0029 41.776C17.4534 41.776 19.4399 39.7894 19.4399 37.339C19.4399 34.8885 17.4534 32.902 15.0029 32.902C12.5524 32.902 10.5659 34.8885 10.5659 37.339C10.5659 39.7894 12.5524 41.776 15.0029 41.776Z" fill="#FCD751"/>
<path d="M15.0039 40.881C16.9601 40.881 18.5459 39.2952 18.5459 37.339C18.5459 35.3828 16.9601 33.797 15.0039 33.797C13.0477 33.797 11.4619 35.3828 11.4619 37.339C11.4619 39.2952 13.0477 40.881 15.0039 40.881Z" fill="#FFA229"/>
<path d="M15.0048 40.2119C16.5916 40.2119 17.8778 38.9256 17.8778 37.3389C17.8778 35.7522 16.5916 34.4659 15.0048 34.4659C13.4181 34.4659 12.1318 35.7522 12.1318 37.3389C12.1318 38.9256 13.4181 40.2119 15.0048 40.2119Z" fill="#FCD751"/>
<path d="M14.7308 39.156C14.5408 39.15 14.3748 39.13 14.2298 39.095C14.0858 39.063 13.9738 39.021 13.8938 38.98L14.0878 38.404C14.1488 38.442 14.2338 38.477 14.3418 38.51C14.4498 38.542 14.5788 38.568 14.7308 38.578V37.562C14.6268 37.516 14.5248 37.464 14.4218 37.406C14.3198 37.35 14.2298 37.282 14.1488 37.202C14.0698 37.121 14.0048 37.024 13.9558 36.915C13.9068 36.801 13.8848 36.668 13.8848 36.515C13.8848 36.228 13.9588 36.004 14.1128 35.845C14.2628 35.686 14.4708 35.584 14.7318 35.538V35.08H15.2538V35.517C15.3998 35.528 15.5278 35.548 15.6388 35.576C15.7478 35.607 15.8508 35.642 15.9448 35.681L15.7648 36.235C15.7078 36.208 15.6358 36.181 15.5478 36.155C15.4618 36.127 15.3628 36.107 15.2538 36.094V37.036C15.3568 37.083 15.4618 37.136 15.5668 37.193C15.6718 37.254 15.7648 37.322 15.8468 37.401C15.9278 37.482 15.9968 37.576 16.0488 37.685C16.0998 37.793 16.1238 37.924 16.1238 38.074C16.1238 38.381 16.0488 38.622 15.8918 38.793C15.7368 38.965 15.5238 39.075 15.2538 39.126V39.593H14.7318V39.156H14.7308ZM14.5368 36.459C14.5368 36.56 14.5748 36.644 14.6518 36.711C14.7328 36.777 14.8288 36.839 14.9468 36.898V36.083C14.7908 36.087 14.6798 36.127 14.6248 36.197C14.5638 36.266 14.5368 36.354 14.5368 36.459ZM15.4728 38.145C15.4728 38.041 15.4308 37.952 15.3448 37.885C15.2608 37.819 15.1578 37.755 15.0358 37.697V38.579C15.1838 38.563 15.2938 38.517 15.3658 38.442C15.4368 38.366 15.4728 38.268 15.4728 38.145Z" fill="#FFA229"/>
</svg>
