<svg width="55" height="66" viewBox="0 0 55 66" fill="none" xmlns="http://www.w3.org/2000/svg">
<path d="M44.6029 36.746C44.2779 36.728 43.9809 36.513 43.8749 36.184C43.7359 35.757 43.9719 35.3 44.3969 35.161C45.1029 34.932 46.5329 34.335 47.6459 33.522C47.4679 33.36 47.2999 33.181 47.1469 32.984C46.2969 31.895 46.1529 30.704 46.7609 29.796C47.2949 28.996 48.3009 28.612 49.2109 28.866C50.1519 29.128 50.7499 29.987 50.8049 31.166C50.8379 31.834 50.6619 32.442 50.3539 32.99C50.8209 33.017 51.2779 32.923 51.6559 32.751C52.7239 32.264 53.2199 31.25 52.9829 30.038C52.8969 29.599 53.1849 29.172 53.6249 29.085C54.0669 28.999 54.4919 29.287 54.5779 29.727C54.9579 31.668 54.0749 33.434 52.3299 34.229C51.2979 34.7 50.1689 34.74 49.1609 34.407C47.5509 35.812 45.2849 36.582 44.8959 36.707C44.7989 36.74 44.6999 36.751 44.6029 36.746ZM48.6749 30.415C48.4659 30.404 48.2349 30.516 48.1119 30.699C47.9119 31.001 48.0269 31.47 48.4289 31.985C48.5479 32.137 48.6779 32.272 48.8139 32.387C49.0609 32.023 49.2039 31.64 49.1839 31.243C49.1709 30.978 49.1019 30.522 48.7769 30.431C48.7429 30.421 48.7089 30.417 48.6749 30.415Z" fill="#FCD751"/>
<path d="M16.6653 54.105C16.0313 56.483 14.8173 56.969 13.8023 56.969C11.5763 56.969 10.1493 56.678 9.77129 54.105L9.46729 48.554C9.46729 46.328 11.5763 45.88 13.8023 45.88C16.0293 45.88 17.8323 47.684 17.8323 49.91L16.6653 54.105Z" fill="#FCD751"/>
<path d="M34.0269 54.105C34.6599 56.483 35.8739 56.969 36.8899 56.969C39.1159 56.969 40.5429 56.678 40.9209 54.105L41.2249 48.554C41.2249 46.328 39.1159 45.88 36.8899 45.88C34.6629 45.88 32.8589 47.684 32.8589 49.91L34.0269 54.105Z" fill="#FCD751"/>
<path d="M8.06308 40.7139C8.06308 42.6959 6.33208 44.3029 4.19708 44.3029C2.06108 44.3029 0.330078 42.6959 0.330078 40.7139V36.2999C0.330078 34.3179 2.06108 32.7109 4.19708 32.7109C6.33208 32.7109 8.06308 34.3179 8.06308 36.2999V40.7139Z" fill="#FCD751"/>
<path d="M25.3472 20.6979C21.0172 20.6979 16.9932 21.7339 13.6352 23.5099L9.10918 20.6659C8.00418 19.6679 5.59919 19.5909 4.60019 20.6989C3.59919 21.8049 4.38319 23.6729 5.49019 24.6709L8.16518 27.6929C5.62218 30.4859 4.11719 33.9209 4.11719 37.6369C4.11719 46.9899 13.6222 54.5739 25.3472 54.5739C37.0722 54.5739 46.5752 46.9899 46.5752 37.6369C46.5742 28.2809 37.0712 20.6979 25.3472 20.6979Z" fill="#FCD751"/>
<path d="M11.302 34.2419C12.1475 34.2419 12.833 33.5565 12.833 32.7109C12.833 31.8654 12.1475 31.1799 11.302 31.1799C10.4565 31.1799 9.771 31.8654 9.771 32.7109C9.771 33.5565 10.4565 34.2419 11.302 34.2419Z" fill="#FFA229"/>
<path d="M35.284 25.916C35.034 26.426 34.417 26.645 33.884 26.429C28.514 24.221 22.178 24.221 16.808 26.429C16.275 26.644 15.658 26.426 15.409 25.916C15.161 25.407 15.418 24.774 16.011 24.535C21.877 22.115 28.817 22.115 34.684 24.535C35.274 24.774 35.532 25.407 35.284 25.916Z" fill="#FFA229"/>
<path d="M17.2412 0.76297V24.071V26.263C17.7352 26.073 18.2352 25.897 18.7432 25.743C19.1732 25.613 19.6072 25.495 20.0452 25.392C23.6002 24.547 27.3842 24.571 30.9262 25.459C31.3632 25.57 31.7972 25.695 32.2272 25.833C32.7352 25.993 33.2362 26.17 33.7292 26.369V24.169V0.761963H17.2412V0.76297Z" fill="#AEBFCE"/>
<path d="M18.7432 2.42798V23.608V25.743C19.1732 25.613 19.6072 25.495 20.0452 25.392V23.288V5.45499C20.1182 5.46499 20.1912 5.47699 20.2682 5.47699C21.1112 5.47699 21.7932 4.79398 21.7932 3.95198C21.7932 3.87598 21.7802 3.80198 21.7712 3.72798H29.2012C29.1892 3.80198 29.1782 3.87598 29.1782 3.95198C29.1782 4.79398 29.8622 5.47699 30.7022 5.47699C30.7792 5.47699 30.8522 5.46399 30.9272 5.45499V23.349V25.459C31.3642 25.57 31.7982 25.695 32.2282 25.833V23.682V2.42798H18.7432Z" fill="#768296"/>
<path d="M27.0224 14.772C26.8214 14.772 26.6564 14.853 26.5264 15.015C26.3984 15.177 26.2794 15.375 26.1724 15.603H27.8544C27.8244 15.323 27.7364 15.114 27.5894 14.978C27.4454 14.841 27.2564 14.772 27.0224 14.772Z" fill="#768296"/>
<path d="M23.3069 16.3919C23.4419 16.5029 23.6089 16.5589 23.8079 16.5589C23.9999 16.5589 24.1609 16.4829 24.2879 16.3349C24.4159 16.1849 24.5349 15.9989 24.6439 15.7739H23.0859C23.0989 16.0759 23.1729 16.2789 23.3069 16.3919Z" fill="#768296"/>
<path d="M25.4833 10.775C22.7833 10.775 20.5923 12.964 20.5923 15.666C20.5923 18.367 22.7823 20.557 25.4833 20.557C28.1873 20.557 30.3763 18.368 30.3763 15.666C30.3763 12.964 28.1883 10.775 25.4833 10.775ZM29.7853 16.187H28.9543C28.9403 16.549 28.9013 16.868 28.8373 17.142C28.7733 17.416 28.6973 17.63 28.6123 17.783L27.5193 17.41C27.5893 17.295 27.6573 17.136 27.7193 16.928C27.7833 16.72 27.8273 16.473 27.8533 16.187H25.9143C25.8263 16.383 25.7273 16.579 25.6183 16.775C25.5103 16.969 25.3803 17.142 25.2263 17.295C25.0733 17.447 24.8903 17.57 24.6773 17.663C24.4633 17.755 24.2103 17.802 23.9173 17.802C23.3683 17.802 22.9423 17.656 22.6423 17.367C22.3383 17.077 22.1433 16.683 22.0543 16.187H21.1843V15.193H22.0153C22.0343 14.912 22.0733 14.668 22.1293 14.457C22.1863 14.247 22.2523 14.053 22.3273 13.874L23.3813 14.218C23.3303 14.327 23.2793 14.464 23.2293 14.628C23.1783 14.795 23.1403 14.983 23.1153 15.193H24.9113C25.0003 14.996 25.1013 14.797 25.2133 14.597C25.3243 14.394 25.4563 14.217 25.6093 14.061C25.7613 13.905 25.9423 13.778 26.1483 13.679C26.3553 13.58 26.6023 13.531 26.8883 13.531C27.4753 13.531 27.9313 13.679 28.2593 13.975C28.5883 14.272 28.8003 14.677 28.8953 15.193H29.7853V16.187Z" fill="#768296"/>
<path d="M42.0144 57.135C41.9034 55.399 41.2634 53.811 40.2534 52.527C38.8014 50.446 35.7894 48.907 35.7884 47.113C35.7864 45.32 38.7994 43.776 40.2454 41.694C41.2554 40.407 41.8924 38.819 42.0024 37.085C42.0044 37.06 42.0084 37.037 42.0084 37.011C42.0174 36.856 42.0224 36.698 42.0244 36.542C42.0214 31.929 38.2794 29.097 33.6674 29.099C29.0534 29.101 25.3164 31.937 25.3154 36.55C25.3164 36.574 25.3174 36.596 25.3194 36.619C25.3224 36.75 25.3244 36.883 25.3334 37.015C25.3334 37.049 25.3384 37.082 25.3414 37.116C25.4564 38.836 26.0934 40.417 27.0974 41.697C28.5464 43.78 31.5624 45.321 31.5624 47.114C31.5644 48.911 28.5504 50.451 27.1054 52.535C26.1004 53.817 25.4654 55.398 25.3514 57.122C25.3494 57.154 25.3444 57.186 25.3414 57.221C25.3344 57.354 25.3334 57.486 25.3314 57.617C25.3314 57.64 25.3294 57.662 25.3274 57.688C25.3314 62.296 29.0714 65.132 33.6854 65.13C38.2984 65.125 42.0364 62.291 42.0364 57.675C42.0344 57.518 42.0294 57.362 42.0184 57.206C42.0204 57.182 42.0164 57.158 42.0144 57.135Z" fill="#768296"/>
<path d="M40.3711 61.917C40.3701 59.275 36.9961 56.32 33.6811 56.322C30.3641 56.322 26.9931 59.283 26.9941 61.926C26.9941 64.566 30.3681 64.83 33.6841 64.83C37.0021 64.828 40.3721 64.562 40.3711 61.917Z" fill="#FFA229"/>
<path d="M34.8852 46.353C34.8832 44.871 36.1352 43.737 37.4652 42.535C38.2142 41.859 38.9882 41.16 39.5012 40.419L39.5312 40.378C40.0722 39.689 40.4792 38.918 40.7442 38.099L26.5972 38.107C26.8662 38.922 27.2712 39.69 27.8082 40.378L27.8402 40.422C28.3552 41.161 29.1302 41.86 29.8832 42.537C31.2112 43.738 32.4662 44.871 32.4672 46.355C32.4682 47.84 34.8842 47.84 34.8852 46.353Z" fill="#FFA229"/>
<path d="M33.2024 56.323C32.9054 56.297 32.6534 56.259 32.4394 56.201C32.2274 56.148 32.0604 56.068 31.9324 55.988L32.2494 54.976C32.3404 55.056 32.4664 55.119 32.6344 55.175C32.8034 55.232 32.9884 55.274 33.2064 55.302L33.2164 53.262C33.0564 53.166 32.9004 53.052 32.7434 52.944C32.5894 52.83 32.4514 52.691 32.3284 52.541C32.2074 52.386 32.1064 52.209 32.0364 51.999C31.9534 51.804 31.9204 51.562 31.9204 51.28C31.9224 50.79 32.0404 50.419 32.2764 50.133C32.5154 49.848 32.8354 49.668 33.2344 49.586L33.2364 48.728L34.1254 48.747L34.1224 49.567C34.3364 49.587 34.5324 49.624 34.6964 49.677C34.8654 49.723 35.0254 49.781 35.1754 49.853L34.8584 50.823C34.7694 50.772 34.6654 50.719 34.5344 50.676C34.4104 50.638 34.2704 50.605 34.1194 50.582L34.1074 52.427C34.2704 52.522 34.4284 52.635 34.5884 52.76C34.7424 52.875 34.8904 53.003 35.0154 53.175C35.1394 53.323 35.2444 53.51 35.3244 53.707C35.4034 53.908 35.4454 54.14 35.4454 54.414C35.4414 54.945 35.3174 55.366 35.0744 55.667C34.8354 55.97 34.5034 56.184 34.0904 56.272L34.0874 57.146L33.2014 57.136L33.2024 56.323ZM33.6224 50.559C33.3954 50.583 33.2424 50.663 33.1594 50.797C33.0734 50.92 33.0334 51.071 33.0334 51.213C33.0334 51.412 33.0864 51.588 33.1964 51.72C33.3104 51.848 33.4504 51.975 33.6144 52.102L33.6224 50.559ZM33.7124 55.304C33.9104 55.258 34.0634 55.186 34.1604 55.034C34.2594 54.893 34.3084 54.718 34.3124 54.503C34.3134 54.294 34.2584 54.115 34.1484 53.976C34.0354 53.837 33.8944 53.694 33.7194 53.591L33.7124 55.304Z" fill="#FFA229"/>
<path d="M43.7974 63.399C43.7964 62.378 42.9714 61.551 41.9464 61.551L25.4204 61.559C24.3944 61.559 23.5684 62.39 23.5684 63.41C23.5684 64.43 24.3974 65.256 25.4214 65.258L41.9494 65.25C42.9744 65.248 43.7964 64.418 43.7974 63.399Z" fill="#1C4670"/>
<path d="M43.7603 30.816C43.7583 29.795 42.9333 28.969 41.9083 28.969L25.3813 28.978C24.3563 28.978 23.5303 29.806 23.5303 30.827C23.5303 31.847 24.3583 32.675 25.3843 32.677L41.9113 32.669C42.9363 32.666 43.7593 31.837 43.7603 30.816Z" fill="#1C4670"/>
</svg>
