<svg width="43" height="66" viewBox="0 0 43 66" fill="none" xmlns="http://www.w3.org/2000/svg">
<path d="M2.50586 24.3517C6.65286 26.2367 12.1639 27.3827 18.2129 27.3827C24.2649 27.3827 29.7759 26.2367 33.9239 24.3517C29.7769 22.4677 24.2649 21.3197 18.2129 21.3197C12.1639 21.3197 6.65286 22.4687 2.50586 24.3517Z" fill="#E6AE7E"/>
<path d="M21.2327 3.81468C21.2107 4.29468 20.9037 4.66869 20.5477 4.65369L17.1488 4.48069C16.7918 4.45969 16.5257 4.05768 16.5487 3.57668L16.6857 0.838687C16.7107 0.357687 17.0198 -0.0183105 17.3778 0.000689536L20.7727 0.173678C21.1267 0.189678 21.3967 0.592678 21.3707 1.07668L21.2327 3.81468Z" fill="#AEBFCE"/>
<path d="M19.8776 30.4827C19.9006 29.9997 19.6336 29.5937 19.2806 29.5777L15.8806 29.4097C15.5266 29.3867 15.2186 29.7657 15.1926 30.2447L15.0536 32.9857C15.0306 33.4657 15.2946 33.8707 15.6516 33.8887L19.0536 34.0577C19.4076 34.0787 19.7136 33.7027 19.7366 33.2227L19.8776 30.4827Z" fill="#AEBFCE"/>
<path d="M14.2197 4.07764C14.4387 4.50564 14.3647 4.98063 14.0447 5.14363L11.0147 6.69363C10.7017 6.85363 10.2667 6.63963 10.0447 6.21263L8.7957 3.77063C8.5767 3.34163 8.65468 2.86564 8.96968 2.70264L12.0007 1.15364C12.3177 0.987639 12.7537 1.20864 12.9707 1.63264L14.2197 4.07764Z" fill="#AEBFCE"/>
<path d="M26.3821 27.8497C26.1621 27.4177 25.7311 27.2027 25.4121 27.3647L22.3851 28.9157C22.0661 29.0757 21.9881 29.5577 22.2031 29.9857L23.4541 32.4257C23.6741 32.8567 24.1081 33.0717 24.4271 32.9087L27.456 31.3587C27.771 31.1937 27.8521 30.7167 27.6311 30.2877L26.3821 27.8497Z" fill="#AEBFCE"/>
<path d="M8.27675 7.80768C8.68475 8.06768 8.85374 8.52469 8.66374 8.82169L6.81276 11.6787C6.61576 11.9787 6.13474 12.0067 5.72774 11.7447L3.42973 10.2537C3.02773 9.99268 2.85375 9.53768 3.04775 9.24068L4.89675 6.38168C5.08675 6.08568 5.57276 6.05469 5.97576 6.31769L8.27675 7.80768Z" fill="#AEBFCE"/>
<path d="M30.696 22.3127C30.293 22.0537 29.805 22.0837 29.615 22.3797L27.769 25.2377C27.575 25.5357 27.743 25.9907 28.15 26.2537L30.452 27.7407C30.854 28.0047 31.342 27.9737 31.535 27.6737L33.38 24.8187C33.575 24.5237 33.404 24.0687 32.998 23.8057L30.696 22.3127Z" fill="#AEBFCE"/>
<path d="M4.99685 14.0107C5.47885 14.0367 5.85686 14.3427 5.83886 14.6977L5.66385 18.0957C5.64585 18.4497 5.24085 18.7187 4.76285 18.6957L2.02286 18.5557C1.54086 18.5307 1.16387 18.2227 1.18387 17.8657L1.35684 14.4717C1.37484 14.1147 1.77885 13.8477 2.25985 13.8737L4.99685 14.0107Z" fill="#AEBFCE"/>
<path d="M31.67 15.3677C31.188 15.3427 30.779 15.6087 30.765 15.9647L30.592 19.3607C30.573 19.7167 30.95 20.0277 31.432 20.0487L34.168 20.1907C34.651 20.2127 35.055 19.9457 35.074 19.5897L35.245 16.1927C35.264 15.8367 34.885 15.5307 34.406 15.5047L31.67 15.3677Z" fill="#AEBFCE"/>
<path d="M5.25985 21.0237C5.68985 20.8047 6.16385 20.8807 6.32985 21.1987L7.87883 24.2287C8.04083 24.5437 7.82383 24.9797 7.39583 25.1987L4.95385 26.4477C4.52785 26.6687 4.05184 26.5887 3.88384 26.2707L2.33583 23.2427C2.17283 22.9277 2.39084 22.4907 2.81984 22.2717L5.25985 21.0237Z" fill="#AEBFCE"/>
<path d="M29.0319 8.86166C28.6049 9.08266 28.3889 9.51466 28.5509 9.83166L30.0999 12.8587C30.2599 13.1757 30.7409 13.2567 31.1679 13.0377L33.6099 11.7897C34.0389 11.5707 34.2539 11.1357 34.0889 10.8177L32.5429 7.78866C32.3819 7.47366 31.9019 7.39366 31.4729 7.61266L29.0319 8.86166Z" fill="#AEBFCE"/>
<path d="M8.98892 26.9657C9.25492 26.5607 9.70692 26.3897 10.0059 26.5827L12.8629 28.4297C13.1599 28.6247 13.1939 29.1117 12.9299 29.5157L11.4379 31.8187C11.1759 32.2197 10.7209 32.3927 10.4219 32.1977L7.5679 30.3507C7.2669 30.1557 7.2409 29.6727 7.4989 29.2697L8.98892 26.9657Z" fill="#AEBFCE"/>
<path d="M23.4969 4.54663C23.2359 4.95063 23.2669 5.43464 23.5669 5.62964L26.4249 7.47564C26.7199 7.66964 27.1749 7.50065 27.4359 7.09565L28.9279 4.79264C29.1879 4.38764 29.1569 3.90464 28.8609 3.71164L26.0029 1.86164C25.7039 1.67064 25.2519 1.83964 24.9879 2.24164L23.4969 4.54663Z" fill="#AEBFCE"/>
<path d="M18.941 2.70464C11.031 2.30364 4.29097 8.39264 3.89197 16.3006C3.48897 24.2106 9.57197 30.9506 17.487 31.3536C25.396 31.7556 32.133 25.6676 32.537 17.7576C32.94 9.84664 26.854 3.10864 18.941 2.70464ZM29.813 17.6186C29.487 24.0246 24.031 28.9536 17.626 28.6306C11.216 28.3036 6.28997 22.8456 6.61597 16.4396C6.93997 10.0376 12.398 5.10464 18.803 5.43164C25.21 5.75664 30.139 11.2116 29.813 17.6186Z" fill="#768296"/>
<path d="M33.9501 37.0527H33.6411C33.7721 35.9827 33.9071 34.9307 34.0351 33.9327C34.3101 31.8287 34.7231 28.0737 33.8971 24.3657C29.7521 26.2407 24.2521 27.3847 18.2131 27.3847C12.1781 27.3847 6.67609 26.2407 2.53209 24.3657C1.70409 28.0737 2.11806 31.8287 2.39106 33.9327C2.52206 34.9307 2.65709 35.9827 2.78709 37.0527H2.47407C-0.264928 35.0257 -0.495916 40.3197 0.648084 42.1287C1.59808 43.6257 1.61707 43.7907 2.18507 45.4397C2.60907 46.6587 3.30808 46.8167 3.89308 46.6857C3.96508 47.4077 4.02909 48.0357 4.07609 48.5357C4.32709 51.3177 11.0141 56.8907 12.5321 58.6367C13.9491 60.2727 16.3201 59.6347 17.0781 59.6017C17.8491 59.5647 18.2121 59.5457 18.2121 59.5457C18.2121 59.5457 18.5771 59.5647 19.3441 59.6017C20.1051 59.6347 22.4741 60.2727 23.8951 58.6367C25.4111 56.8917 32.0971 51.3187 32.3511 48.5357C32.3981 48.0357 32.4611 47.4077 32.5331 46.6857C33.1201 46.8167 33.8181 46.6587 34.2391 45.4397C34.8121 43.7917 34.8311 43.6267 35.7781 42.1287C36.9241 40.3187 36.6891 35.0247 33.9501 37.0527Z" fill="#F4C297"/>
<path d="M18.196 27.1267C15.862 27.1267 13.618 26.3257 11.792 24.8197C9.71202 23.1027 8.42404 20.6807 8.16504 17.9957L9.12003 17.9037C9.35403 20.3337 10.52 22.5267 12.402 24.0797C14.286 25.6337 16.662 26.3577 19.09 26.1247L19.181 27.0807C18.852 27.1107 18.523 27.1267 18.196 27.1267Z" fill="#768296"/>
<path d="M27.3091 16.1557C26.8261 11.1407 22.355 7.44169 17.34 7.93569L17.248 6.97968C22.781 6.45168 27.728 10.5217 28.264 16.0627L27.3091 16.1557Z" fill="#768296"/>
<path d="M18.315 45.4986C18.408 44.7516 18.775 45.1446 18.881 45.6846C18.986 46.2276 19.972 49.7696 22.688 47.0316C25.453 44.3426 21.918 43.3226 21.38 43.2116C20.841 43.0996 20.451 42.7296 21.199 42.6456C22.143 42.5396 24.053 42.4006 25.571 44.1746C27.177 46.0496 25.596 48.2206 24.725 49.0856C23.849 49.9486 21.663 51.5106 19.805 49.8886C18.045 48.3486 18.201 46.4426 18.315 45.4986Z" fill="#1C4670"/>
<path d="M38.4791 65.8516C39.2301 65.7656 38.8381 65.3976 38.2991 65.2876C37.7611 65.1756 34.2271 64.1556 36.9911 61.4666C39.7041 58.7266 40.6881 62.2716 40.7971 62.8116C40.9041 63.3506 41.2701 63.7456 41.3611 62.9966C41.4761 62.0556 41.6321 60.1456 39.8751 58.6116C38.0131 56.9876 35.8291 58.5476 34.9541 59.4116C34.0821 60.2766 32.5021 62.4486 34.1081 64.3236C35.6241 66.0966 37.5331 65.9586 38.4791 65.8516Z" fill="#1C4670"/>
<path d="M25.5541 47.6737L24.4272 48.7898L35.2537 59.7208L36.3805 58.6048L25.5541 47.6737Z" fill="#1C4670"/>
<path d="M34.1262 60.8132L35.2554 59.6938L24.4243 48.7674L23.2951 49.8868L34.1262 60.8132Z" fill="#1C4670"/>
<path d="M38.299 65.2877C38.838 65.3977 39.23 65.7667 38.479 65.8517C37.534 65.9577 35.625 66.0957 34.109 64.3227C32.503 62.4477 34.083 60.2756 34.955 59.4106L36.992 61.4666C34.227 64.1556 37.761 65.1757 38.299 65.2877Z" fill="#1C4670"/>
<path d="M19.806 49.8876C18.045 48.3496 18.202 46.4436 18.315 45.4986C18.408 44.7516 18.775 45.1446 18.881 45.6846C18.986 46.2276 19.9721 49.7696 22.6881 47.0316L24.726 49.0856C23.85 49.9476 21.664 51.5096 19.806 49.8876Z" fill="#1C4670"/>
<path d="M39.1742 44.9669L38.3071 44.0959L28.2925 54.0654L29.1595 54.9364L39.1742 44.9669Z" fill="#FCD751"/>
<path d="M29.1573 54.918L30.0195 55.791L40.0759 45.8591L39.2137 44.986L29.1573 54.918Z" fill="#FFA229"/>
<path d="M38.0657 46.0986C38.0657 46.0986 36.6837 44.2166 37.3707 43.5076C38.0577 42.7996 41.2327 41.3086 42.0567 42.1416L38.0657 46.0986Z" fill="#FCD751"/>
<path d="M38.0659 46.0986C38.0659 46.0986 39.9329 47.4966 40.6489 46.8156C41.3659 46.1366 42.8859 42.9766 42.0559 42.1416L38.0659 46.0986Z" fill="#FFA229"/>
<path d="M22.9429 64.2776C22.0519 65.1596 20.6139 65.1526 19.7299 64.2616C18.8469 63.3706 18.8539 61.9316 19.7459 61.0476L27.7489 53.1176C28.6419 52.2326 30.0819 52.2407 30.9649 53.1327C31.8489 54.0247 31.8409 55.4636 30.9489 56.3456L22.9429 64.2776Z" fill="#AEBFCE"/>
<path d="M20.7408 63.8637C20.5438 64.0577 20.2518 64.0787 20.0858 63.9097C19.9168 63.7447 19.9428 63.4497 20.1368 63.2557L29.0368 54.4397C29.2318 54.2487 29.5248 54.2247 29.6918 54.3927C29.8588 54.5607 29.8368 54.8537 29.6398 55.0467L20.7408 63.8637Z" fill="#768296"/>
<path d="M22.1358 64.3536C21.9398 64.5486 21.6458 64.5706 21.4808 64.4006C21.3138 64.2336 21.3378 63.9416 21.5338 63.7476L30.4338 54.9306C30.6278 54.7366 30.9208 54.7166 31.0878 54.8846C31.2548 55.0516 31.2318 55.3456 31.0338 55.5396L22.1358 64.3536Z" fill="#768296"/>
<path d="M19.6591 61.8556C19.4651 62.0516 19.4411 62.3436 19.6071 62.5106C19.7731 62.6786 20.0651 62.6576 20.2621 62.4636L29.1601 53.6476C29.3561 53.4546 29.3821 53.1606 29.2131 52.9926C29.0471 52.8236 28.7541 52.8466 28.5591 53.0406L19.6591 61.8556Z" fill="#768296"/>
<path d="M32.2889 56.0746C31.8459 56.5126 31.1329 56.5097 30.6939 56.0647L28.0289 53.3766C27.5909 52.9336 27.5939 52.2187 28.0379 51.7797C28.4789 51.3407 29.1919 51.3446 29.6319 51.7866L32.2959 54.4766C32.7349 54.9206 32.7319 55.6356 32.2889 56.0746Z" fill="#768296"/>
<path d="M32.166 55.5757C31.825 55.9137 31.246 55.8817 30.869 55.5007L28.596 53.2037C28.221 52.8257 28.192 52.2457 28.533 51.9107C28.874 51.5717 29.452 51.6057 29.826 51.9857L32.104 54.2817C32.477 54.6597 32.507 55.2397 32.166 55.5757Z" fill="#768296"/>
</svg>
