<svg width="64" height="69" viewBox="0 0 64 69" fill="none" xmlns="http://www.w3.org/2000/svg">
<path d="M32.9692 25.608C41.655 25.608 48.6962 20.0465 48.6962 13.186C48.6962 6.32555 41.655 0.764038 32.9692 0.764038C24.2834 0.764038 17.2422 6.32555 17.2422 13.186C17.2422 20.0465 24.2834 25.608 32.9692 25.608Z" fill="#AEBFCE"/>
<path d="M49.1252 24.725L39.3682 21.474L45.8731 14.968L49.1252 24.725Z" fill="#AEBFCE"/>
<path d="M15.957 24.725L25.714 21.474L19.209 14.968L15.957 24.725Z" fill="#AEBFCE"/>
<path d="M2.53223 42.258C5.58223 43.646 9.63622 44.4901 14.0832 44.4901C18.5342 44.4901 22.5882 43.646 25.6382 42.258C22.5882 40.874 18.5342 40.0291 14.0832 40.0291C9.63622 40.0291 5.58223 40.874 2.53223 42.258Z" fill="#E6AE7E"/>
<path d="M19.6841 36.9511C20.2961 35.9411 20.6491 34.7551 20.6491 33.4881C20.6491 29.7861 17.6461 26.7841 13.9471 26.7841C10.2451 26.7841 7.24512 29.7861 7.24512 33.4881C7.24512 34.7551 7.59614 35.9411 8.20914 36.9511C10.0201 40.1891 10.3891 40.9641 10.4081 42.4421C10.4431 44.6581 10.4081 46.4261 10.4081 46.4261H13.9471H17.4821C17.4821 46.4261 17.4491 44.6581 17.4821 42.4421C17.5051 40.9631 17.8711 40.1881 19.6841 36.9511Z" fill="#FCD751"/>
<path d="M13.9462 47.437H11.4312C11.8032 49.462 13.9462 49.462 13.9462 49.462C13.9462 49.462 16.0862 49.462 16.4582 47.437H13.9462Z" fill="#002254"/>
<path d="M18.5063 44.1451C18.5063 44.7881 17.9862 45.3091 17.3432 45.3091H10.5482C9.90625 45.3091 9.38525 44.7881 9.38525 44.1451C9.38525 43.5021 9.90625 42.9821 10.5482 42.9821H17.3432C17.9862 42.9821 18.5063 43.5021 18.5063 44.1451Z" fill="#768296"/>
<path d="M18.1419 43.917C18.1419 44.436 17.6629 44.853 17.0699 44.853H10.8189C10.2289 44.853 9.75195 44.436 9.75195 43.917C9.75195 43.401 10.2299 42.983 10.8189 42.983H17.0699C17.6619 42.982 18.1419 43.4 18.1419 43.917Z" fill="#AEBFCE"/>
<path d="M18.5063 46.425C18.5063 47.069 17.9862 47.59 17.3432 47.59H10.5482C9.90625 47.59 9.38525 47.069 9.38525 46.425C9.38525 45.781 9.90625 45.261 10.5482 45.261H17.3432C17.9862 45.262 18.5063 45.782 18.5063 46.425Z" fill="#768296"/>
<path d="M14.0849 22.019C14.3379 22.019 14.5459 22.2241 14.5459 22.4771V25.153C14.5459 25.404 14.3379 25.609 14.0849 25.609C13.8309 25.609 13.627 25.405 13.627 25.153V22.4771C13.627 22.2241 13.8309 22.019 14.0849 22.019Z" fill="#FFA229"/>
<path d="M8.00216 23.599C8.22116 23.472 8.50116 23.546 8.62716 23.766L9.96615 26.082C10.0931 26.3 10.0181 26.582 9.79815 26.707C9.57915 26.833 9.29915 26.759 9.17315 26.54L7.83416 24.224C7.71016 24.004 7.78316 23.723 8.00216 23.599Z" fill="#FFA229"/>
<path d="M3.52419 28.005C3.65219 27.787 3.93219 27.712 4.15019 27.838L6.4662 29.174C6.6852 29.301 6.7602 29.58 6.6342 29.802C6.5092 30.018 6.2292 30.094 6.0082 29.968L3.69219 28.63C3.47219 28.505 3.39719 28.226 3.52419 28.005Z" fill="#FFA229"/>
<path d="M1.85107 34.063C1.85107 33.809 2.05505 33.605 2.30905 33.605H4.98306C5.23706 33.605 5.44107 33.81 5.44107 34.063C5.44107 34.315 5.23706 34.519 4.98306 34.519H2.30905C2.05505 34.52 1.85107 34.316 1.85107 34.063Z" fill="#FFA229"/>
<path d="M3.42991 40.1461C3.30191 39.9271 3.3779 39.6481 3.5979 39.5201L5.91291 38.1831C6.13191 38.0551 6.41191 38.1301 6.53891 38.3511C6.66591 38.5701 6.58992 38.8501 6.37091 38.9771L4.05591 40.3131C3.83491 40.4391 3.55691 40.3651 3.42991 40.1461Z" fill="#FFA229"/>
<path d="M20.1691 23.599C19.9491 23.472 19.6691 23.546 19.5401 23.766L18.2041 26.082C18.0771 26.3 18.1511 26.582 18.3721 26.707C18.5921 26.833 18.8701 26.759 18.9991 26.54L20.3351 24.224C20.4631 24.004 20.3871 23.723 20.1691 23.599Z" fill="#FFA229"/>
<path d="M24.6462 28.005C24.5212 27.787 24.2413 27.712 24.0223 27.838L21.7052 29.174C21.4862 29.301 21.4122 29.58 21.5372 29.802C21.6622 30.018 21.9463 30.094 22.1653 29.968L24.4783 28.63C24.6983 28.505 24.7732 28.226 24.6462 28.005Z" fill="#FFA229"/>
<path d="M26.32 34.063C26.32 33.809 26.115 33.605 25.862 33.605H23.187C22.933 33.605 22.729 33.81 22.729 34.063C22.729 34.315 22.933 34.519 23.187 34.519H25.862C26.115 34.52 26.32 34.316 26.32 34.063Z" fill="#FFA229"/>
<path d="M24.7422 40.1461C24.8692 39.9271 24.7932 39.6481 24.5752 39.5201L22.2572 38.1831C22.0392 38.0551 21.7592 38.1301 21.6322 38.3511C21.5062 38.5701 21.5822 38.8501 21.8012 38.9771L24.1172 40.3131C24.3352 40.4391 24.6172 40.3651 24.7422 40.1461Z" fill="#FFA229"/>
<path d="M18.1419 46.199C18.1419 46.716 17.6629 47.135 17.0699 47.135H10.8189C10.2289 47.135 9.75195 46.716 9.75195 46.199C9.75195 45.681 10.2299 45.261 10.8189 45.261H17.0699C17.6619 45.262 18.1419 45.681 18.1419 46.199Z" fill="#AEBFCE"/>
<path d="M25.659 51.599H25.431C25.527 50.812 25.624 50.039 25.72 49.305C25.92 47.758 26.226 44.996 25.618 42.269C22.569 43.649 18.524 44.4901 14.082 44.4901C9.64396 44.4901 5.59895 43.649 2.55095 42.269C1.94395 44.996 2.24496 47.758 2.44796 49.305C2.54396 50.039 2.64197 50.813 2.73897 51.599H2.50997C0.495968 50.109 0.323944 54.003 1.16594 55.333C1.86294 56.434 1.87696 56.5551 2.29796 57.7681C2.60996 58.6641 3.12196 58.7811 3.55196 58.6841C3.60696 59.2141 3.65395 59.677 3.68895 60.043C3.87195 62.089 8.78997 66.19 9.90697 67.472C10.949 68.676 12.694 68.2071 13.251 68.1821C13.817 68.1561 14.0849 68.142 14.0849 68.142C14.0849 68.142 14.354 68.1561 14.917 68.1821C15.476 68.2071 17.219 68.676 18.265 67.472C19.379 66.19 24.295 62.09 24.484 60.043C24.517 59.677 24.563 59.2131 24.616 58.6841C25.049 58.7811 25.563 58.6631 25.871 57.7681C26.293 56.5551 26.308 56.434 27.005 55.333C27.845 54.003 27.672 50.109 25.659 51.599Z" fill="#F4C297"/>
<path d="M38.8428 42.239C41.8928 43.627 45.9468 44.471 50.3938 44.471C54.8448 44.471 58.8988 43.627 61.9488 42.239C58.8988 40.855 54.8448 40.01 50.3938 40.01C45.9468 40.01 41.8928 40.855 38.8428 42.239Z" fill="#E6AE7E"/>
<path d="M55.9947 36.932C56.6067 35.922 56.9597 34.736 56.9597 33.469C56.9597 29.767 53.9567 26.765 50.2577 26.765C46.5557 26.765 43.5557 29.767 43.5557 33.469C43.5557 34.736 43.9067 35.922 44.5197 36.932C46.3307 40.17 46.6997 40.945 46.7187 42.423C46.7537 44.639 46.7187 46.407 46.7187 46.407H50.2577H53.7927C53.7927 46.407 53.7597 44.639 53.7927 42.423C53.8157 40.944 54.1817 40.169 55.9947 36.932Z" fill="#FCD751"/>
<path d="M50.2567 47.418H47.7417C48.1137 49.443 50.2567 49.443 50.2567 49.443C50.2567 49.443 52.3967 49.443 52.7687 47.418H50.2567Z" fill="#002254"/>
<path d="M54.8168 44.126C54.8168 44.769 54.2968 45.29 53.6538 45.29H46.8588C46.2168 45.29 45.6958 44.769 45.6958 44.126C45.6958 43.483 46.2168 42.963 46.8588 42.963H53.6538C54.2968 42.963 54.8168 43.483 54.8168 44.126Z" fill="#768296"/>
<path d="M54.4525 43.898C54.4525 44.417 53.9735 44.834 53.3805 44.834H47.1295C46.5395 44.834 46.0625 44.417 46.0625 43.898C46.0625 43.382 46.5405 42.964 47.1295 42.964H53.3805C53.9725 42.963 54.4525 43.381 54.4525 43.898Z" fill="#AEBFCE"/>
<path d="M54.8168 46.4059C54.8168 47.0499 54.2968 47.5709 53.6538 47.5709H46.8588C46.2168 47.5709 45.6958 47.0499 45.6958 46.4059C45.6958 45.7619 46.2168 45.2419 46.8588 45.2419H53.6538C54.2968 45.2429 54.8168 45.7629 54.8168 46.4059Z" fill="#768296"/>
<path d="M50.3955 22C50.6485 22 50.8565 22.205 50.8565 22.458V25.134C50.8565 25.385 50.6485 25.59 50.3955 25.59C50.1415 25.59 49.9375 25.386 49.9375 25.134V22.458C49.9375 22.205 50.1415 22 50.3955 22Z" fill="#FFA229"/>
<path d="M44.3127 23.58C44.5317 23.453 44.8117 23.527 44.9377 23.747L46.2767 26.063C46.4037 26.281 46.3287 26.563 46.1087 26.688C45.8897 26.814 45.6097 26.74 45.4837 26.521L44.1447 24.205C44.0207 23.985 44.0937 23.704 44.3127 23.58Z" fill="#FFA229"/>
<path d="M39.8347 27.986C39.9627 27.768 40.2427 27.693 40.4607 27.819L42.7768 29.155C42.9958 29.282 43.0708 29.561 42.9448 29.783C42.8198 29.999 42.5397 30.075 42.3187 29.949L40.0027 28.611C39.7827 28.486 39.7077 28.207 39.8347 27.986Z" fill="#FFA229"/>
<path d="M38.1616 34.0439C38.1616 33.7899 38.3656 33.5859 38.6196 33.5859H41.2936C41.5476 33.5859 41.7516 33.7909 41.7516 34.0439C41.7516 34.2959 41.5476 34.4999 41.2936 34.4999H38.6196C38.3656 34.5009 38.1616 34.2969 38.1616 34.0439Z" fill="#FFA229"/>
<path d="M39.7405 40.127C39.6125 39.908 39.6885 39.629 39.9085 39.501L42.2235 38.164C42.4425 38.036 42.7225 38.111 42.8495 38.332C42.9765 38.551 42.9005 38.831 42.6815 38.958L40.3665 40.294C40.1455 40.42 39.8675 40.346 39.7405 40.127Z" fill="#FFA229"/>
<path d="M56.4796 23.58C56.2596 23.453 55.9796 23.527 55.8506 23.747L54.5146 26.063C54.3876 26.281 54.4616 26.563 54.6826 26.688C54.9026 26.814 55.1806 26.74 55.3096 26.521L56.6456 24.205C56.7736 23.985 56.6976 23.704 56.4796 23.58Z" fill="#FFA229"/>
<path d="M60.9568 27.986C60.8318 27.768 60.5518 27.693 60.3328 27.819L58.0158 29.155C57.7968 29.282 57.7228 29.561 57.8478 29.783C57.9728 29.999 58.2568 30.075 58.4758 29.949L60.7888 28.611C61.0088 28.486 61.0838 28.207 60.9568 27.986Z" fill="#FFA229"/>
<path d="M62.6306 34.0439C62.6306 33.7899 62.4255 33.5859 62.1725 33.5859H59.4976C59.2436 33.5859 59.0396 33.7909 59.0396 34.0439C59.0396 34.2959 59.2436 34.4999 59.4976 34.4999H62.1725C62.4255 34.5009 62.6306 34.2969 62.6306 34.0439Z" fill="#FFA229"/>
<path d="M61.0527 40.127C61.1797 39.908 61.1037 39.629 60.8857 39.501L58.5677 38.164C58.3497 38.036 58.0697 38.111 57.9427 38.332C57.8167 38.551 57.8927 38.831 58.1117 38.958L60.4277 40.294C60.6457 40.42 60.9277 40.346 61.0527 40.127Z" fill="#FFA229"/>
<path d="M54.4525 46.1799C54.4525 46.6969 53.9735 47.1159 53.3805 47.1159H47.1295C46.5395 47.1159 46.0625 46.6969 46.0625 46.1799C46.0625 45.6619 46.5405 45.2419 47.1295 45.2419H53.3805C53.9725 45.2429 54.4525 45.6619 54.4525 46.1799Z" fill="#AEBFCE"/>
<path d="M61.9695 51.58H61.7415C61.8375 50.793 61.9345 50.02 62.0305 49.286C62.2305 47.739 62.5365 44.977 61.9285 42.25C58.8795 43.63 54.8345 44.471 50.3925 44.471C45.9545 44.471 41.9095 43.63 38.8615 42.25C38.2545 44.977 38.5555 47.739 38.7585 49.286C38.8545 50.02 38.9525 50.794 39.0495 51.58H38.8205C36.8065 50.09 36.6345 53.984 37.4765 55.314C38.1735 56.415 38.1875 56.536 38.6085 57.749C38.9205 58.645 39.4325 58.762 39.8625 58.665C39.9175 59.195 39.9645 59.658 39.9995 60.024C40.1825 62.07 45.1005 66.171 46.2175 67.453C47.2595 68.657 49.0045 68.188 49.5615 68.163C50.1275 68.137 50.3955 68.123 50.3955 68.123C50.3955 68.123 50.6645 68.137 51.2275 68.163C51.7865 68.188 53.5295 68.657 54.5755 67.453C55.6895 66.171 60.6055 62.071 60.7945 60.024C60.8275 59.658 60.8735 59.194 60.9265 58.665C61.3595 58.762 61.8735 58.644 62.1815 57.749C62.6035 56.536 62.6185 56.415 63.3155 55.314C64.1555 53.984 63.9825 50.09 61.9695 51.58Z" fill="#F4C297"/>
</svg>
