<svg width="16" height="16" viewBox="0 0 16 16" fill="none" xmlns="http://www.w3.org/2000/svg">
<g clip-path="url(#clip0_233_438)">
<path d="M15.7834 14.3075L7.21138 6.50351L7.61038 6.10351C7.92503 5.78756 8.1135 5.3676 8.14038 4.92251C8.1562 4.91585 8.17156 4.90817 8.18638 4.89951L9.79538 3.89351C9.90047 3.76542 9.95485 3.6032 9.94822 3.43766C9.94158 3.27211 9.87438 3.11477 9.75938 2.99551L6.96038 0.189508C6.84155 0.0744516 6.68452 0.00718323 6.51925 0.000542978C6.35398 -0.00609727 6.19205 0.0483557 6.06438 0.153508L5.06038 1.76751L5.03838 1.81351C4.60838 1.84051 4.18638 2.01751 3.86038 2.34451L2.33838 3.87151C2.01138 4.19851 1.83538 4.62151 1.80838 5.05251C1.79256 5.05917 1.7772 5.06685 1.76238 5.07551L0.15338 6.08151C0.0482948 6.20959 -0.00609356 6.37181 0.000542971 6.53736C0.0071795 6.7029 0.0743787 6.86024 0.18938 6.97951L2.98838 9.78551C3.10721 9.90056 3.26424 9.96783 3.42951 9.97447C3.59478 9.98111 3.75671 9.92666 3.88438 9.82151L4.88838 8.20751L4.91138 8.16151C5.34138 8.13451 5.76338 7.95751 6.08938 7.63051L6.53138 7.18751L14.3144 15.7835C14.5404 16.0325 14.8874 16.0725 15.0874 15.8725L15.8744 15.0835C16.0734 14.8835 16.0334 14.5345 15.7854 14.3085L15.7834 14.3075Z" fill="#1C4670"/>
<path d="M15.7833 14.3075L7.21125 6.50354L6.53125 7.18754L14.3142 15.7835C14.5402 16.0325 14.8872 16.0725 15.0872 15.8725L15.8743 15.0835C16.0733 14.8835 16.0332 14.5345 15.7852 14.3085L15.7833 14.3075Z" fill="#FFA229"/>
</g>
<defs>
<clipPath id="clip0_233_438">
<rect width="16" height="16" fill="white"/>
</clipPath>
</defs>
</svg>
