<svg width="47" height="77" viewBox="0 0 47 77" fill="none" xmlns="http://www.w3.org/2000/svg">
<path d="M24.5199 43.7159C24.5199 50.2509 19.2219 55.5549 12.6779 55.5549C6.14089 55.5549 0.837891 50.2509 0.837891 43.7159C0.837891 37.1749 6.14089 31.8719 12.6779 31.8719C19.2219 31.8729 24.5199 37.1759 24.5199 43.7159Z" fill="#FCD751"/>
<path d="M22.526 43.7159C22.526 49.1529 18.116 53.5599 12.677 53.5599C7.24203 53.5599 2.83203 49.1529 2.83203 43.7159C2.83203 38.2749 7.24203 33.8719 12.677 33.8719C18.116 33.8729 22.526 38.2749 22.526 43.7159Z" fill="#FFA229"/>
<path d="M20.6668 43.7159C20.6668 48.1219 17.0898 51.6999 12.6778 51.6999C8.2728 51.6999 4.6958 48.1219 4.6958 43.7159C4.6958 39.3029 8.2728 35.7279 12.6778 35.7279C17.0898 35.7279 20.6668 39.3029 20.6668 43.7159Z" fill="#FCD751"/>
<path d="M11.9219 48.7709C11.3899 48.7549 10.9289 48.6959 10.5259 48.6039C10.1269 48.5109 9.81792 48.3989 9.59492 48.2769L10.1349 46.6809C10.3039 46.7869 10.5349 46.8839 10.8409 46.9769C11.1409 47.0699 11.5019 47.1349 11.9219 47.1689V44.3419C11.6309 44.2129 11.3469 44.0679 11.0649 43.9079C10.7789 43.7519 10.5259 43.5629 10.3039 43.3399C10.0819 43.1139 9.90191 42.8469 9.76591 42.5379C9.62991 42.2239 9.56592 41.8549 9.56592 41.4289C9.56592 40.6289 9.77492 40.0079 10.1989 39.5689C10.6189 39.1269 11.1959 38.8399 11.9229 38.7129V37.4409H13.3709V38.6539C13.7799 38.6819 14.1389 38.7379 14.4449 38.8179C14.7499 38.9029 15.0359 38.9989 15.2949 39.1099L14.7939 40.6479C14.6349 40.5739 14.4369 40.5009 14.1919 40.4259C13.9519 40.3469 13.6769 40.2939 13.3709 40.2589V42.8779C13.6589 43.0069 13.9519 43.1529 14.2429 43.3179C14.5349 43.4779 14.7939 43.6749 15.0209 43.8949C15.2489 44.1189 15.4379 44.3809 15.5819 44.6839C15.7239 44.9849 15.7969 45.3459 15.7969 45.7629C15.7969 46.6169 15.5819 47.2859 15.1489 47.7629C14.7179 48.2429 14.1249 48.5499 13.3719 48.6909V49.9859H11.9239V48.7709H11.9219ZM11.3789 41.2689C11.3789 41.5499 11.4849 41.7829 11.7029 41.9699C11.9259 42.1569 12.1929 42.3299 12.5219 42.4879V40.2189C12.0839 40.2339 11.7819 40.3439 11.6219 40.5369C11.4569 40.7319 11.3789 40.9779 11.3789 41.2689ZM13.9829 45.9579C13.9829 45.6669 13.8669 45.4209 13.6259 45.2339C13.3929 45.0479 13.1059 44.8729 12.7699 44.7159V47.1679C13.1799 47.1249 13.4849 46.9929 13.6829 46.7859C13.8819 46.5759 13.9829 46.2969 13.9829 45.9579Z" fill="#FFA229"/>
<path d="M33.327 32.658C33.327 37.952 29.036 42.248 23.735 42.248C18.441 42.248 14.145 37.952 14.145 32.658C14.145 27.36 18.441 23.064 23.735 23.064C29.036 23.064 33.327 27.36 33.327 32.658Z" fill="#FCD751"/>
<path d="M31.7142 32.658C31.7142 37.062 28.1412 40.632 23.7352 40.632C19.3332 40.632 15.7612 37.062 15.7612 32.658C15.7612 28.251 19.3322 24.684 23.7352 24.684C28.1412 24.684 31.7142 28.251 31.7142 32.658Z" fill="#FFA229"/>
<path d="M30.206 32.658C30.206 36.228 27.31 39.126 23.735 39.126C20.167 39.126 17.269 36.228 17.269 32.658C17.269 29.083 20.166 26.187 23.735 26.187C27.31 26.187 30.206 29.083 30.206 32.658Z" fill="#FCD751"/>
<path d="M23.1228 36.7529C22.6908 36.7399 22.3188 36.692 21.9928 36.617C21.6698 36.541 21.4188 36.45 21.2378 36.352L21.6758 35.0589C21.8128 35.1449 21.9998 35.224 22.2478 35.299C22.4908 35.373 22.7828 35.426 23.1228 35.455V33.165C22.8878 33.061 22.6568 32.944 22.4288 32.813C22.1978 32.686 21.9929 32.534 21.8129 32.354C21.6329 32.17 21.4868 31.9529 21.3768 31.7039C21.2678 31.4479 21.2148 31.1499 21.2148 30.8069C21.2148 30.1569 21.3848 29.654 21.7278 29.299C22.0678 28.94 22.5368 28.7099 23.1238 28.6049V27.575H24.2978V28.5579C24.6278 28.5809 24.9188 28.627 25.1678 28.691C25.4138 28.76 25.6459 28.838 25.8559 28.928L25.4508 30.174C25.3218 30.113 25.1608 30.0529 24.9628 29.9949C24.7688 29.9309 24.5469 29.888 24.2989 29.86V31.9799C24.5309 32.0849 24.7688 32.2039 25.0058 32.3359C25.2408 32.4659 25.4508 32.625 25.6348 32.803C25.8198 32.984 25.9728 33.197 26.0888 33.442C26.2038 33.685 26.2638 33.9769 26.2638 34.3149C26.2638 35.0079 26.0888 35.55 25.7378 35.936C25.3898 36.325 24.9089 36.573 24.2999 36.687V37.736H23.1258V36.7529H23.1228ZM22.6828 30.6749C22.6828 30.9029 22.7698 31.092 22.9468 31.243C23.1278 31.395 23.3428 31.5349 23.6098 31.6619V29.826C23.2558 29.838 23.0108 29.925 22.8808 30.082C22.7458 30.241 22.6828 30.4399 22.6828 30.6749ZM24.7928 34.4739C24.7928 34.2379 24.6978 34.039 24.5028 33.888C24.3148 33.737 24.0828 33.596 23.8108 33.47V35.456C24.1428 35.42 24.3889 35.314 24.5499 35.146C24.7109 34.974 24.7928 34.7489 24.7928 34.4739Z" fill="#FFA229"/>
<path d="M33.3188 30.8439C37.6095 30.8439 41.0878 27.3656 41.0878 23.0749C41.0878 18.7842 37.6095 15.3059 33.3188 15.3059C29.0281 15.3059 25.5498 18.7842 25.5498 23.0749C25.5498 27.3656 29.0281 30.8439 33.3188 30.8439Z" fill="#FCD751"/>
<path d="M33.3199 29.5359C36.8882 29.5359 39.7809 26.6432 39.7809 23.0749C39.7809 19.5066 36.8882 16.6139 33.3199 16.6139C29.7516 16.6139 26.8589 19.5066 26.8589 23.0749C26.8589 26.6432 29.7516 29.5359 33.3199 29.5359Z" fill="#FFA229"/>
<path d="M33.321 28.3139C36.2144 28.3139 38.56 25.9684 38.56 23.0749C38.56 20.1815 36.2144 17.8359 33.321 17.8359C30.4276 17.8359 28.082 20.1815 28.082 23.0749C28.082 25.9684 30.4276 28.3139 33.321 28.3139Z" fill="#FCD751"/>
<path d="M32.8208 26.3919C32.4718 26.3809 32.1718 26.3419 31.9068 26.2819C31.6438 26.2189 31.4418 26.1469 31.2968 26.0669L31.6508 25.0199C31.7618 25.0889 31.9138 25.1539 32.1138 25.2149C32.3108 25.2739 32.5478 25.3179 32.8218 25.3399V23.4849C32.6338 23.4009 32.4458 23.3069 32.2598 23.2009C32.0728 23.0979 31.9068 22.9749 31.7618 22.8279C31.6158 22.6809 31.4968 22.5039 31.4078 22.3029C31.3188 22.0959 31.2778 21.8539 31.2778 21.5749C31.2778 21.0489 31.4128 20.6419 31.6918 20.3529C31.9668 20.0629 32.3448 19.8759 32.8208 19.7919V18.9579H33.7718V19.7529C34.0418 19.7729 34.2768 19.8099 34.4768 19.8619C34.6768 19.9159 34.8648 19.9789 35.0348 20.0529L34.7068 21.0609C34.6018 21.0129 34.4728 20.9639 34.3118 20.9169C34.1528 20.8659 33.9738 20.8299 33.7718 20.8069V22.5249C33.9618 22.6099 34.1528 22.7059 34.3438 22.8129C34.5348 22.9179 34.7058 23.0479 34.8548 23.1929C35.0038 23.3389 35.1288 23.5109 35.2228 23.7099C35.3168 23.9079 35.3638 24.1449 35.3638 24.4169C35.3638 24.9779 35.2228 25.4169 34.9378 25.7309C34.6568 26.0439 34.2658 26.2459 33.7718 26.3379V27.1879H32.8208V26.3919ZM32.4658 21.4689C32.4658 21.6529 32.5368 21.8049 32.6798 21.9279C32.8258 22.0519 33.0008 22.1639 33.2168 22.2679V20.7789C32.9308 20.7899 32.7318 20.8619 32.6258 20.9889C32.5178 21.1169 32.4658 21.2779 32.4658 21.4689ZM34.1758 24.5449C34.1758 24.3529 34.0998 24.1919 33.9408 24.0699C33.7878 23.9479 33.6008 23.8339 33.3788 23.7299V25.3389C33.6478 25.3099 33.8488 25.2249 33.9788 25.0879C34.1078 24.9499 34.1758 24.7679 34.1758 24.5449Z" fill="#FFA229"/>
<path d="M19.3929 60.736C16.5069 60.736 13.7929 59.611 11.7519 57.571C9.71089 55.53 8.58789 52.817 8.58789 49.93C8.58789 47.043 9.71089 44.329 11.7519 42.289C13.7929 40.248 16.5069 39.124 19.3919 39.124C22.2799 39.124 24.9929 40.248 27.0339 42.29C29.0749 44.33 30.1989 47.042 30.1989 49.93C30.1989 52.817 29.0749 55.53 27.0339 57.571C24.9919 59.611 22.2789 60.736 19.3929 60.736ZM19.3919 41.76C17.2099 41.76 15.1589 42.609 13.6159 44.153C10.4289 47.339 10.4289 52.523 13.6159 55.708C15.1589 57.251 17.2119 58.101 19.3929 58.101C21.5769 58.101 23.6269 57.251 25.1699 55.708C26.7139 54.166 27.5639 52.113 27.5639 49.931C27.5639 47.749 26.7139 45.697 25.1699 44.154C23.6269 42.609 21.5749 41.76 19.3919 41.76Z" fill="#1C4670"/>
<path d="M32.0057 60.6844L26.9004 55.5791L25.0379 57.4416L30.1432 62.5469L32.0057 60.6844Z" fill="#1C4670"/>
<path d="M45.8267 72.847C46.4027 73.421 46.4027 74.356 45.8267 74.931L44.3927 76.365C43.8167 76.941 42.8837 76.941 42.3077 76.365L28.7557 62.813C28.1797 62.237 28.1797 61.303 28.7557 60.727L30.1897 59.294C30.7647 58.719 31.6987 58.719 32.2747 59.294L45.8267 72.847Z" fill="#AEBFCE"/>
<path d="M33.9275 60.9506L33.3076 60.3302L29.7876 63.8472L30.4075 64.4676L33.9275 60.9506Z" fill="#FCD751"/>
<path d="M35.1413 62.164L34.519 61.5432L31.0045 65.0657L31.6267 65.6866L35.1413 62.164Z" fill="#FCD751"/>
<path d="M44.794 71.8081L44.1729 71.1875L40.6565 74.7068L41.2776 75.3274L44.794 71.8081Z" fill="#FCD751"/>
<path d="M43.5728 70.5994L42.9507 69.9783L39.4346 73.4998L40.0567 74.1209L43.5728 70.5994Z" fill="#FCD751"/>
<path d="M24.3067 31.343C21.9027 31.343 19.6417 30.407 17.9417 28.706C16.2417 27.006 15.3047 24.745 15.3047 22.34C15.3047 19.935 16.2417 17.675 17.9417 15.975C19.6417 14.274 21.9027 13.338 24.3067 13.338C26.7117 13.338 28.9717 14.274 30.6727 15.975C34.1837 19.485 34.1837 25.196 30.6727 28.708C28.9727 30.407 26.7127 31.343 24.3067 31.343ZM24.3067 15.973C22.6067 15.973 21.0067 16.635 19.8047 17.838C18.6017 19.041 17.9397 20.639 17.9397 22.34C17.9397 24.042 18.6017 25.64 19.8047 26.843C21.0067 28.046 22.6067 28.709 24.3067 28.709C26.0087 28.709 27.6077 28.046 28.8117 26.844C31.2937 24.361 31.2927 20.321 28.8107 17.838C27.6067 16.635 26.0087 15.973 24.3067 15.973Z" fill="#1C4670"/>
<path d="M19.9048 16.0782L15.771 11.9432L13.9082 13.8055L18.0421 17.9405L19.9048 16.0782Z" fill="#1C4670"/>
<path d="M2.89589 3.77896C2.42989 3.31296 2.42989 2.55696 2.89589 2.09096L4.05689 0.929962C4.52289 0.462962 5.27889 0.462962 5.74489 0.929962L16.7239 11.908C17.1899 12.374 17.1899 13.13 16.7239 13.596L15.5629 14.757C15.0959 15.224 14.3389 15.224 13.8739 14.757L2.89589 3.77896Z" fill="#AEBFCE"/>
<path d="M15.9448 11.1244L15.3237 10.5038L12.4746 13.3553L13.0957 13.9759L15.9448 11.1244Z" fill="#FCD751"/>
<path d="M14.9582 10.1402L14.3374 9.51941L11.4864 12.3704L12.1072 12.9913L14.9582 10.1402Z" fill="#FCD751"/>
<path d="M7.14697 2.32858L6.52588 1.70801L3.67748 4.55883L4.29857 5.1794L7.14697 2.32858Z" fill="#FCD751"/>
<path d="M8.13358 3.32082L7.51318 2.69946L4.66186 5.54635L5.28225 6.16771L8.13358 3.32082Z" fill="#FCD751"/>
</svg>
