<svg width="63" height="64" viewBox="0 0 63 64" fill="none" xmlns="http://www.w3.org/2000/svg">
<path d="M51.2027 50.496C49.5457 49.132 46.7857 48.24 43.6507 48.24C40.5217 48.24 37.7597 49.132 36.1037 50.496H34.4707V53.467C34.4707 56.354 38.5807 58.693 43.6507 58.693C48.7227 58.693 52.8337 56.354 52.8337 53.467V50.496H51.2027Z" fill="#FFA229"/>
<path d="M51.2027 47.164C49.5457 45.802 46.7857 44.906 43.6507 44.906C40.5217 44.906 37.7597 45.802 36.1017 47.164H34.4707V50.133C34.4707 53.02 38.5807 55.362 43.6507 55.362C48.7227 55.362 52.8337 53.02 52.8337 50.133V47.164H51.2027Z" fill="#FCD751"/>
<path d="M51.2027 43.8309C49.5437 42.4689 46.7837 41.5759 43.6507 41.5759C40.5197 41.5759 37.7597 42.4689 36.1017 43.8309H34.4707V46.799C34.4707 49.687 38.5807 52.0269 43.6507 52.0269C48.7227 52.0269 52.8337 49.687 52.8337 46.799V43.8309H51.2027Z" fill="#FFA229"/>
<path d="M51.2028 40.499C49.5438 39.135 46.7838 38.24 43.6508 38.24C40.5198 38.24 37.7598 39.135 36.1018 40.499H34.4688V43.468C34.4688 46.357 38.5788 48.695 43.6508 48.695C48.7228 48.695 52.8338 46.357 52.8338 43.468V40.499H51.2028Z" fill="#FCD751"/>
<path d="M51.2028 37.1629C49.5438 35.8019 46.7838 34.9089 43.6508 34.9089C40.5198 34.9089 37.7568 35.8019 36.1018 37.1629H34.4688V40.1359C34.4688 43.0219 38.5788 45.3629 43.6508 45.3629C48.7228 45.3629 52.8338 43.0219 52.8338 40.1359V37.1629H51.2028Z" fill="#FFA229"/>
<path d="M52.8338 37.163C52.8338 40.049 48.7238 42.392 43.6508 42.392C38.5798 42.392 34.4688 40.049 34.4688 37.163C34.4688 34.279 38.5788 31.938 43.6508 31.938C48.7238 31.938 52.8338 34.279 52.8338 37.163Z" fill="#FCD751"/>
<path d="M51.3839 37.163C51.3839 39.595 47.9229 41.566 43.6519 41.566C39.3819 41.566 35.9219 39.594 35.9219 37.163C35.9219 34.734 39.3829 32.765 43.6519 32.765C47.9229 32.765 51.3839 34.734 51.3839 37.163Z" fill="#FFA229"/>
<path d="M43.6518 40.576C46.9638 40.576 49.6488 39.0479 49.6488 37.163C49.6488 35.278 46.9638 33.75 43.6518 33.75C40.3397 33.75 37.6548 35.278 37.6548 37.163C37.6548 39.0479 40.3397 40.576 43.6518 40.576Z" fill="#FCD751"/>
<path d="M43.083 39.3269C42.684 39.3189 42.335 39.294 42.035 39.256C41.736 39.215 41.502 39.166 41.334 39.114L41.743 38.4339C41.867 38.4769 42.043 38.518 42.27 38.558C42.499 38.598 42.767 38.6239 43.083 38.6409V37.4319C42.865 37.3769 42.652 37.3149 42.438 37.2459C42.223 37.1809 42.035 37.0989 41.867 37.0049C41.7 36.9089 41.564 36.7939 41.463 36.6609C41.365 36.5269 41.313 36.3689 41.313 36.1849C41.313 35.8439 41.471 35.581 41.789 35.39C42.106 35.202 42.539 35.0779 43.084 35.0239V34.4819H44.17V35.0009C44.478 35.0119 44.748 35.038 44.978 35.071C45.207 35.106 45.42 35.15 45.617 35.196L45.24 35.8529C45.121 35.8209 44.97 35.789 44.79 35.756C44.609 35.726 44.402 35.7009 44.171 35.6859V36.8059C44.388 36.8609 44.608 36.9239 44.826 36.9939C45.046 37.0639 45.24 37.145 45.412 37.243C45.584 37.337 45.724 37.4509 45.831 37.5779C45.94 37.7069 45.994 37.8599 45.994 38.0389C45.994 38.4039 45.831 38.6889 45.506 38.8929C45.183 39.0979 44.736 39.2329 44.171 39.2909V39.8449H43.085V39.3269H43.083ZM42.675 36.118C42.675 36.238 42.756 36.3379 42.919 36.4179C43.085 36.4989 43.288 36.5729 43.532 36.6419V35.6689C43.205 35.6769 42.977 35.7229 42.857 35.8069C42.736 35.8909 42.675 35.994 42.675 36.118ZM44.631 38.1259C44.631 37.9979 44.542 37.8959 44.363 37.8129C44.185 37.7359 43.97 37.6609 43.72 37.5929V38.6419C44.028 38.6229 44.255 38.5689 44.406 38.4779C44.556 38.3869 44.631 38.2689 44.631 38.1259Z" fill="#FFA229"/>
<path d="M29.3407 31.98V30.265L29.3377 31.98C25.1097 31.98 21.1347 30.334 18.1457 27.344C15.1567 24.354 13.5107 20.38 13.5117 16.154C13.5107 11.926 15.1577 7.95002 18.1467 4.96002C21.1357 1.97002 25.1117 0.323021 29.3387 0.322021C33.5667 0.322021 37.5417 1.96802 40.5307 4.96002C43.5217 7.94902 45.1687 11.926 45.1677 16.153C45.1687 20.38 43.5217 24.355 40.5317 27.344C37.5427 30.334 33.5677 31.98 29.3407 31.98ZM29.3387 3.75204C26.0267 3.75204 22.9137 5.04203 20.5717 7.38403C18.2287 9.72803 16.9387 12.842 16.9397 16.155C16.9387 19.466 18.2287 22.579 20.5707 24.921C22.9127 27.263 26.0247 28.553 29.3367 28.553H29.3407C32.6517 28.553 35.7667 27.263 38.1087 24.921C40.4507 22.579 41.7387 19.466 41.7377 16.155C41.7387 12.842 40.4497 9.72803 38.1077 7.38403C35.7647 5.04203 32.6497 3.75204 29.3387 3.75204Z" fill="#1C4670"/>
<path d="M31.0535 29.999H27.6245V40.736H31.0535V29.999Z" fill="#1C4670"/>
<path d="M32.2666 61.642C32.2666 62.601 31.4896 63.379 30.5326 63.377L28.1466 63.379C27.1886 63.38 26.4116 62.601 26.4116 61.643V39.092C26.4116 38.132 27.1896 37.356 28.1456 37.356H30.5336C31.4896 37.357 32.2646 38.132 32.2666 39.091V61.642Z" fill="#AEBFCE"/>
<path d="M32.2646 40.9021H26.4106V41.7591H32.2646V40.9021Z" fill="#FCD751"/>
<path d="M32.2646 42.928H26.4106V43.784H32.2646V42.928Z" fill="#FCD751"/>
<path d="M32.2656 58.973H26.4116V59.83H32.2656V58.973Z" fill="#FCD751"/>
<path d="M32.2657 56.949H26.4106V57.806H32.2657V56.949Z" fill="#FCD751"/>
<path d="M54.2418 61.7171C58.8114 61.7171 62.5158 58.0127 62.5158 53.4431C62.5158 48.8735 58.8114 45.1691 54.2418 45.1691C49.6722 45.1691 45.9678 48.8735 45.9678 53.4431C45.9678 58.0127 49.6722 61.7171 54.2418 61.7171Z" fill="#FCD751"/>
<path d="M54.2438 60.323C58.0435 60.323 61.1238 57.2427 61.1238 53.443C61.1238 49.6433 58.0435 46.563 54.2438 46.563C50.4441 46.563 47.3638 49.6433 47.3638 53.443C47.3638 57.2427 50.4441 60.323 54.2438 60.323Z" fill="#FFA229"/>
<path d="M54.2426 59.022C57.3238 59.022 59.8216 56.5242 59.8216 53.443C59.8216 50.3618 57.3238 47.864 54.2426 47.864C51.1614 47.864 48.6636 50.3618 48.6636 53.443C48.6636 56.5242 51.1614 59.022 54.2426 59.022Z" fill="#FCD751"/>
<path d="M53.7129 56.977C53.3409 56.964 53.0189 56.925 52.7379 56.86C52.4589 56.794 52.2439 56.717 52.0859 56.632L52.4639 55.516C52.5829 55.588 52.7439 55.658 52.9579 55.721C53.1669 55.787 53.4199 55.833 53.7129 55.857V53.88C53.5099 53.792 53.3109 53.691 53.1129 53.579C52.9149 53.47 52.7379 53.338 52.5829 53.18C52.4279 53.024 52.3009 52.837 52.2049 52.621C52.1129 52.4 52.0659 52.142 52.0659 51.846C52.0659 51.286 52.2119 50.853 52.5079 50.546C52.8009 50.236 53.2039 50.036 53.7119 49.946V49.056H54.7249V49.906C55.0099 49.926 55.2609 49.965 55.4759 50.02C55.6869 50.08 55.8879 50.147 56.0699 50.225L55.7179 51.299C55.6069 51.248 55.4689 51.195 55.2999 51.145C55.1309 51.088 54.9389 51.052 54.7249 51.028V52.859C54.9259 52.948 55.1309 53.051 55.3339 53.164C55.5369 53.277 55.7179 53.414 55.8779 53.567C56.0359 53.725 56.1689 53.909 56.2689 54.119C56.3679 54.33 56.4189 54.582 56.4189 54.871C56.4189 55.47 56.2689 55.939 55.9669 56.271C55.6649 56.606 55.2489 56.821 54.7249 56.919V57.825H53.7119V56.977H53.7129ZM53.3339 51.733C53.3339 51.929 53.4079 52.091 53.5599 52.223C53.7159 52.355 53.9029 52.473 54.1339 52.584V51C53.8269 51.011 53.6139 51.087 53.5029 51.223C53.3889 51.359 53.3339 51.53 53.3339 51.733ZM55.1529 55.012C55.1529 54.806 55.0719 54.635 54.9039 54.503C54.7419 54.374 54.5419 54.251 54.3059 54.144V55.857C54.5899 55.827 54.8049 55.736 54.9429 55.588C55.0829 55.44 55.1529 55.247 55.1529 55.012Z" fill="#FFA229"/>
<path d="M20.6131 55.498C20.6131 55.498 14.1601 55.6481 12.7671 54.4401C11.3741 55.6481 4.92008 55.498 4.92008 55.498C4.92008 55.498 4.09608 55.7241 4.11608 56.8581C4.13608 57.9911 4.92008 58.0651 4.92008 58.0651H12.7671H20.6131C20.6131 58.0651 21.3991 57.9911 21.4181 56.8581C21.4381 55.7241 20.6131 55.498 20.6131 55.498Z" fill="#1C4670"/>
<path d="M20.6131 55.498C20.6131 55.498 20.5281 55.497 20.1101 55.498C20.2621 55.546 20.8171 55.769 20.8011 56.5C20.7831 57.345 19.9011 57.211 19.9011 57.211H12.7671H5.63308C5.63308 57.211 4.75109 57.345 4.73109 56.5C4.71609 55.77 5.27209 55.546 5.42309 55.498C5.00509 55.497 4.92008 55.498 4.92008 55.498C4.92008 55.498 4.09608 55.724 4.11608 56.858C4.13608 57.991 4.92008 58.065 4.92008 58.065H12.7671H20.6131C20.6131 58.065 21.3991 57.991 21.4181 56.858C21.4381 55.724 20.6131 55.498 20.6131 55.498Z" fill="#1C4670"/>
<path d="M14.8588 31.164C14.8588 31.795 14.3478 32.302 13.7178 32.302H11.8138C11.1838 32.302 10.6758 31.795 10.6758 31.164C10.6758 30.536 11.1838 30.025 11.8138 30.025H13.7178C14.3488 30.025 14.8588 30.536 14.8588 31.164Z" fill="#FCD751"/>
<path d="M12.7679 31.9401C6.17694 31.9401 0.835938 37.2831 0.835938 43.8721C0.835938 50.4611 6.17694 55.804 12.7679 55.804C19.3569 55.804 24.6979 50.4611 24.6979 43.8721C24.6979 37.2831 19.3559 31.9401 12.7679 31.9401ZM12.7679 53.3711C7.52094 53.3711 3.26595 49.1181 3.26595 43.8721C3.26595 38.6241 7.52094 34.3711 12.7679 34.3711C18.0149 34.3711 22.2679 38.6241 22.2679 43.8721C22.2679 49.1181 18.0149 53.3711 12.7679 53.3711Z" fill="#768296"/>
<path d="M12.7681 53.3711C18.0148 53.3711 22.2681 49.1178 22.2681 43.8711C22.2681 38.6244 18.0148 34.3711 12.7681 34.3711C7.52136 34.3711 3.26807 38.6244 3.26807 43.8711C3.26807 49.1178 7.52136 53.3711 12.7681 53.3711Z" fill="#E3FDFF"/>
<path d="M12.7678 52.2671C17.7097 52.2671 21.7158 48.2609 21.7158 43.3191C21.7158 38.3772 17.7097 34.3711 12.7678 34.3711C7.82598 34.3711 3.81982 38.3772 3.81982 43.3191C3.81982 48.2609 7.82598 52.2671 12.7678 52.2671Z" fill="white"/>
<path d="M12.9301 45.2653C13.0906 45.4171 14.4623 44.2279 15.9939 42.6092C17.5255 40.9904 18.6371 39.5551 18.4766 39.4032C18.3161 39.2514 16.9444 40.4406 15.4128 42.0593C13.8812 43.6781 12.7696 45.1134 12.9301 45.2653Z" fill="#768296"/>
<path d="M12.9282 45.2665C13.0797 45.1065 11.8892 43.7341 10.2693 42.2014C8.6493 40.6686 7.21329 39.5558 7.06183 39.7159C6.91038 39.876 8.10083 41.2483 9.7208 42.7811C11.3408 44.3138 12.7768 45.4266 12.9282 45.2665Z" fill="#768296"/>
<path d="M12.7681 54.4411C12.9305 54.4411 13.0621 53.7659 13.0621 52.9331C13.0621 52.1002 12.9305 51.425 12.7681 51.425C12.6058 51.425 12.4741 52.1002 12.4741 52.9331C12.4741 53.7659 12.6058 54.4411 12.7681 54.4411Z" fill="#768296"/>
<path d="M12.7681 36.323C12.9305 36.323 13.0621 35.6465 13.0621 34.812C13.0621 33.9775 12.9305 33.301 12.7681 33.301C12.6058 33.301 12.4741 33.9775 12.4741 34.812C12.4741 35.6465 12.6058 36.323 12.7681 36.323Z" fill="#768296"/>
<path d="M21.8269 44.167C22.6603 44.167 23.3359 44.035 23.3359 43.872C23.3359 43.7091 22.6603 43.577 21.8269 43.577C20.9935 43.577 20.3179 43.7091 20.3179 43.872C20.3179 44.035 20.9935 44.167 21.8269 44.167Z" fill="#768296"/>
<path d="M3.70776 44.167C4.54227 44.167 5.21877 44.035 5.21877 43.872C5.21877 43.7091 4.54227 43.577 3.70776 43.577C2.87326 43.577 2.19678 43.7091 2.19678 43.872C2.19678 44.035 2.87326 44.167 3.70776 44.167Z" fill="#768296"/>
<path d="M20.4436 51.5285C20.5321 51.4397 20.2338 50.9989 19.7774 50.5439C19.3209 50.0889 18.8791 49.792 18.7906 49.8807C18.7021 49.9695 19.0004 50.4104 19.4568 50.8654C19.9133 51.3204 20.3551 51.6173 20.4436 51.5285Z" fill="#768296"/>
<path d="M6.7415 37.8477C6.83015 37.7591 6.53224 37.3174 6.07611 36.8613C5.61998 36.4052 5.17836 36.1073 5.08971 36.1959C5.00107 36.2846 5.29896 36.7262 5.75509 37.1823C6.21122 37.6385 6.65285 37.9364 6.7415 37.8477Z" fill="#768296"/>
<path d="M19.4561 36.862C19.9091 36.406 20.3521 36.107 20.4401 36.197C20.5301 36.287 20.2341 36.729 19.7751 37.183C19.3201 37.641 18.8771 37.937 18.7881 37.848C18.7011 37.761 18.9971 37.317 19.4561 36.862Z" fill="#768296"/>
<path d="M6.74371 49.8975C6.65506 49.8089 6.21344 50.1068 5.75731 50.5629C5.30119 51.0191 5.00328 51.4607 5.09193 51.5493C5.18057 51.638 5.62221 51.3401 6.07833 50.8839C6.53446 50.4278 6.83236 49.9862 6.74371 49.8975Z" fill="#768296"/>
</svg>
