<svg width="32" height="41" viewBox="0 0 32 41" fill="none" xmlns="http://www.w3.org/2000/svg">
<path fill-rule="evenodd" clip-rule="evenodd" d="M7 4C7 3.20435 7.31607 2.44129 7.87868 1.87868C8.44129 1.31607 9.20435 1 10 1H18C18.7956 1 19.5587 1.31607 20.1213 1.87868C20.6839 2.44129 21 3.20435 21 4H24C24.7956 4 25.5587 4.31607 26.1213 4.87868C26.6839 5.44129 27 6.20435 27 7V22H25V7C25 6.73478 24.8946 6.48043 24.7071 6.29289C24.5196 6.10536 24.2652 6 24 6H21C21 6.79565 20.6839 7.55871 20.1213 8.12132C19.5587 8.68393 18.7956 9 18 9H10C9.20435 9 8.44129 8.68393 7.87868 8.12132C7.31607 7.55871 7 6.79565 7 6H4C3.73478 6 3.48043 6.10536 3.29289 6.29289C3.10536 6.48043 3 6.73478 3 7V35C3 35.2652 3.10536 35.5196 3.29289 35.7071C3.48043 35.8946 3.73478 36 4 36H16V38H4C3.20435 38 2.44129 37.6839 1.87868 37.1213C1.31607 36.5587 1 35.7956 1 35V7C1 6.20435 1.31607 5.44129 1.87868 4.87868C2.44129 4.31607 3.20435 4 4 4H7ZM10 3C9.73478 3 9.48043 3.10536 9.29289 3.29289C9.10536 3.48043 9 3.73478 9 4V6C9 6.26522 9.10536 6.51957 9.29289 6.70711C9.48043 6.89464 9.73478 7 10 7H18C18.2652 7 18.5196 6.89464 18.7071 6.70711C18.8946 6.51957 19 6.26522 19 6V4C19 3.73478 18.8946 3.48043 18.7071 3.29289C18.5196 3.10536 18.2652 3 18 3H10ZM13 13V16H10V18H13V21H15V18H18V16H15V13H13ZM18 24C17.7348 24 17.4804 24.1054 17.2929 24.2929C17.1054 24.4804 17 24.7348 17 25V31.789C17 32.9413 17.2846 34.0758 17.8283 35.0918C18.3721 36.1078 19.1582 36.9738 20.117 37.613L23.445 39.833C23.6093 39.9426 23.8025 40.0011 24 40.0011C24.1975 40.0011 24.3907 39.9426 24.555 39.833L27.883 37.613C28.8416 36.9739 29.6277 36.108 30.1714 35.0922C30.7152 34.0765 30.9998 32.9422 31 31.79V25C31 24.7348 30.8946 24.4804 30.7071 24.2929C30.5196 24.1054 30.2652 24 30 24H18ZM27.707 29.707L23.707 33.707C23.5195 33.8945 23.2652 33.9998 23 33.9998C22.7348 33.9998 22.4805 33.8945 22.293 33.707L20.293 31.707L21.707 30.293L23 31.586L26.293 28.293L27.707 29.707Z" fill="#AEBFCE"/>
<path fill-rule="evenodd" clip-rule="evenodd" d="M13 13V16H10V18H13V21H15V18H18V16H15V13H13Z" fill="#FCD751"/>
<path fill-rule="evenodd" clip-rule="evenodd" d="M18 24C17.7348 24 17.4804 24.1054 17.2929 24.2929C17.1054 24.4804 17 24.7348 17 25V31.789C17 32.9413 17.2846 34.0758 17.8283 35.0918C18.3721 36.1078 19.1582 36.9738 20.117 37.613L23.445 39.833C23.6093 39.9426 23.8025 40.0011 24 40.0011C24.1975 40.0011 24.3907 39.9426 24.555 39.833L27.883 37.613C28.8416 36.9739 29.6277 36.108 30.1714 35.0922C30.7152 34.0765 30.9998 32.9422 31 31.79V25C31 24.7348 30.8946 24.4804 30.7071 24.2929C30.5196 24.1054 30.2652 24 30 24H18ZM27.707 29.707L23.707 33.707C23.5195 33.8945 23.2652 33.9998 23 33.9998C22.7348 33.9998 22.4805 33.8945 22.293 33.707L20.293 31.707L21.707 30.293L23 31.586L26.293 28.293L27.707 29.707Z" fill="#1C4670"/>
</svg>
