<svg width="12" height="13" viewBox="0 0 12 13" fill="none" xmlns="http://www.w3.org/2000/svg">
<g clip-path="url(#clip0_218_236)">
<path d="M6 4C6.19891 4 6.38968 3.92098 6.53033 3.78033C6.67098 3.63968 6.75 3.44891 6.75 3.25C6.75 3.05109 6.67098 2.86032 6.53033 2.71967C6.38968 2.57902 6.19891 2.5 6 2.5C5.80109 2.5 5.61032 2.57902 5.46967 2.71967C5.32902 2.86032 5.25 3.05109 5.25 3.25C5.25 3.44891 5.32902 3.63968 5.46967 3.78033C5.61032 3.92098 5.80109 4 6 4Z" fill="#FCD751"/>
<path d="M6.73593 0.453982C6.5279 0.284917 6.268 0.192627 5.99993 0.192627C5.73186 0.192627 5.47196 0.284917 5.26393 0.453982L0.261929 4.51998C-0.346071 5.01498 0.00392896 5.99998 0.787929 5.99998H0.999929V10.2C0.405929 10.503 -7.11568e-05 11.12 -7.11568e-05 11.833V12.5C-7.11568e-05 12.6326 0.0526074 12.7598 0.146376 12.8535C0.240144 12.9473 0.367321 13 0.499929 13H11.4999C11.6325 13 11.7597 12.9473 11.8535 12.8535C11.9473 12.7598 11.9999 12.6326 11.9999 12.5V11.833C11.9999 11.121 11.5939 10.503 10.9999 10.2V5.99998H11.2119C11.9959 5.99998 12.3459 5.01498 11.7369 4.51998L6.73693 0.453982H6.73593ZM5.89593 1.22998C5.92565 1.20595 5.96271 1.19284 6.00093 1.19284C6.03915 1.19284 6.07621 1.20595 6.10593 1.22998L10.7409 4.99998H1.25793L5.89593 1.22998V1.22998ZM9.99993 9.99998H8.99993V5.99998H9.99993V9.99998ZM7.99993 9.99998H6.49993V5.99998H7.99993V9.99998ZM5.49993 9.99998H3.99993V5.99998H5.49993V9.99998ZM10.1669 11C10.6269 11 10.9999 11.373 10.9999 11.833V12H0.999929V11.833C0.999929 11.373 1.37293 11 1.83293 11H10.1669ZM2.99993 9.99998H1.99993V5.99998H2.99993V9.99998Z" fill="#1C4670"/>
</g>
<defs>
<clipPath id="clip0_218_236">
<rect width="12" height="13" fill="white"/>
</clipPath>
</defs>
</svg>
