<svg width="36" height="36" viewBox="0 0 36 36" fill="none" xmlns="http://www.w3.org/2000/svg">
<path d="M3.92287 22.923C3.82089 23.1679 3.6258 23.3623 3.3805 23.4634C3.1352 23.5645 2.8598 23.5639 2.61487 23.462C2.36994 23.36 2.17556 23.1649 2.07447 22.9196C1.97339 22.6743 1.97389 22.3989 2.07587 22.154L6.69287 9.61597C6.742 9.49281 6.81513 9.38064 6.908 9.28601C7.00088 9.19137 7.11166 9.11615 7.23388 9.06472C7.3561 9.01329 7.48733 8.98669 7.61993 8.98645C7.75253 8.98622 7.88385 9.01235 8.00626 9.06334C8.12866 9.11433 8.2397 9.18916 8.33292 9.28347C8.42613 9.37777 8.49966 9.48968 8.54923 9.61266C8.59879 9.73565 8.6234 9.86727 8.62162 9.99986C8.61984 10.1324 8.59171 10.2634 8.53887 10.385L3.92287 22.923Z" fill="#1C4670"/>
<path d="M13.9231 22.154C14.0251 22.3989 14.0256 22.6743 13.9245 22.9196C13.8234 23.1649 13.6291 23.36 13.3841 23.462C13.1392 23.5639 12.8638 23.5644 12.6185 23.4634C12.3732 23.3623 12.1781 23.1679 12.0761 22.923L7.46112 10.385C7.35915 10.14 7.35865 9.86462 7.45973 9.61932C7.56081 9.37403 7.7552 9.17893 8.00012 9.07695C8.24505 8.97498 8.52046 8.97448 8.76575 9.07556C9.01105 9.17664 9.20615 9.37103 9.30812 9.61596L13.9231 22.154ZM23.9241 22.923C23.8159 23.1585 23.6205 23.3429 23.3791 23.4373C23.1377 23.5317 22.8691 23.5288 22.6298 23.4292C22.3905 23.3295 22.1991 23.1409 22.0961 22.9031C21.993 22.6653 21.9862 22.3967 22.0771 22.154L26.6931 9.61495C26.7952 9.37016 26.9904 9.17595 27.2357 9.07506C27.481 8.97417 27.7563 8.97485 28.0011 9.07695C28.2459 9.17906 28.4401 9.37423 28.541 9.61953C28.6419 9.86483 28.6412 10.1402 28.5391 10.385L23.9241 22.923V22.923Z" fill="#1C4670"/>
<path d="M33.9228 22.154C34.0247 22.3989 34.0253 22.6743 33.9242 22.9196C33.8231 23.1649 33.6287 23.36 33.3838 23.462C33.1388 23.5639 32.8634 23.5645 32.6181 23.4634C32.3728 23.3623 32.1777 23.1679 32.0758 22.923L27.4608 10.385C27.4079 10.2634 27.3798 10.1324 27.378 9.99986C27.3762 9.86727 27.4009 9.73565 27.4504 9.61266C27.5 9.48968 27.5735 9.37777 27.6667 9.28347C27.7599 9.18916 27.871 9.11433 27.9934 9.06334C28.1158 9.01235 28.2471 8.98622 28.3797 8.98645C28.5123 8.98669 28.6435 9.01329 28.7658 9.06472C28.888 9.11615 28.9988 9.19137 29.0916 9.28601C29.1845 9.38064 29.2576 9.49281 29.3068 9.61597L33.9228 22.154V22.154Z" fill="#1C4670"/>
<path d="M14.857 22H1.143C0.512 22 0 22.511 0 23.143C0 25.667 3.582 27.714 8 27.714C12.418 27.714 16 25.667 16 23.143C16 22.511 15.488 22 14.857 22ZM24 34H12C11.7348 34 11.4804 33.8946 11.2929 33.7071C11.1054 33.5196 11 33.2652 11 33C11 30.791 14.134 29 18 29C21.866 29 25 30.791 25 33C25 33.2652 24.8946 33.5196 24.7071 33.7071C24.5196 33.8946 24.2652 34 24 34ZM34.857 22H21.143C20.511 22 20 22.511 20 23.143C20 25.667 23.581 27.714 28 27.714C32.419 27.714 36 25.667 36 23.143C36 22.511 35.489 22 34.857 22Z" fill="#FCD751"/>
<path d="M19 3C19 2.73478 18.8946 2.48043 18.7071 2.29289C18.5196 2.10536 18.2652 2 18 2C17.7348 2 17.4804 2.10536 17.2929 2.29289C17.1054 2.48043 17 2.73478 17 3V30C17 30.2652 17.1054 30.5196 17.2929 30.7071C17.4804 30.8946 17.7348 31 18 31C18.2652 31 18.5196 30.8946 18.7071 30.7071C18.8946 30.5196 19 30.2652 19 30V3Z" fill="#FCD751"/>
<path d="M18 6C19.1046 6 20 5.10457 20 4C20 2.89543 19.1046 2 18 2C16.8954 2 16 2.89543 16 4C16 5.10457 16.8954 6 18 6Z" fill="#FCD751"/>
<path d="M8 12C9.10457 12 10 11.1046 10 10C10 8.89543 9.10457 8 8 8C6.89543 8 6 8.89543 6 10C6 11.1046 6.89543 12 8 12Z" fill="#FCD751"/>
<path d="M28 12C29.1046 12 30 11.1046 30 10C30 8.89543 29.1046 8 28 8C26.8954 8 26 8.89543 26 10C26 11.1046 26.8954 12 28 12Z" fill="#FCD751"/>
<path d="M28 10C28 11.104 28 10 18 10C8 10 8 11.104 8 10C8 8.896 11 6 18 6C25 6 28 8.896 28 10Z" fill="#FCD751"/>
</svg>
