<svg width="62" height="37" viewBox="0 0 62 37" fill="none" xmlns="http://www.w3.org/2000/svg">
<path d="M29.5657 36.333C29.3547 36.333 29.1527 36.306 28.9667 36.254C28.7797 36.306 28.5777 36.333 28.3667 36.333H8.51873C7.52673 36.333 6.71973 35.527 6.71973 34.535V3.94002C6.71973 2.94702 7.52673 2.14001 8.51873 2.14001H27.1667C27.8407 2.14001 28.4637 2.36401 28.9667 2.74101C29.4677 2.36401 30.0907 2.14001 30.7657 2.14001H49.4127C50.4047 2.14001 51.2137 2.94702 51.2137 3.94002V34.535C51.2137 35.527 50.4047 36.333 49.4127 36.333H29.5657Z" fill="#768296"/>
<path d="M49.4139 3.33899H33.2659H31.1169H30.7659C29.7769 3.33899 28.9669 4.14898 28.9669 5.13998C28.9669 4.14898 28.1559 3.33899 27.1669 3.33899H26.8159H24.6669H8.51892C8.19092 3.33899 7.91992 3.60999 7.91992 3.94099V34.536C7.91992 34.866 8.19092 35.136 8.51892 35.136H9.71892H10.0699H12.2199H24.6669H26.8159H27.1669H28.3669C28.6949 35.136 28.9649 34.99 28.9669 34.81C28.9669 34.99 29.2369 35.136 29.5659 35.136H30.7659H31.1169H33.2659H45.7129H47.8629H48.2129H49.4129C49.7419 35.136 50.0129 34.865 50.0129 34.536V3.94099C50.0129 3.60999 49.7429 3.33899 49.4139 3.33899Z" fill="url(#paint0_linear_233_263)"/>
<path d="M28.9669 18.212V5.13998C28.9669 4.14898 28.1559 3.33899 27.1669 3.33899H26.8159H24.6669H8.51892C8.19092 3.33899 7.91992 3.60999 7.91992 3.94099V34.536C7.91992 34.866 8.19092 35.136 8.51892 35.136H9.71892H10.0699H12.2199H24.6669H26.8159H27.1669H28.3669C28.6959 35.136 28.9669 34.989 28.9669 34.81V18.212C28.9669 18.213 28.9669 18.213 28.9669 18.212Z" fill="white"/>
<path d="M28.9668 18.212V5.13998C28.9668 4.14898 29.7768 3.33899 30.7658 3.33899H31.1168H33.2658H49.4128C49.7418 3.33899 50.0128 3.60999 50.0128 3.94099V34.536C50.0128 34.866 49.7418 35.136 49.4128 35.136H48.2128H47.8628H45.7128H33.2658H31.1168H30.7658H29.5658C29.2358 35.136 28.9668 34.989 28.9668 34.81V18.212C28.9668 18.213 28.9668 18.213 28.9668 18.212Z" fill="white"/>
<path d="M26.6659 5.38904H9.66895V8.51503H26.6659V5.38904Z" fill="#FFA229"/>
<path d="M26.6659 9.58899H9.66895V10.689H26.6659V9.58899Z" fill="#AEBFCE"/>
<path d="M26.6659 13.79H9.66895V14.89H26.6659V13.79Z" fill="#AEBFCE"/>
<path d="M26.6659 15.89H9.66895V16.99H26.6659V15.89Z" fill="#AEBFCE"/>
<path d="M26.6659 17.989H9.66895V19.089H26.6659V17.989Z" fill="#AEBFCE"/>
<path d="M26.6659 21.59H9.66895V22.689H26.6659V21.59Z" fill="#AEBFCE"/>
<path d="M26.6659 23.6901H9.66895V24.7901H26.6659V23.6901Z" fill="#AEBFCE"/>
<path d="M26.6659 27.889H9.66895V28.989H26.6659V27.889Z" fill="#AEBFCE"/>
<path d="M26.6659 29.989H9.66895V31.087H26.6659V29.989Z" fill="#AEBFCE"/>
<path d="M48.2636 5.38904H31.2666V6.49103H48.2636V5.38904Z" fill="#AEBFCE"/>
<path d="M48.2636 7.48804H31.2666V8.59003H48.2636V7.48804Z" fill="#AEBFCE"/>
<path d="M48.2636 11.089H31.2666V12.19H48.2636V11.089Z" fill="#AEBFCE"/>
<path d="M48.2636 13.1901H31.2666V14.2891H48.2636V13.1901Z" fill="#AEBFCE"/>
<path d="M48.2636 15.2881H31.2666V16.3901H48.2636V15.2881Z" fill="#AEBFCE"/>
<path d="M48.2636 21.59H31.2666V22.689H48.2636V21.59Z" fill="#AEBFCE"/>
<path d="M48.2636 23.6901H31.2666V24.7901H48.2636V23.6901Z" fill="#AEBFCE"/>
<path d="M48.2636 25.7891H31.2666V26.8891H48.2636V25.7891Z" fill="#AEBFCE"/>
<path d="M48.2636 29.989H31.2666V31.087H48.2636V29.989Z" fill="#AEBFCE"/>
<path d="M36.335 2.14099H34.1479V26.339L36.335 25.111L38.52 26.339V2.14099H36.335Z" fill="#1C4670"/>
<path d="M60.2728 1.32312C60.2728 1.32312 59.5018 0.37213 57.6838 1.03113C56.2688 1.54213 49.7528 7.41012 50.4448 9.95212C50.4448 9.95212 50.9648 10.0481 51.7018 8.48013C52.4398 6.91013 52.8978 6.02013 54.4328 4.48813C55.9648 2.95613 58.0738 1.45512 58.7708 2.13812L60.2728 1.32312Z" fill="#FFA229"/>
<path d="M55.2636 13.7291C51.3476 19.0361 46.4176 23.5601 45.1486 22.6251C43.8826 21.6881 46.7576 15.6451 50.6736 10.3391C54.5926 5.03507 60.0046 -0.145925 61.2746 0.790075C62.5416 1.72607 59.1816 8.42407 55.2636 13.7291Z" fill="#1C4670"/>
<path d="M48.2359 18.4451C47.6139 17.9861 46.9349 17.6791 46.2549 17.5221C44.9959 20.1041 44.4639 22.1161 45.1499 22.6251C45.8389 23.1321 47.6059 22.0271 49.7039 20.0671C49.3509 19.4641 48.8599 18.9051 48.2359 18.4451Z" fill="#FFA229"/>
<path d="M54.9949 14.5501C54.6409 15.0331 54.2719 15.3641 53.7299 14.9641L49.946 12.1701C49.405 11.7711 49.6149 11.3211 49.9679 10.8371C50.3259 10.3581 50.6939 10.0251 51.2329 10.4251L55.0189 13.2181C55.5599 13.6191 55.3509 14.0681 54.9949 14.5501Z" fill="url(#paint1_linear_233_263)"/>
<path d="M45.5439 22.0911C45.3229 21.9291 45.0819 21.8201 44.8419 21.7631C44.3989 22.6781 44.2089 23.3901 44.4519 23.5701C44.6939 23.7501 45.3189 23.3591 46.0629 22.6661C45.9399 22.4511 45.7639 22.2531 45.5439 22.0911Z" fill="url(#paint2_linear_233_263)"/>
<path d="M54.9949 14.5501C54.6409 15.0331 54.2719 15.3641 53.7299 14.9641L49.946 12.1701C49.405 11.7711 49.6149 11.3211 49.9679 10.8371C50.3259 10.3581 50.6939 10.0251 51.2329 10.4251L55.0189 13.2181C55.5599 13.6191 55.3509 14.0681 54.9949 14.5501Z" fill="#FFA229"/>
<path d="M1.01367 14.3281C1.01367 14.3281 1.62867 13.5701 3.07767 14.0951C4.20467 14.5021 9.39767 19.1801 8.84767 21.2061C8.84767 21.2061 8.43267 21.2811 7.84567 20.0321C7.25667 18.7811 6.89167 18.0711 5.66667 16.8501C4.44667 15.6281 2.76667 14.4331 2.20967 14.9761L1.01367 14.3281Z" fill="#FFA229"/>
<path d="M5.00575 24.2151C8.12775 28.4451 12.0568 32.0501 13.0678 31.3071C14.0768 30.5601 11.7858 25.7441 8.66475 21.5141C5.54075 17.2861 1.22675 13.1581 0.21675 13.9041C-0.79325 14.6491 1.88275 19.9881 5.00575 24.2151Z" fill="#1C4670"/>
<path d="M10.608 27.975C11.104 27.608 11.645 27.364 12.187 27.238C13.191 29.297 13.614 30.902 13.068 31.307C12.519 31.71 11.112 30.83 9.43896 29.268C9.71896 28.787 10.111 28.341 10.608 27.975Z" fill="#FFA229"/>
<path d="M5.22096 24.8701C5.50396 25.2541 5.79696 25.518 6.22896 25.2L9.24495 22.9731C9.67695 22.6551 9.50995 22.2971 9.22695 21.9111C8.94195 21.5281 8.64895 21.2641 8.21895 21.5821L5.20196 23.8091C4.77096 24.1291 4.93696 24.4851 5.22096 24.8701Z" fill="url(#paint3_linear_233_263)"/>
<path d="M12.7538 30.88C12.9278 30.752 13.1198 30.664 13.3118 30.619C13.6658 31.348 13.8168 31.915 13.6228 32.059C13.4308 32.202 12.9318 31.892 12.3398 31.338C12.4388 31.167 12.5778 31.009 12.7538 30.88Z" fill="#1C4670"/>
<path d="M5.22096 24.8701C5.50396 25.2541 5.79696 25.518 6.22896 25.2L9.24495 22.9731C9.67695 22.6551 9.50995 22.2971 9.22695 21.9111C8.94195 21.5281 8.64895 21.2641 8.21895 21.5821L5.20196 23.8091C4.77096 24.1291 4.93696 24.4851 5.22096 24.8701Z" fill="#FFA229"/>
<defs>
<linearGradient id="paint0_linear_233_263" x1="28.9667" y1="32.0134" x2="28.9667" y2="0.21699" gradientUnits="userSpaceOnUse">
<stop stop-color="#CDEFFA"/>
<stop offset="1" stop-color="#FAFAFA"/>
</linearGradient>
<linearGradient id="paint1_linear_233_263" x1="49.9676" y1="10.8377" x2="54.9945" y2="14.5493" gradientUnits="userSpaceOnUse">
<stop stop-color="#BDBDBD"/>
<stop offset="0.1172" stop-color="#ABABAB"/>
<stop offset="0.3225" stop-color="#919191"/>
<stop offset="0.5346" stop-color="#7F7F7F"/>
<stop offset="0.7556" stop-color="#747474"/>
<stop offset="1" stop-color="#707070"/>
</linearGradient>
<linearGradient id="paint2_linear_233_263" x1="44.3871" y1="22.3785" x2="45.6091" y2="23.2808" gradientUnits="userSpaceOnUse">
<stop stop-color="#286891"/>
<stop offset="0.01" stop-color="#276790"/>
<stop offset="0.2403" stop-color="#1C5176"/>
<stop offset="0.4781" stop-color="#144264"/>
<stop offset="0.726" stop-color="#103959"/>
<stop offset="1" stop-color="#0E3655"/>
</linearGradient>
<linearGradient id="paint3_linear_233_263" x1="9.2274" y1="21.9115" x2="5.22139" y2="24.8693" gradientUnits="userSpaceOnUse">
<stop stop-color="#BDBDBD"/>
<stop offset="0.1172" stop-color="#ABABAB"/>
<stop offset="0.3225" stop-color="#919191"/>
<stop offset="0.5346" stop-color="#7F7F7F"/>
<stop offset="0.7556" stop-color="#747474"/>
<stop offset="1" stop-color="#707070"/>
</linearGradient>
</defs>
</svg>
