<svg width="16" height="16" viewBox="0 0 16 16" fill="none" xmlns="http://www.w3.org/2000/svg">
<g clip-path="url(#clip0_218_230)">
<path d="M14.5 2H10C10 1.46957 9.78929 0.960859 9.41421 0.585786C9.03914 0.210714 8.53043 0 8 0C7.46957 0 6.96086 0.210714 6.58579 0.585786C6.21071 0.960859 6 1.46957 6 2H1.5C1.36739 2 1.24021 2.05268 1.14645 2.14645C1.05268 2.24021 1 2.36739 1 2.5V15.5C1 15.6326 1.05268 15.7598 1.14645 15.8536C1.24021 15.9473 1.36739 16 1.5 16H14.5C14.6326 16 14.7598 15.9473 14.8536 15.8536C14.9473 15.7598 15 15.6326 15 15.5V2.5C15 2.36739 14.9473 2.24021 14.8536 2.14645C14.7598 2.05268 14.6326 2 14.5 2V2ZM8 1C8.26522 1 8.51957 1.10536 8.70711 1.29289C8.89464 1.48043 9 1.73478 9 2C9 2.26522 8.89464 2.51957 8.70711 2.70711C8.51957 2.89464 8.26522 3 8 3C7.73478 3 7.48043 2.89464 7.29289 2.70711C7.10536 2.51957 7 2.26522 7 2C7 1.73478 7.10536 1.48043 7.29289 1.29289C7.48043 1.10536 7.73478 1 8 1ZM14 15H2V3H4V4.5C4 4.63261 4.05268 4.75979 4.14645 4.85355C4.24021 4.94732 4.36739 5 4.5 5H11.5C11.6326 5 11.7598 4.94732 11.8536 4.85355C11.9473 4.75979 12 4.63261 12 4.5V3H14V15Z" fill="#1C4670"/>
<path d="M6.99997 13.414L3.79297 9.70697L4.70697 8.79297L6.99997 10.586L11.293 6.79297L12.207 7.70697L6.99997 13.414Z" fill="#FCD751"/>
</g>
<defs>
<clipPath id="clip0_218_230">
<rect width="16" height="16" fill="white"/>
</clipPath>
</defs>
</svg>
