<svg width="16" height="16" viewBox="0 0 16 16" fill="none" xmlns="http://www.w3.org/2000/svg">
<path d="M15.9912 3.4783C15.9908 3.6276 15.9744 3.77643 15.9423 3.92226C15.368 6.69849 14.0215 9.25615 12.0577 11.3008C10.0896 13.3019 7.58376 14.6898 4.84339 15.2965C4.50185 15.368 4.14766 15.3505 3.81487 15.2455C3.48209 15.1405 3.18192 14.9517 2.94324 14.6971L1.234 12.9213C1.14823 12.8306 1.08254 12.7228 1.04123 12.605C0.999921 12.4872 0.983918 12.362 0.994267 12.2376C1.00772 12.1086 1.04928 11.9841 1.11601 11.8729C1.18274 11.7617 1.27302 11.6664 1.38051 11.5939L4.66136 9.37407C4.78866 9.29082 4.93932 9.25064 5.09117 9.25943C5.24302 9.26822 5.38804 9.32552 5.50488 9.4229L6.83676 10.5372C7.81899 10.0934 8.70674 9.46492 9.45167 8.68593C10.2236 7.91198 10.84 6.99719 11.2675 5.9911L10.1709 4.61039C10.0792 4.49443 10.0251 4.35332 10.0155 4.20581C10.006 4.05831 10.0416 3.91141 10.1176 3.78463L12.2841 0.432744C12.3528 0.317718 12.4466 0.219725 12.5586 0.146104C12.6705 0.0724845 12.7976 0.025145 12.9304 0.00763459C13.0633 -0.00987487 13.1983 0.00289768 13.3255 0.0449948C13.4527 0.0870928 13.5687 0.157424 13.6648 0.250721L15.3785 1.98216C15.5742 2.17884 15.7291 2.41228 15.8343 2.66904C15.9394 2.92581 15.9927 3.20084 15.9912 3.4783ZM1.8733 12.3086L3.58254 14.0845C3.71598 14.2277 3.88438 14.3337 4.0712 14.392C4.25802 14.4504 4.45682 14.4592 4.64804 14.4174C7.21951 13.8533 9.57256 12.5565 11.4228 10.6837C13.2704 8.75954 14.5369 6.35266 15.0766 3.74023C15.118 3.54249 15.1096 3.33758 15.0523 3.14388C14.9949 2.95017 14.8904 2.77372 14.7481 2.63034L13.0344 0.8989L10.9434 4.13536L12.1243 5.61818C12.1692 5.67494 12.1996 5.74184 12.2127 5.81303C12.2259 5.88422 12.2214 5.95754 12.1998 6.02662C11.7461 7.25785 11.026 8.37363 10.091 9.29415C9.20182 10.2463 8.10915 10.9854 6.89447 11.4562C6.82094 11.4762 6.74351 11.4768 6.66965 11.4582C6.59578 11.4395 6.52796 11.4021 6.47271 11.3497L5.03873 10.151L1.8733 12.3086Z" fill="#8B9297"/>
</svg>
