<svg width="15" height="18" viewBox="0 0 15 18" fill="none" xmlns="http://www.w3.org/2000/svg">
<path d="M7.44995 10.1576C8.69259 10.1576 9.69995 9.15023 9.69995 7.90759C9.69995 6.66495 8.69259 5.65759 7.44995 5.65759C6.20731 5.65759 5.19995 6.66495 5.19995 7.90759C5.19995 9.15023 6.20731 10.1576 7.44995 10.1576Z" stroke="#8B9297" stroke-width="2" stroke-linecap="round" stroke-linejoin="round"/>
<path d="M7.44995 1.90759C5.85865 1.90759 4.33253 2.53973 3.20731 3.66495C2.08209 4.79017 1.44995 6.31629 1.44995 7.90759C1.44995 9.32659 1.75145 10.2551 2.57495 11.2826L7.44995 16.9076L12.325 11.2826C13.1485 10.2551 13.45 9.32659 13.45 7.90759C13.45 6.31629 12.8178 4.79017 11.6926 3.66495C10.5674 2.53973 9.04125 1.90759 7.44995 1.90759V1.90759Z" stroke="#8B9297" stroke-width="2" stroke-linecap="round" stroke-linejoin="round"/>
</svg>
