<svg width="150" height="150" viewBox="0 0 150 150" fill="none" xmlns="http://www.w3.org/2000/svg">
<rect width="150" height="150" fill="#C4C4C4"/>
<path d="M25.25 82H23.612L17.024 72.01V82H15.386V69.436H17.024L23.612 79.408V69.436H25.25V82ZM32.3443 82.162C31.4203 82.162 30.5803 81.952 29.8243 81.532C29.0803 81.112 28.4923 80.518 28.0603 79.75C27.6403 78.97 27.4303 78.07 27.4303 77.05C27.4303 76.042 27.6463 75.154 28.0783 74.386C28.5223 73.606 29.1223 73.012 29.8783 72.604C30.6343 72.184 31.4803 71.974 32.4163 71.974C33.3523 71.974 34.1983 72.184 34.9543 72.604C35.7103 73.012 36.3043 73.6 36.7363 74.368C37.1803 75.136 37.4023 76.03 37.4023 77.05C37.4023 78.07 37.1743 78.97 36.7183 79.75C36.2743 80.518 35.6683 81.112 34.9003 81.532C34.1323 81.952 33.2803 82.162 32.3443 82.162ZM32.3443 80.722C32.9323 80.722 33.4843 80.584 34.0003 80.308C34.5163 80.032 34.9303 79.618 35.2423 79.066C35.5663 78.514 35.7283 77.842 35.7283 77.05C35.7283 76.258 35.5723 75.586 35.2603 75.034C34.9483 74.482 34.5403 74.074 34.0363 73.81C33.5323 73.534 32.9863 73.396 32.3983 73.396C31.7983 73.396 31.2463 73.534 30.7423 73.81C30.2503 74.074 29.8543 74.482 29.5543 75.034C29.2543 75.586 29.1043 76.258 29.1043 77.05C29.1043 77.854 29.2483 78.532 29.5363 79.084C29.8363 79.636 30.2323 80.05 30.7243 80.326C31.2163 80.59 31.7563 80.722 32.3443 80.722ZM48.2607 69.454C49.6288 69.454 50.8108 69.712 51.8068 70.228C52.8148 70.732 53.5828 71.458 54.1108 72.406C54.6508 73.354 54.9208 74.47 54.9208 75.754C54.9208 77.038 54.6508 78.154 54.1108 79.102C53.5828 80.038 52.8148 80.758 51.8068 81.262C50.8108 81.754 49.6288 82 48.2607 82H44.3548V69.454H48.2607ZM48.2607 80.65C49.8808 80.65 51.1168 80.224 51.9688 79.372C52.8208 78.508 53.2468 77.302 53.2468 75.754C53.2468 74.194 52.8148 72.976 51.9508 72.1C51.0988 71.224 49.8688 70.786 48.2607 70.786H45.9928V80.65H48.2607ZM57.9273 70.534C57.6153 70.534 57.3513 70.426 57.1353 70.21C56.9193 69.994 56.8113 69.73 56.8113 69.418C56.8113 69.106 56.9193 68.842 57.1353 68.626C57.3513 68.41 57.6153 68.302 57.9273 68.302C58.2273 68.302 58.4793 68.41 58.6833 68.626C58.8993 68.842 59.0073 69.106 59.0073 69.418C59.0073 69.73 58.8993 69.994 58.6833 70.21C58.4793 70.426 58.2273 70.534 57.9273 70.534ZM58.7193 72.136V82H57.0813V72.136H58.7193ZM65.003 82.162C64.247 82.162 63.569 82.036 62.969 81.784C62.369 81.52 61.895 81.16 61.547 80.704C61.199 80.236 61.007 79.702 60.971 79.102H62.663C62.711 79.594 62.939 79.996 63.347 80.308C63.767 80.62 64.313 80.776 64.985 80.776C65.609 80.776 66.101 80.638 66.461 80.362C66.821 80.086 67.001 79.738 67.001 79.318C67.001 78.886 66.809 78.568 66.425 78.364C66.041 78.148 65.447 77.938 64.643 77.734C63.911 77.542 63.311 77.35 62.843 77.158C62.387 76.954 61.991 76.66 61.655 76.276C61.331 75.88 61.169 75.364 61.169 74.728C61.169 74.224 61.319 73.762 61.619 73.342C61.919 72.922 62.345 72.592 62.897 72.352C63.449 72.1 64.079 71.974 64.787 71.974C65.879 71.974 66.761 72.25 67.433 72.802C68.105 73.354 68.465 74.11 68.513 75.07H66.875C66.839 74.554 66.629 74.14 66.245 73.828C65.873 73.516 65.369 73.36 64.733 73.36C64.145 73.36 63.677 73.486 63.329 73.738C62.981 73.99 62.807 74.32 62.807 74.728C62.807 75.052 62.909 75.322 63.113 75.538C63.329 75.742 63.593 75.91 63.905 76.042C64.229 76.162 64.673 76.3 65.237 76.456C65.945 76.648 66.521 76.84 66.965 77.032C67.409 77.212 67.787 77.488 68.099 77.86C68.423 78.232 68.591 78.718 68.603 79.318C68.603 79.858 68.453 80.344 68.153 80.776C67.853 81.208 67.427 81.55 66.875 81.802C66.335 82.042 65.711 82.162 65.003 82.162ZM72.5533 73.954C72.8773 73.39 73.3573 72.922 73.9933 72.55C74.6413 72.166 75.3913 71.974 76.2433 71.974C77.1193 71.974 77.9113 72.184 78.6193 72.604C79.3393 73.024 79.9033 73.618 80.3113 74.386C80.7193 75.142 80.9233 76.024 80.9233 77.032C80.9233 78.028 80.7193 78.916 80.3113 79.696C79.9033 80.476 79.3393 81.082 78.6193 81.514C77.9113 81.946 77.1193 82.162 76.2433 82.162C75.4033 82.162 74.6593 81.976 74.0113 81.604C73.3753 81.22 72.8893 80.746 72.5533 80.182V86.68H70.9153V72.136H72.5533V73.954ZM79.2493 77.032C79.2493 76.288 79.0993 75.64 78.7993 75.088C78.4993 74.536 78.0913 74.116 77.5753 73.828C77.0713 73.54 76.5133 73.396 75.9013 73.396C75.3013 73.396 74.7433 73.546 74.2273 73.846C73.7233 74.134 73.3153 74.56 73.0033 75.124C72.7033 75.676 72.5533 76.318 72.5533 77.05C72.5533 77.794 72.7033 78.448 73.0033 79.012C73.3153 79.564 73.7233 79.99 74.2273 80.29C74.7433 80.578 75.3013 80.722 75.9013 80.722C76.5133 80.722 77.0713 80.578 77.5753 80.29C78.0913 79.99 78.4993 79.564 78.7993 79.012C79.0993 78.448 79.2493 77.788 79.2493 77.032ZM87.3814 82.162C86.4574 82.162 85.6174 81.952 84.8614 81.532C84.1174 81.112 83.5294 80.518 83.0974 79.75C82.6774 78.97 82.4674 78.07 82.4674 77.05C82.4674 76.042 82.6834 75.154 83.1154 74.386C83.5594 73.606 84.1594 73.012 84.9154 72.604C85.6714 72.184 86.5174 71.974 87.4534 71.974C88.3894 71.974 89.2354 72.184 89.9914 72.604C90.7474 73.012 91.3414 73.6 91.7734 74.368C92.2174 75.136 92.4394 76.03 92.4394 77.05C92.4394 78.07 92.2114 78.97 91.7554 79.75C91.3114 80.518 90.7054 81.112 89.9374 81.532C89.1694 81.952 88.3174 82.162 87.3814 82.162ZM87.3814 80.722C87.9694 80.722 88.5214 80.584 89.0374 80.308C89.5534 80.032 89.9674 79.618 90.2794 79.066C90.6034 78.514 90.7654 77.842 90.7654 77.05C90.7654 76.258 90.6094 75.586 90.2974 75.034C89.9854 74.482 89.5774 74.074 89.0734 73.81C88.5694 73.534 88.0234 73.396 87.4354 73.396C86.8354 73.396 86.2834 73.534 85.7794 73.81C85.2874 74.074 84.8914 74.482 84.5914 75.034C84.2914 75.586 84.1414 76.258 84.1414 77.05C84.1414 77.854 84.2854 78.532 84.5734 79.084C84.8734 79.636 85.2694 80.05 85.7614 80.326C86.2534 80.59 86.7934 80.722 87.3814 80.722ZM99.399 71.956C100.599 71.956 101.571 72.322 102.315 73.054C103.059 73.774 103.431 74.818 103.431 76.186V82H101.811V76.42C101.811 75.436 101.565 74.686 101.073 74.17C100.581 73.642 99.909 73.378 99.057 73.378C98.193 73.378 97.503 73.648 96.987 74.188C96.483 74.728 96.231 75.514 96.231 76.546V82H94.593V72.136H96.231V73.54C96.555 73.036 96.993 72.646 97.545 72.37C98.109 72.094 98.727 71.956 99.399 71.956ZM106.953 70.534C106.641 70.534 106.377 70.426 106.161 70.21C105.945 69.994 105.837 69.73 105.837 69.418C105.837 69.106 105.945 68.842 106.161 68.626C106.377 68.41 106.641 68.302 106.953 68.302C107.253 68.302 107.505 68.41 107.709 68.626C107.925 68.842 108.033 69.106 108.033 69.418C108.033 69.73 107.925 69.994 107.709 70.21C107.505 70.426 107.253 70.534 106.953 70.534ZM107.745 72.136V82H106.107V72.136H107.745ZM112.174 73.972C112.51 73.384 113.002 72.904 113.65 72.532C114.298 72.16 115.036 71.974 115.864 71.974C116.752 71.974 117.55 72.184 118.258 72.604C118.966 73.024 119.524 73.618 119.932 74.386C120.34 75.142 120.544 76.024 120.544 77.032C120.544 78.028 120.34 78.916 119.932 79.696C119.524 80.476 118.96 81.082 118.24 81.514C117.532 81.946 116.74 82.162 115.864 82.162C115.012 82.162 114.262 81.976 113.614 81.604C112.978 81.232 112.498 80.758 112.174 80.182V82H110.536V68.68H112.174V73.972ZM118.87 77.032C118.87 76.288 118.72 75.64 118.42 75.088C118.12 74.536 117.712 74.116 117.196 73.828C116.692 73.54 116.134 73.396 115.522 73.396C114.922 73.396 114.364 73.546 113.848 73.846C113.344 74.134 112.936 74.56 112.624 75.124C112.324 75.676 112.174 76.318 112.174 77.05C112.174 77.794 112.324 78.448 112.624 79.012C112.936 79.564 113.344 79.99 113.848 80.29C114.364 80.578 114.922 80.722 115.522 80.722C116.134 80.722 116.692 80.578 117.196 80.29C117.712 79.99 118.12 79.564 118.42 79.012C118.72 78.448 118.87 77.788 118.87 77.032ZM124.338 68.68V82H122.7V68.68H124.338ZM136.13 76.69C136.13 77.002 136.112 77.332 136.076 77.68H128.192C128.252 78.652 128.582 79.414 129.182 79.966C129.794 80.506 130.532 80.776 131.396 80.776C132.104 80.776 132.692 80.614 133.16 80.29C133.64 79.954 133.976 79.51 134.168 78.958H135.932C135.668 79.906 135.14 80.68 134.348 81.28C133.556 81.868 132.572 82.162 131.396 82.162C130.46 82.162 129.62 81.952 128.876 81.532C128.144 81.112 127.568 80.518 127.148 79.75C126.728 78.97 126.518 78.07 126.518 77.05C126.518 76.03 126.722 75.136 127.13 74.368C127.538 73.6 128.108 73.012 128.84 72.604C129.584 72.184 130.436 71.974 131.396 71.974C132.332 71.974 133.16 72.178 133.88 72.586C134.6 72.994 135.152 73.558 135.536 74.278C135.932 74.986 136.13 75.79 136.13 76.69ZM134.438 76.348C134.438 75.724 134.3 75.19 134.024 74.746C133.748 74.29 133.37 73.948 132.89 73.72C132.422 73.48 131.9 73.36 131.324 73.36C130.496 73.36 129.788 73.624 129.2 74.152C128.624 74.68 128.294 75.412 128.21 76.348H134.438Z" fill="black"/>
</svg>
