<svg width="634" height="393" viewBox="0 0 634 393" fill="none" xmlns="http://www.w3.org/2000/svg">
<path d="M634 0H0V393H634V0Z" fill="url(#paint0_radial)"/>
<path d="M372.197 350.054L167.731 289.128L168.497 204.183L322.764 282.51L372.197 350.054Z" fill="url(#paint1_linear)"/>
<path d="M235.341 193.827L275.506 200.832L495.959 127.873L236.107 108.882L235.341 193.827Z" fill="url(#paint2_linear)"/>
<path d="M168.497 103.141L247.269 109.698L207.898 195.001L167.731 188.086L168.497 103.141Z" fill="url(#paint3_linear)"/>
<path d="M444.707 306.615L205.911 262.045L211.648 68.519L369.52 9.98596L444.707 306.615Z" fill="url(#paint4_linear)"/>
<path d="M388.256 137.083L167.731 188.086L168.497 103.141L394.404 50.865L388.256 137.083Z" fill="url(#paint5_linear)"/>
<path d="M495.193 212.818L167.731 289.128L168.497 204.183L495.959 127.873L495.193 212.818Z" fill="url(#paint6_linear)"/>
<path d="M222.121 153.101L216.609 154.363L195.344 126.287L195.676 159.156L190.165 160.418L189.734 117.764L195.246 116.502L216.569 144.711L216.235 111.696L221.69 110.446L222.121 153.101ZM260.7 101.513L260.993 130.516C261.014 134.543 259.81 138.118 257.38 141.239C254.969 144.355 251.671 146.549 247.485 147.821L246.03 148.213C241.479 149.255 237.84 148.826 235.111 146.925C232.382 145.025 230.976 141.872 230.894 137.467L230.6 108.406L236.026 107.164L236.318 136.049C236.349 139.135 237.201 141.347 238.875 142.687C240.549 144.006 242.918 144.315 245.983 143.613C249.086 142.903 251.448 141.51 253.068 139.436C254.707 137.358 255.511 134.776 255.48 131.69L255.188 102.776L260.7 101.513ZM293.087 117.088L275.068 121.215L275.22 136.331L296.153 131.537L296.199 136.137L269.784 142.186L269.353 99.5319L295.483 93.5482L295.53 98.1768L274.883 102.905L275.021 116.615L293.041 112.489L293.087 117.088ZM316.714 123.951L328.239 86.0473L334.236 84.6739L319.245 130.859L314.391 131.971L298.567 92.8419L304.536 91.4751L316.714 123.951ZM371.647 98.8633C371.689 103.043 371.041 106.852 369.702 110.291C368.362 113.71 366.444 116.527 363.948 118.743C361.451 120.96 358.528 122.451 355.177 123.218C351.902 123.968 348.991 123.813 346.442 122.752C343.893 121.672 341.899 119.77 340.459 117.046C339.038 114.298 338.289 110.917 338.21 106.902L338.179 103.826C338.138 99.7246 338.796 95.9426 340.154 92.48C341.512 89.0174 343.449 86.1661 345.964 83.9262C348.498 81.6624 351.403 80.1556 354.677 79.4057C358.009 78.6427 360.949 78.8014 363.498 79.8816C366.066 80.9379 368.051 82.8813 369.453 85.7118C370.856 88.5227 371.578 92.0082 371.62 96.1681L371.647 98.8633ZM366.165 97.3586C366.114 92.3003 365.085 88.6502 363.077 86.4084C361.07 84.1472 358.286 83.4241 354.726 84.2394C351.261 85.0329 348.543 87.0159 346.571 90.1883C344.618 93.3369 343.638 97.32 343.629 102.138L343.661 105.272C343.71 110.174 344.749 113.803 346.776 116.157C348.822 118.488 351.607 119.25 355.129 118.443C358.67 117.632 361.398 115.686 363.313 112.605C365.228 109.504 366.19 105.477 366.197 100.522L366.165 97.3586Z" fill="white"/>
<path d="M195.593 246.209L195.763 262.908L190.283 264.177L189.848 221.523L205.174 217.972C209.722 216.918 213.292 217.285 215.885 219.072C218.497 220.855 219.823 223.71 219.863 227.635C219.905 231.776 218.673 235.262 216.165 238.094C213.676 240.903 210.082 242.852 205.382 243.941L195.593 246.209ZM195.546 241.61L205.392 239.328C208.322 238.649 210.56 237.426 212.106 235.658C213.652 233.871 214.411 231.639 214.384 228.964C214.358 226.425 213.557 224.574 211.981 223.413C210.406 222.251 208.257 221.956 205.536 222.528L195.375 224.882L195.546 241.61ZM242.222 234.846L232.461 237.108L232.637 254.363L227.129 255.639L226.694 212.985L240.451 209.797C245.131 208.713 248.738 208.973 251.272 210.578C253.825 212.179 255.123 215.07 255.166 219.249C255.193 221.905 254.512 224.383 253.125 226.682C251.756 228.976 249.83 230.9 247.347 232.454L257.293 248.297L257.297 248.649L251.417 250.011L242.222 234.846ZM232.414 232.508L240.834 230.557C243.555 229.927 245.707 228.704 247.291 226.888C248.893 225.068 249.682 222.947 249.657 220.526C249.63 217.889 248.839 216.046 247.284 214.997C245.747 213.944 243.533 213.742 240.64 214.393L232.25 216.337L232.414 232.508ZM294.938 219.929C294.98 224.108 294.333 227.919 292.995 231.361C291.656 234.784 289.74 237.607 287.245 239.829C284.75 242.052 281.828 243.551 278.48 244.327C275.207 245.086 272.297 244.938 269.75 243.884C267.202 242.81 265.209 240.913 263.77 238.192C262.349 235.448 261.6 232.069 261.521 228.054L261.489 224.978C261.447 220.877 262.105 217.093 263.462 213.627C264.819 210.161 266.754 207.304 269.268 205.058C271.8 202.787 274.703 201.273 277.975 200.515C281.305 199.743 284.244 199.894 286.791 200.968C289.358 202.017 291.342 203.956 292.744 206.783C294.146 209.59 294.868 213.074 294.91 217.234L294.938 219.929ZM289.459 218.438C289.407 213.38 288.378 209.732 286.372 207.496C284.365 205.24 281.583 204.524 278.025 205.348C274.562 206.151 271.845 208.141 269.875 211.318C267.924 214.472 266.944 218.458 266.936 223.276L266.968 226.41C267.018 231.312 268.056 234.938 270.083 237.287C272.128 239.613 274.911 240.368 278.431 239.552C281.97 238.732 284.696 236.779 286.61 233.692C288.524 230.587 289.484 226.556 289.491 221.602L289.459 218.438ZM303.361 237.974L302.926 195.32L314.656 192.602C318.271 191.764 321.476 191.844 324.271 192.841C327.066 193.837 329.23 195.675 330.764 198.354C332.317 201.029 333.123 204.326 333.182 208.248L333.21 210.972C333.251 214.995 332.526 218.697 331.035 222.077C329.562 225.452 327.426 228.277 324.627 230.55C321.847 232.819 318.592 234.406 314.863 235.309L303.361 237.974ZM308.453 198.679L308.794 232.105L314.559 230.769C318.783 229.79 322.052 227.682 324.364 224.445C326.696 221.203 327.837 217.092 327.786 212.111L327.761 209.621C327.711 204.778 326.56 201.276 324.306 199.116C322.072 196.933 318.918 196.293 314.846 197.198L308.453 198.679ZM370.539 179.652L370.835 208.655C370.857 212.683 369.653 216.26 367.225 219.387C364.816 222.51 361.52 224.713 357.337 225.995L355.882 226.391C351.334 227.445 347.697 227.025 344.969 225.132C342.242 223.238 340.836 220.089 340.753 215.684L340.457 186.623L345.88 185.367L346.174 214.252C346.206 217.338 347.058 219.548 348.731 220.883C350.403 222.199 352.772 222.502 355.835 221.792C358.936 221.073 361.296 219.674 362.915 217.596C364.554 215.513 365.357 212.929 365.325 209.843L365.03 180.929L370.539 179.652ZM410.051 199.685C409.583 204.315 407.992 208.179 405.277 211.274C402.581 214.346 398.969 216.407 394.44 217.456C389.531 218.594 385.574 217.7 382.569 214.774C379.583 211.845 378.059 207.353 377.997 201.298L377.955 197.197C377.915 193.232 378.564 189.587 379.904 186.262C381.262 182.933 383.198 180.174 385.713 177.986C388.227 175.779 391.149 174.289 394.478 173.518C398.893 172.495 402.445 172.944 405.134 174.866C407.824 176.768 409.41 179.905 409.893 184.276L404.385 185.552C403.875 182.264 402.813 180.043 401.199 178.89C399.604 177.733 397.38 177.485 394.525 178.146C391.025 178.958 388.289 180.923 386.318 184.042C384.366 187.157 383.415 191.165 383.465 196.067L383.507 200.198C383.555 204.826 384.534 208.29 386.446 210.587C388.357 212.885 391.006 213.641 394.393 212.857C397.438 212.151 399.761 210.908 401.364 209.127C402.986 207.322 404.045 204.6 404.542 200.961L410.051 199.685ZM445.163 167L431.806 170.095L432.193 208.12L426.742 209.383L426.354 171.358L413.026 174.447L412.979 169.818L445.115 162.371L445.163 167ZM482.678 176.424C482.721 180.604 482.073 184.415 480.735 187.857C479.397 191.28 477.48 194.102 474.985 196.325C472.49 198.547 469.569 200.047 466.22 200.823C462.947 201.581 460.037 201.433 457.49 200.379C454.942 199.305 452.949 197.408 451.51 194.688C450.09 191.944 449.34 188.564 449.261 184.55L449.229 181.474C449.188 177.372 449.845 173.589 451.202 170.122C452.559 166.656 454.494 163.8 457.008 161.553C459.54 159.283 462.443 157.768 465.716 157.01C469.045 156.239 471.984 156.39 474.532 157.463C477.098 158.513 479.082 160.451 480.484 163.278C481.886 166.086 482.608 169.569 482.651 173.729L482.678 176.424ZM477.199 174.934C477.147 169.875 476.118 166.228 474.112 163.991C472.105 161.735 469.323 161.019 465.765 161.844C462.302 162.646 459.586 164.636 457.615 167.814C455.664 170.968 454.684 174.953 454.676 179.771L454.708 182.906C454.758 187.808 455.797 191.434 457.823 193.783C459.868 196.108 462.651 196.863 466.171 196.048C469.71 195.228 472.437 193.274 474.35 190.188C476.264 187.082 477.224 183.052 477.231 178.098L477.199 174.934Z" fill="white"/>
<path d="M417.869 95.609L431.468 54.842L471.545 50.865L417.869 95.609Z" fill="url(#paint7_linear)"/>
<path d="M221.9 324.225L138.254 298.938L155.34 326.013L221.9 324.225Z" fill="url(#paint8_linear)"/>
<path d="M235.341 48.1949L167.731 47.0289L184.681 66.9899L235.341 48.1949Z" fill="url(#paint9_linear)"/>
<path d="M438.914 235.257L498.435 228.251L488.893 242.623L438.914 235.257Z" fill="url(#paint10_linear)"/>
<path opacity="0.26" d="M215.383 176.81L379.95 154.396L388.507 136.308L215.383 176.81Z" fill="black"/>
<path opacity="0.26" d="M247.269 270.188L429.131 245.162L425.044 229.04L247.269 270.188Z" fill="black"/>
<path opacity="0.48" d="M326 378.014C441.428 378.014 535 365.496 535 350.054C535 334.612 441.428 322.094 326 322.094C210.572 322.094 117 334.612 117 350.054C117 365.496 210.572 378.014 326 378.014Z" fill="url(#paint11_radial)"/>
<defs>
<radialGradient id="paint0_radial" cx="0" cy="0" r="1" gradientUnits="userSpaceOnUse" gradientTransform="translate(317 196.5) scale(534.494 331.319)">
<stop stop-color="#E6E6E6"/>
<stop offset="0.305" stop-color="#E3E4E5"/>
<stop offset="0.5252" stop-color="#DADCE0"/>
<stop offset="0.7188" stop-color="#CACED9"/>
<stop offset="0.896" stop-color="#B4BBCF"/>
<stop offset="1" stop-color="#A3ADC7"/>
</radialGradient>
<linearGradient id="paint1_linear" x1="167.731" y1="277.118" x2="372.197" y2="277.118" gradientUnits="userSpaceOnUse">
<stop stop-color="#0B2DAA"/>
<stop offset="0.2721" stop-color="#224ABB"/>
<stop offset="0.8593" stop-color="#5C93E6"/>
<stop offset="1" stop-color="#6BA6F1"/>
</linearGradient>
<linearGradient id="paint2_linear" x1="496.37" y1="154.857" x2="235.753" y2="154.857" gradientUnits="userSpaceOnUse">
<stop stop-color="#0B2DAA"/>
<stop offset="0.2721" stop-color="#224ABB"/>
<stop offset="0.8593" stop-color="#5C93E6"/>
<stop offset="1" stop-color="#6BA6F1"/>
</linearGradient>
<linearGradient id="paint3_linear" x1="247.395" y1="149.071" x2="167.856" y2="149.071" gradientUnits="userSpaceOnUse">
<stop offset="0.0034" stop-color="#E8B42A"/>
<stop offset="0.1981" stop-color="#EBA82B"/>
<stop offset="0.5521" stop-color="#F1872C"/>
<stop offset="1" stop-color="#FC562F"/>
</linearGradient>
<linearGradient id="paint4_linear" x1="217.99" y1="158.301" x2="405.292" y2="158.301" gradientUnits="userSpaceOnUse">
<stop offset="0.0034" stop-color="#AA2F34"/>
<stop offset="0.8766" stop-color="#840684"/>
<stop offset="1" stop-color="#7E0090"/>
</linearGradient>
<linearGradient id="paint5_linear" x1="167.983" y1="153.015" x2="393.662" y2="154.631" gradientUnits="userSpaceOnUse">
<stop offset="0.0034" stop-color="#E8B42A"/>
<stop offset="0.3377" stop-color="#E7AD2B"/>
<stop offset="0.8197" stop-color="#E69A2E"/>
<stop offset="1" stop-color="#E5912F"/>
</linearGradient>
<linearGradient id="paint6_linear" x1="167.731" y1="208.5" x2="495.959" y2="208.5" gradientUnits="userSpaceOnUse">
<stop offset="3.1e-07" stop-color="#6BA6F1"/>
<stop offset="0.4653" stop-color="#5E96E0"/>
<stop offset="1" stop-color="#4A7FC7"/>
</linearGradient>
<linearGradient id="paint7_linear" x1="417.869" y1="73.2373" x2="471.545" y2="73.2373" gradientUnits="userSpaceOnUse">
<stop offset="0.0034" stop-color="#E8B42A"/>
<stop offset="0.3377" stop-color="#E7AD2B"/>
<stop offset="0.8197" stop-color="#E69A2E"/>
<stop offset="1" stop-color="#E5912F"/>
</linearGradient>
<linearGradient id="paint8_linear" x1="138.254" y1="312.476" x2="221.9" y2="312.476" gradientUnits="userSpaceOnUse">
<stop offset="3.1e-07" stop-color="#6BA6F1"/>
<stop offset="0.4653" stop-color="#5E96E0"/>
<stop offset="1" stop-color="#4A7FC7"/>
</linearGradient>
<linearGradient id="paint9_linear" x1="167.731" y1="57.0097" x2="235.341" y2="57.0097" gradientUnits="userSpaceOnUse">
<stop offset="0.0034" stop-color="#AA2F34"/>
<stop offset="0.8766" stop-color="#840684"/>
<stop offset="1" stop-color="#7E0090"/>
</linearGradient>
<linearGradient id="paint10_linear" x1="438.914" y1="235.437" x2="498.435" y2="235.437" gradientUnits="userSpaceOnUse">
<stop offset="0.0034" stop-color="#AA2F34"/>
<stop offset="0.8766" stop-color="#840684"/>
<stop offset="1" stop-color="#7E0090"/>
</linearGradient>
<radialGradient id="paint11_radial" cx="0" cy="0" r="1" gradientUnits="userSpaceOnUse" gradientTransform="translate(324.979 349.132) scale(207.136 25.2148)">
<stop stop-opacity="0.7803"/>
<stop offset="0.127" stop-opacity="0.6809"/>
<stop offset="0.9973" stop-opacity="0"/>
</radialGradient>
</defs>
</svg>
